{
.appVersion = "3221";
classes = (
{
automatic = 1;
code = "A Aacute Abreve Acircumflex Adieresis Agrave Amacron Aogonek Aring Atilde AE B C Cacute Ccaron Ccedilla Cdotaccent D Eth Dcaron Dcroat E Eacute Ecaron Ecircumflex Edieresis Edotaccent Egrave Emacron Eogonek F G Gbreve Gcommaaccent Gdotaccent H Hbar I Iacute Icircumflex Idieresis Idotaccent Igrave Imacron Iogonek J K Kcommaaccent L Lacute Lcaron Lcommaaccent Lslash M N Nacute Ncaron Ncommaaccent Ntilde O Oacute Ocircumflex Odieresis Ograve Ohungarumlaut Omacron Oslash Otilde OE P Thorn Q R Racute Rcaron Rcommaaccent S Sacute Scaron Scedilla Scommaaccent Germandbls T Tcaron Tcedilla Tcommaaccent U Uacute Ucircumflex Udieresis Ugrave Uhungarumlaut Umacron Uogonek Uring V W X Y Yacute Ycircumflex Ydieresis Z Zacute Zcaron Zdotaccent";
name = Uppercase;
}
);
customParameters = (
{
name = fsType;
value = (
);
},
{
name = "Use Typo Metrics";
value = 1;
},
{
name = unicodeRanges;
value = (
0,
1
);
},
{
name = license;
value = "SIL Open Font License";
},
{
name = licenseURL;
value = "http://scripts.sil.org/OFL";
},
{
name = vendorID;
value = CLT;
},
{
name = Axes;
value = (
{
Name = Weight;
Tag = wght;
}
);
}
);
date = "2022-04-14 00:13:34 +0000";
designer = "Alberto Casagrande & Collletttivo";
familyName = "Mazius Display";
featurePrefixes = (
{
automatic = 1;
code = "languagesystem DFLT dflt;\012\012languagesystem latn dflt;\012languagesystem latn AZE;\012languagesystem latn CRT;\012languagesystem latn KAZ;\012languagesystem latn TAT;\012languagesystem latn TRK;\012languagesystem latn ROM;\012languagesystem latn MOL;\012";
name = Languagesystems;
}
);
features = (
{
automatic = 1;
code = "feature locl;\012feature sups;\012feature frac;\012feature ordn;\012";
name = aalt;
},
{
automatic = 1;

glyphs = (
{
color = 3;
glyphname = A;
lastChange = "2022-04-13 21:58:02 +0000";
layers = (
{
anchors = (
{
name = ogonek;
position = "{470, 0}";
},
{
name = top;
position = "{556, 700}";
}
);
hints = (
{
origin = "{0, 0}";
scale = "{1.48, 1}";
type = Corner;
name = _corner.rightSerif.cap;
options = 1;
},
{
origin = "{0, 3}";
scale = "{1.24, 1}";
type = Corner;
name = _corner.rightSerif.cap;
options = 1;
},
{
origin = "{0, 4}";
scale = "{0.88, 1}";
type = Corner;
name = _corner.leftSerif.cap;
},
{
origin = "{0, 5}";
scale = "{1.24, 1}";
type = Corner;
name = _corner.rightSerif.cap;
options = 1;
}
);
layerId = "4AEC2A2F-21E0-4005-B5C4-61417F12BD89";
paths = (
{
closed = 1;
nodes = (
"470 0 LINE",
"647 688 LINE",
"631 700 LINE",
"556 700 LINE",
"-28 0 LINE",
"2 0 LINE",
"533 638 LINE",
"537 638 LINE",
"377 16 LINE",
"448 -16 LINE"
);
},
{
closed = 1;
nodes = (
"455 244 LINE",
"459 262 LINE",
"191 262 LINE",
"91 352 LINE",
"67 348 LINE",
"31 296 LINE",
"79 260 OFFCURVE",
"131 244 OFFCURVE",
"179 244 CURVE SMOOTH"
);
}
);
width = 625;
},
{
anchors = (
{
name = ogonek;
position = "{520, 0}";
},
{
name = top;
position = "{552, 700}";
}
);
hints = (
{
origin = "{0, 0}";
scale = "{1.48, 1}";
type = Corner;
name = _corner.rightSerif.cap;
options = 1;
},
{
origin = "{0, 4}";
scale = "{0.88, 1}";
type = Corner;
name = _corner.leftSerif.cap;
},
{
origin = "{0, 5}";
scale = "{1.24, 1}";
type = Corner;
name = _corner.rightSerif.cap;
options = 1;
},
{
origin = "{0, 3}";
scale = "{1.24, 1}";
type = Corner;
name = _corner.rightSerif.cap;
options = 1;
}
);
layerId = "B4D6250A-EC24-4DD5-8C49-5E627D155568";
paths = (
{
closed = 1;
nodes = (
"520 0 LINE",
"680 672 LINE",
"656 700 LINE",
"530 700 LINE",
"-29 0 LINE",
"3 0 LINE",
"518 646 LINE",
"526 644 LINE",
"375 16 LINE",
"496 -18 LINE"
);
},
{
closed = 1;
nodes = (
"448 236 LINE",
"452 262 LINE",
"180 262 LINE",
"102 376 LINE",
"62 372 LINE",
"10 288 LINE",
"58 254 OFFCURVE",
"116 240 OFFCURVE",
"160 236 CURVE"
);
}
);
width = 673;
},
{
anchors = (
{
name = bottom;
position = "{227, 0}";
},
{
name = ogonek;
position = "{397, 8}";
},
{
name = top;
position = "{608, 700}";
}
);
associatedMasterId = "4AEC2A2F-21E0-4005-B5C4-61417F12BD89";
layerId = "61F729AD-9350-46AD-BB27-BCB19F2B1810";
name = "2 apr 22, 18:01";
paths = (
{
closed = 1;
nodes = (
"14 18 LINE",
"193 234 LINE",
"413 229 LINE",
"345 31 LINE",
"360 8 OFFCURVE",
"377 -3 OFFCURVE",
"405 -12 CURVE",
"448 13 LINE",
"659 689 LINE",
"649 700 LINE",
"564 700 LINE",
"177 260 LINE",
"139 273 OFFCURVE",
"117 297 OFFCURVE",
"117 300 CURVE",
"110 303 LINE",
"31 264 LINE",
"31 262 OFFCURVE",
"54 235 OFFCURVE",
"153 235 CURVE SMOOTH",
"155 235 LINE",
"93 163 OFFCURVE",
"33 91 OFFCURVE",
"-20 17 CURVE"
);
},
{
closed = 1;
nodes = (
"557 650 LINE",
"417 245 LINE",
"222 251 OFFCURVE",
"215 252 OFFCURVE",
"208 252 CURVE"
);
}
);
width = 611;
},
{
anchors = (
{
name = bottom;
position = "{267, 0}";
},
{
name = ogonek;
position = "{422, 4}";
},
{
name = top;
position = "{610, 700}";
}
);
associatedMasterId = "B4D6250A-EC24-4DD5-8C49-5E627D155568";
background = {
paths = (
{
closed = 1;
nodes = (
"159 0 LINE",
"159 6 LINE",
"83 18 LINE",
"262 234 LINE",
"489 229 LINE",
"434 31 LINE",
"449 8 OFFCURVE",
"453 -3 OFFCURVE",
"481 -19 CURVE",
"519 -3 LINE",
"622 38 LINE",
"618 46 LINE",
"531 21 LINE",
"705 689 LINE",
"695 702 LINE",
"582 721 LINE",
"580 718 LINE",
"596 712 OFFCURVE",
"605 702 OFFCURVE",
"610 693 CURVE",
"505 547 OFFCURVE",
"371 404 OFFCURVE",
"246 260 CURVE",
"208 273 OFFCURVE",
"186 297 OFFCURVE",
"186 300 CURVE",
"179 303 LINE",
"100 264 LINE",
"100 262 OFFCURVE",
"123 235 OFFCURVE",
"222 235 CURVE SMOOTH",
"224 235 LINE",
"162 163 OFFCURVE",
"102 91 OFFCURVE",
"49 17 CURVE",
"-25 6 LINE",
"-25 0 LINE"
);
},
{
closed = 1;
nodes = (
"606 650 LINE",
"493 245 LINE",
"298 251 LINE SMOOTH",
"291 251 OFFCURVE",
"284 252 OFFCURVE",
"277 252 CURVE"
);
}
);
};
layerId = "063E06B9-EC2C-4D09-BE28-9DAD1B689561";
name = "12 apr 22, 20:26";
paths = (
{
closed = 1;
nodes = (
"19 18 LINE",
"192 230 LINE",
"392 225 LINE",
"325 31 LINE",
"340 8 OFFCURVE",
"364 -14 OFFCURVE",
"392 -30 CURVE",
"499 16 LINE",
"709 689 LINE",
"699 700 LINE",
"609 700 LINE",
"564 700 LINE",
"188 272 LINE",
"150 285 OFFCURVE",
"127 317 OFFCURVE",
"127 320 CURVE",
"120 323 LINE",
"1 264 LINE",
"1 262 OFFCURVE",
"53 232 OFFCURVE",
"152 232 CURVE SMOOTH",
"154 232 LINE",
"92 160 OFFCURVE",
"33 91 OFFCURVE",
"-20 17 CURVE"
);
},
{
closed = 1;
nodes = (
"563 650 LINE",
"537 650 LINE",
"397 255 LINE",
"226 261 OFFCURVE",
"215 262 OFFCURVE",
"208 262 CURVE"
);
}
);
width = 650;
}
);
leftKerningGroup = A;
rightKerningGroup = A;
unicode = 0041;
},
{
color = 1;
glyphname = AE;
lastChange = "2022-04-14 12:29:19 +0000";
layers = (
{
components = (
{
name = E;
transform = "{1, 0, 0, 1, 368, 0}";
}
);
hints = (
{
origin = "{0, 0}";
scale = "{1.24, 1}";
type = Corner;
name = _corner.rightSerif.cap;
options = 1;
},
{
origin = "{0, 7}";
scale = "{1.24, 1}";
type = Corner;
name = _corner.rightSerif.cap;
options = 1;
},
{
origin = "{0, 8}";
scale = "{0.88, 1}";
type = Corner;
name = _corner.leftSerif.cap;
}
);
layerId = "B4D6250A-EC24-4DD5-8C49-5E627D155568";
paths = (
{
closed = 1;
nodes = (
"20 0 LINE",
"516 614 LINE",
"524 608 LINE",
"764 710 LINE",
"724 706 OFFCURVE",
"672 700 OFFCURVE",
"635 700 CURVE",
"552 700 LINE",
"-25 0 LINE"
);
},
{
closed = 1;
nodes = (
"459 238 LINE",
"463 264 LINE",
"196 264 LINE",
"112 388 LINE",
"68 384 LINE",
"8 292 LINE",
"64 258 OFFCURVE",
"121 238 OFFCURVE",
"173 238 CURVE"
);
}
);
width = 900;
},
{
components = (
{
name = E;
transform = "{1, 0, 0, 1, 354, 0}";
}
);
hints = (
{
origin = "{0, 7}";
scale = "{1.24, 1}";
type = Corner;
name = _corner.rightSerif.cap;
options = 1;
},
{
origin = "{0, 8}";
scale = "{0.88, 1}";
type = Corner;
name = _corner.leftSerif.cap;
},
{
origin = "{0, 0}";
scale = "{1.24, 1}";
type = Corner;
name = _corner.rightSerif.cap;
options = 1;
}
);
layerId = "4AEC2A2F-21E0-4005-B5C4-61417F12BD89";
paths = (
{
closed = 1;
nodes = (
"20 0 LINE",
"520 614 LINE",
"526 610 LINE",
"718 714 LINE",
"692 709 OFFCURVE",
"665 700 OFFCURVE",
"639 700 CURVE",
"560 700 LINE",
"-20 0 LINE"
);
},
{
closed = 1;
nodes = (
"463 244 LINE",
"467 262 LINE",
"197 262 LINE",
"85 368 LINE",
"61 364 LINE",
"17 296 LINE",
"59 264 OFFCURVE",
"123 244 OFFCURVE",
"183 244 CURVE SMOOTH"
);
}
);
width = 894;
},
{
associatedMasterId = "4AEC2A2F-21E0-4005-B5C4-61417F12BD89";
components = (
{
name = E;
transform = "{1, 0, 0, 1, 400, 0}";
}
);
layerId = "181D6CA1-E16A-4233-8C01-82C5C45DDC8A";
name = "14 apr 22, 01:40";
paths = (
{
closed = 1;
nodes = (
"-4 -245 OFFCURVE",
"104 -170 OFFCURVE",
"152 -76 CURVE SMOOTH",
"394 396 LINE SMOOTH",
"444 493 OFFCURVE",
"521 569 OFFCURVE",
"590 604 CURVE",
"606 628 LINE",
"446 552 OFFCURVE",
"362 460 OFFCURVE",
"294 336 CURVE SMOOTH",
"22 -156 LINE SMOOTH",
"5 -187 OFFCURVE",
"-26 -220 OFFCURVE",
"-62 -232 CURVE",
"-184 -144 LINE",
"-212 -148 LINE",
"-251 -212 LINE",
"-207 -248 OFFCURVE",
"-160 -266 OFFCURVE",
"-124 -266 CURVE"
);
},
{
closed = 1;
nodes = (
"448 128 LINE",
"452 146 LINE",
"186 146 LINE",
"78 252 LINE",
"54 248 LINE",
"10 180 LINE",
"52 148 OFFCURVE",
"116 128 OFFCURVE",
"176 128 CURVE SMOOTH"
);
}
);
width = 940;
},
{
associatedMasterId = "4AEC2A2F-21E0-4005-B5C4-61417F12BD89";
background = {
paths = (
{
closed = 1;
nodes = (
"211 272 OFFCURVE",
"179 337 OFFCURVE",
"179 341 CURVE",
"83 284 LINE",
"83 282 OFFCURVE",
"106 255 OFFCURVE",
"205 255 CURVE",
"603 248 LINE",
"628 271 LINE",
"281 272 LINE"
);
},
{
closed = 1;
nodes = (
"751 346 OFFCURVE",
"586 323 OFFCURVE",
"573 174 CURVE",
"587 70 OFFCURVE",
"685 -9 OFFCURVE",
"792 -8 CURVE",
"1064 132 LINE",
"1056 146 LINE",
"1034 135 OFFCURVE",
"860 38 OFFCURVE",
"832 38 CURVE SMOOTH",
"765 38 OFFCURVE",
"684 118 OFFCURVE",
"692 218 CURVE",
"703 339 OFFCURVE",
"758 336 OFFCURVE",
"882 375 CURVE",
"876 385 LINE"
);
},
{
closed = 1;
nodes = (
"-138 -78 OFFCURVE",
"-98 -96 OFFCURVE",
"-54 -101 CURVE",
"309 -101 OFFCURVE",
"407 406 OFFCURVE",
"702 604 CURVE",
"694 589 OFFCURVE",
"687 547 OFFCURVE",
"685 530 CURVE",
"685 421 OFFCURVE",
"862 363 OFFCURVE",
"952 333 CURVE",
"953 343 LINE",
"887 376 OFFCURVE",
"781 472 OFFCURVE",
"781 589 CURVE SMOOTH",
"781 625 OFFCURVE",
"803 652 OFFCURVE",
"828 669 CURVE",
"839 676 LINE",
"861 689 OFFCURVE",
"884 695 OFFCURVE",
"895 695 CURVE",
"981 667 OFFCURVE",
"1035 580 OFFCURVE",
"1059 550 CURVE",
"1070 580 LINE",
"1017 709 LINE",
"978 711 LINE",
"474 711 OFFCURVE",
"301 -45 OFFCURVE",
"32 -45 CURVE",
"-17 -45 OFFCURVE",
"-44 -21 OFFCURVE",
"-46 32 CURVE",
"-55 33 LINE",
"-157 -56 LINE"
);
}
);
};
layerId = "529FAC0E-63AC-4CE8-9B06-82FA697D52C9";
name = "13 apr 22, 12:14";
paths = (
{
closed = 1;
nodes = (
"210 183 OFFCURVE",
"179 248 OFFCURVE",
"179 252 CURVE",
"83 195 LINE",
"83 193 OFFCURVE",
"104 168 OFFCURVE",
"205 166 CURVE SMOOTH",
"603 158 LINE",
"628 181 LINE",
"281 183 LINE SMOOTH"
);
},
{
closed = 1;
nodes = (
"708 617 LINE",
"399 391 OFFCURVE",
"246 -164 OFFCURVE",
"32 -164 CURVE SMOOTH",
"-17 -164 OFFCURVE",
"-44 -140 OFFCURVE",
"-46 -87 CURVE",
"-55 -86 LINE",
"-157 -175 LINE",
"-138 -197 OFFCURVE",
"-98 -215 OFFCURVE",
"-54 -220 CURVE",
"309 -220 OFFCURVE",
"407 286 OFFCURVE",
"701 603 CURVE"
);
},
{
closed = 1;
nodes = (
"922 710 LINE",
"795 700 OFFCURVE",
"681 639 OFFCURVE",
"673 550 CURVE SMOOTH",
"670 479 OFFCURVE",
"741 434 OFFCURVE",
"816 403 CURVE",
"698 365 OFFCURVE",
"563 308 OFFCURVE",
"551 174 CURVE",
"565 70 OFFCURVE",
"663 -9 OFFCURVE",
"770 -8 CURVE",
"1042 132 LINE",
"1034 146 LINE",
"1012 135 OFFCURVE",
"838 38 OFFCURVE",
"810 38 CURVE SMOOTH",
"743 38 OFFCURVE",
"662 118 OFFCURVE",
"670 218 CURVE SMOOTH",
"680 330 OFFCURVE",
"728 361 OFFCURVE",
"833 396 CURVE",
"868 383 OFFCURVE",
"903 372 OFFCURVE",
"930 363 CURVE",
"931 373 LINE",
"865 406 OFFCURVE",
"759 472 OFFCURVE",
"759 589 CURVE SMOOTH",
"759 662 OFFCURVE",
"847 695 OFFCURVE",
"912 700 CURVE",
"915 700 OFFCURVE",
"918 700 OFFCURVE",
"922 699 CURVE"
);
},
{
closed = 1;
nodes = (
"922 699 LINE",
"969 692 OFFCURVE",
"1007 633 OFFCURVE",
"1007 566 CURVE SMOOTH",
"1007 544 OFFCURVE",
"1002 521 OFFCURVE",
"993 495 CURVE",
"1002 495 LINE",
"1092 688 LINE",
"1050 705 OFFCURVE",
"1002 711 OFFCURVE",
"956 711 CURVE SMOOTH",
"945 711 OFFCURVE",
"933 711 OFFCURVE",
"922 710 CURVE"
);
}
);
width = 1081;
},
{
anchors = (
{
name = bottom;
position = "{554, 0}";
},
{
name = top;
position = "{768, 700}";
}
);
associatedMasterId = "B4D6250A-EC24-4DD5-8C49-5E627D155568";
components = (
{
name = E;
transform = "{1, 0, 0, 1, 525, 0}";
}
);
layerId = "CB825BA1-2158-4165-A89E-AFD78A3D9878";
name = "14 apr 22, 01:43";
paths = (
{
closed = 1;
nodes = (
"134 191 OFFCURVE",
"95 255 OFFCURVE",
"95 259 CURVE",
"-1 190 LINE",
"-1 188 OFFCURVE",
"20 163 OFFCURVE",
"121 161 CURVE SMOOTH",
"589 153 LINE",
"614 188 LINE",
"232 190 LINE SMOOTH"
);
},
{
closed = 1;
nodes = (
"730 645 LINE",
"421 419 OFFCURVE",
"232 -124 OFFCURVE",
"18 -124 CURVE SMOOTH",
"-31 -124 OFFCURVE",
"-58 -100 OFFCURVE",
"-60 -47 CURVE",
"-69 -46 LINE",
"-181 -215 LINE",
"-162 -237 OFFCURVE",
"-122 -255 OFFCURVE",
"-78 -260 CURVE",
"285 -260 OFFCURVE",
"393 286 OFFCURVE",
"687 603 CURVE"
);
}
);
width = 1048;
}
);
leftKerningGroup = A;
rightKerningGroup = E;
rightMetricsKey = E;
unicode = 00C6;
},
{
color = 3;
glyphname = B;
lastChange = "2022-04-14 09:43:55 +0000";
layers = (
{
hints = (
{
origin = "{0, 14}";
type = Corner;
name = _corner.rightSerif.cap;
options = 1;
},
{
origin = "{0, 15}";
type = Corner;
name = _corner.leftSerif.cap;
}
);
layerId = "4AEC2A2F-21E0-4005-B5C4-61417F12BD89";
paths = (
{
closed = 1;
nodes = (
"304 0 LINE",
"456 36 OFFCURVE",
"560 108 OFFCURVE",
"560 220 CURVE SMOOTH",
"560 312 OFFCURVE",
"488 372 OFFCURVE",
"376 372 CURVE",
"376 376 LINE",
"516 404 OFFCURVE",
"588 480 OFFCURVE",
"588 564 CURVE SMOOTH",
"588 644 OFFCURVE",
"527 700 OFFCURVE",
"440 700 CURVE SMOOTH",
"238 700 LINE",
"38 0 LINE"
);
},
{
closed = 1;
nodes = (
"336 700 LINE",
"308 672 LINE",
"328 678 OFFCURVE",
"356 684 OFFCURVE",
"380 684 CURVE SMOOTH",
"446 684 OFFCURVE",
"488 634 OFFCURVE",
"488 556 CURVE SMOOTH",
"488 472 OFFCURVE",
"430 401 OFFCURVE",
"340 376 CURVE",
"304 376 OFFCURVE",
"258 380 OFFCURVE",
"226 386 CURVE",
"218 356 LINE",
"258 359 OFFCURVE",
"290 360 OFFCURVE",
"336 360 CURVE SMOOTH",
"412 360 OFFCURVE",
"456 301 OFFCURVE",
"456 208 CURVE SMOOTH",
"456 112 OFFCURVE",
"408 44 OFFCURVE",
"324 20 CURVE",
"256 20 OFFCURVE",
"182 36 OFFCURVE",
"133 60 CURVE",
"136 0 LINE"
);
}
);
width = 596;
},
{
hints = (
{
origin = "{0, 14}";
type = Corner;
name = _corner.rightSerif.cap;
options = 1;
},
{
origin = "{0, 15}";
type = Corner;
name = _corner.leftSerif.cap;
}
);
layerId = "B4D6250A-EC24-4DD5-8C49-5E627D155568";
paths = (
{
closed = 1;
nodes = (
"348 0 LINE",
"512 24 OFFCURVE",
"620 100 OFFCURVE",
"620 212 CURVE SMOOTH",
"620 305 OFFCURVE",
"540 368 OFFCURVE",
"415 368 CURVE",
"415 376 LINE",
"563 388 OFFCURVE",
"650 468 OFFCURVE",
"650 564 CURVE SMOOTH",
"650 644 OFFCURVE",
"588 700 OFFCURVE",
"500 700 CURVE SMOOTH",
"240 700 LINE",
"40 0 LINE"
);
},
{
closed = 1;
nodes = (
"390 700 LINE",
"361 668 LINE",
"375 672 OFFCURVE",
"388 674 OFFCURVE",
"400 674 CURVE SMOOTH",
"456 674 OFFCURVE",
"494 626 OFFCURVE",
"494 552 CURVE SMOOTH",
"494 474 OFFCURVE",
"448 406 OFFCURVE",
"376 380 CURVE",
"340 380 OFFCURVE",
"305 384 OFFCURVE",
"269 396 CURVE",
"272 356 LINE",
"298 358 OFFCURVE",
"323 360 OFFCURVE",
"336 360 CURVE SMOOTH",
"414 360 OFFCURVE",
"456 301 OFFCURVE",
"456 208 CURVE SMOOTH",
"456 118 OFFCURVE",
"421 48 OFFCURVE",
"354 28 CURVE",
"298 28 OFFCURVE",
"233 42 OFFCURVE",
"188 64 CURVE",
"190 0 LINE"
);
}
);
width = 660;
},
{
associatedMasterId = "4AEC2A2F-21E0-4005-B5C4-61417F12BD89";
layerId = "264A3564-B1C4-4AA0-AB01-AA2FDC5A84F7";
name = "4 apr 22, 21:43";
paths = (
{
closed = 1;
nodes = (
"339 674 LINE",
"351 682 OFFCURVE",
"377 684 OFFCURVE",
"404 685 CURVE",
"466 684 OFFCURVE",
"511 634 OFFCURVE",
"511 578 CURVE SMOOTH",
"511 478 OFFCURVE",
"462 380 OFFCURVE",
"355 380 CURVE SMOOTH",
"325 380 OFFCURVE",
"282 382 OFFCURVE",
"252 384 CURVE"
);
},
{
closed = 1;
nodes = (
"371 362 LINE",
"510 383 OFFCURVE",
"604 455 OFFCURVE",
"604 584 CURVE SMOOTH",
"604 658 OFFCURVE",
"530 701 OFFCURVE",
"434 701 CURVE",
"249 700 LINE",
"36 0 LINE",
"137 0 LINE",
"249 372 LINE"
);
},
{
closed = 1;
nodes = (
"233 354 LINE",
"247 360 OFFCURVE",
"290 361 OFFCURVE",
"328 361 CURVE SMOOTH",
"420 360 OFFCURVE",
"450 302 OFFCURVE",
"450 238 CURVE SMOOTH",
"450 132 OFFCURVE",
"380 21 OFFCURVE",
"272 21 CURVE SMOOTH",
"244 21 OFFCURVE",
"153 38 OFFCURVE",
"153 81 CURVE SMOOTH",
"153 84 OFFCURVE",
"153 88 OFFCURVE",
"154 91 CURVE",
"127 0 LINE",
"246 0 LINE SMOOTH",
"418 0 OFFCURVE",
"546 80 OFFCURVE",
"546 243 CURVE SMOOTH",
"546 329 OFFCURVE",
"481 380 OFFCURVE",
"359 380 CURVE SMOOTH",
"242 380 LINE"
);
}
);
width = 596;
},
{
anchors = (
{
name = bottom;
position = "{252, 0}";
},
{
name = center;
position = "{359, 350}";
},
{
name = top;
position = "{466, 700}";
}
);
associatedMasterId = "B4D6250A-EC24-4DD5-8C49-5E627D155568";
layerId = "C7A8B56D-799F-481B-AF18-DA4556836984";
name = "12 apr 22, 21:23";
paths = (
{
closed = 1;
nodes = (
"390 674 LINE",
"402 682 OFFCURVE",
"405 684 OFFCURVE",
"432 685 CURVE",
"474 684 OFFCURVE",
"519 634 OFFCURVE",
"519 578 CURVE SMOOTH",
"519 478 OFFCURVE",
"470 380 OFFCURVE",
"383 380 CURVE SMOOTH",
"353 380 OFFCURVE",
"327 379 OFFCURVE",
"297 381 CURVE"
);
},
{
closed = 1;
nodes = (
"399 362 LINE",
"538 383 OFFCURVE",
"652 455 OFFCURVE",
"652 584 CURVE SMOOTH",
"652 658 OFFCURVE",
"578 701 OFFCURVE",
"462 701 CURVE",
"237 700 LINE",
"24 0 LINE",
"188 0 LINE",
"293 368 LINE"
);
},
{
closed = 1;
nodes = (
"261 354 LINE",
"275 360 OFFCURVE",
"318 362 OFFCURVE",
"356 361 CURVE SMOOTH",
"428 360 OFFCURVE",
"458 302 OFFCURVE",
"458 238 CURVE SMOOTH",
"458 132 OFFCURVE",
"388 21 OFFCURVE",
"300 21 CURVE SMOOTH",
"272 21 OFFCURVE",
"181 38 OFFCURVE",
"181 81 CURVE SMOOTH",
"181 84 OFFCURVE",
"181 88 OFFCURVE",
"182 91 CURVE",
"155 0 LINE",
"274 0 LINE SMOOTH",
"446 0 OFFCURVE",
"604 80 OFFCURVE",
"604 243 CURVE SMOOTH",
"604 329 OFFCURVE",
"509 380 OFFCURVE",
"387 380 CURVE SMOOTH",
"270 380 LINE"
);
}
);
width = 644;
}
);
leftKerningGroup = H;
leftMetricsKey = H;
rightKerningGroup = B;
unicode = 0042;
},
{
color = 3;
glyphname = C;
lastChange = "2022-04-13 22:32:52 +0000";
layers = (
{
anchors = (
{
name = bottom;
position = "{260, 0}";
},
{
name = top;
position = "{440, 700}";
}
);
layerId = "B4D6250A-EC24-4DD5-8C49-5E627D155568";
paths = (
{
closed = 1;
nodes = (
"546 146 LINE",
"532 164 LINE",
"476 124 OFFCURVE",
"436 92 OFFCURVE",
"372 60 CURVE",
"260 68 OFFCURVE",
"204 156 OFFCURVE",
"204 272 CURVE SMOOTH",
"204 453 OFFCURVE",
"294 605 OFFCURVE",
"430 692 CURVE",
"490 644 OFFCURVE",
"532 552 OFFCURVE",
"544 428 CURVE",
"560 428 LINE",
"624 632 LINE",
"568 684 OFFCURVE",
"502 714 OFFCURVE",
"444 714 CURVE",
"216 658 OFFCURVE",
"44 452 OFFCURVE",
"44 236 CURVE SMOOTH",
"44 84 OFFCURVE",
"142 -14 OFFCURVE",
"312 -14 CURVE"
);
}
);
width = 576;
},
{
anchors = (
{
name = bottom;
position = "{252, 0}";
},
{
name = top;
position = "{432, 700}";
}
);
layerId = "4AEC2A2F-21E0-4005-B5C4-61417F12BD89";
paths = (
{
closed = 1;
nodes = (
"532 144 LINE",
"522 159 LINE",
"466 119 OFFCURVE",
"410 80 OFFCURVE",
"346 48 CURVE",
"234 48 OFFCURVE",
"154 131 OFFCURVE",
"154 272 CURVE SMOOTH",
"154 464 OFFCURVE",
"258 630 OFFCURVE",
"414 696 CURVE",
"494 672 OFFCURVE",
"548 588 OFFCURVE",
"556 460 CURVE",
"568 460 LINE",
"610 640 LINE",
"558 688 OFFCURVE",
"492 714 OFFCURVE",
"418 714 CURVE",
"178 630 OFFCURVE",
"50 412 OFFCURVE",
"50 216 CURVE SMOOTH",
"50 80 OFFCURVE",
"142 -14 OFFCURVE",
"298 -14 CURVE"
);
}
);
width = 568;
},
{
associatedMasterId = "4AEC2A2F-21E0-4005-B5C4-61417F12BD89";
background = {
anchors = (
{
name = bottom;
position = "{189, 0}";
},
{
name = top;
position = "{473, 700}";
}
);
paths = (
{
closed = 1;
nodes = (
"479 712 LINE",
"479 712 OFFCURVE",
"478 712 OFFCURVE",
"478 712 CURVE",
"246 677 OFFCURVE",
"49 441 OFFCURVE",
"49 214 CURVE SMOOTH",
"49 70 OFFCURVE",
"138 -12 OFFCURVE",
"227 -13 CURVE",
"293 15 OFFCURVE",
"416 143 OFFCURVE",
"467 191 CURVE",
"456 199 LINE",
"412 154 OFFCURVE",
"312 59 OFFCURVE",
"293 59 CURVE SMOOTH",
"241 59 OFFCURVE",
"164 136 OFFCURVE",
"158 238 CURVE SMOOTH",
"148 419 OFFCURVE",
"285 688 OFFCURVE",
"446 688 CURVE"
);
},
{
closed = 1;
nodes = (
"446 688 LINE",
"489 685 OFFCURVE",
"538 639 OFFCURVE",
"538 566 CURVE SMOOTH",
"538 544 OFFCURVE",
"533 521 OFFCURVE",
"524 495 CURVE",
"533 495 LINE",
"623 688 LINE",
"581 705 OFFCURVE",
"523 712 OFFCURVE",
"477 712 CURVE",
"473 711 OFFCURVE",
"468 711 OFFCURVE",
"464 710 CURVE"
);
}
);
};
layerId = "FAEA1312-43EA-47C8-8BB6-6FBA10F4FD8B";
name = "9 apr 22, 21:32";
paths = (
{
closed = 1;
nodes = (
"540 152 LINE",
"532 164 LINE",
"472 116 OFFCURVE",
"415 75 OFFCURVE",
"348 36 CURVE",
"228 36 OFFCURVE",
"150 128 OFFCURVE",
"150 272 CURVE SMOOTH",
"150 464 OFFCURVE",
"252 632 OFFCURVE",
"408 698 CURVE",
"500 682 OFFCURVE",
"562 596 OFFCURVE",
"570 460 CURVE",
"578 460 LINE",
"624 640 LINE",
"572 688 OFFCURVE",
"498 714 OFFCURVE",
"414 714 CURVE",
"174 630 OFFCURVE",
"46 412 OFFCURVE",
"46 216 CURVE SMOOTH",
"46 76 OFFCURVE",
"148 -14 OFFCURVE",
"304 -14 CURVE"
);
}
);
width = 577;
},
{
associatedMasterId = "4AEC2A2F-21E0-4005-B5C4-61417F12BD89";
background = {
anchors = (
{
name = bottom;
position = "{189, 0}";
},
{
name = top;
position = "{473, 700}";
}
);
paths = (
{
closed = 1;
nodes = (
"479 712 LINE",
"479 712 OFFCURVE",
"478 712 OFFCURVE",
"478 712 CURVE",
"246 677 OFFCURVE",
"49 441 OFFCURVE",
"49 214 CURVE SMOOTH",
"49 70 OFFCURVE",
"138 -12 OFFCURVE",
"227 -13 CURVE",
"293 15 OFFCURVE",
"416 143 OFFCURVE",
"467 191 CURVE",
"456 199 LINE",
"412 154 OFFCURVE",
"312 59 OFFCURVE",
"293 59 CURVE SMOOTH",
"241 59 OFFCURVE",
"164 136 OFFCURVE",
"158 238 CURVE SMOOTH",
"148 419 OFFCURVE",
"285 688 OFFCURVE",
"446 688 CURVE"
);
},
{
closed = 1;
nodes = (
"446 688 LINE",
"489 685 OFFCURVE",
"538 639 OFFCURVE",
"538 566 CURVE SMOOTH",
"538 544 OFFCURVE",
"533 521 OFFCURVE",
"524 495 CURVE",
"533 495 LINE",
"623 688 LINE",
"581 705 OFFCURVE",
"523 712 OFFCURVE",
"477 712 CURVE",
"473 711 OFFCURVE",
"468 711 OFFCURVE",
"464 710 CURVE"
);
}
);
};
layerId = "E3C5C2A6-6C1E-46EF-AA27-67EA65C5B35D";
name = "4 apr 22, 09:07";
paths = (
{
closed = 1;
nodes = (
"544 156 LINE",
"533 170 LINE",
"472 118 OFFCURVE",
"407 71 OFFCURVE",
"340 32 CURVE",
"224 32 OFFCURVE",
"149 128 OFFCURVE",
"149 276 CURVE SMOOTH",
"149 468 OFFCURVE",
"250 634 OFFCURVE",
"406 700 CURVE",
"499 688 OFFCURVE",
"566 594 OFFCURVE",
"578 460 CURVE",
"590 460 LINE",
"622 632 LINE",
"562 696 OFFCURVE",
"498 714 OFFCURVE",
"414 714 CURVE",
"174 630 OFFCURVE",
"46 412 OFFCURVE",
"46 216 CURVE SMOOTH",
"46 76 OFFCURVE",
"148 -14 OFFCURVE",
"304 -14 CURVE"
);
}
);
width = 576;
},
{
anchors = (
{
name = bottom;
position = "{190, 0}";
},
{
name = top;
position = "{474, 700}";
}
);
associatedMasterId = "4AEC2A2F-21E0-4005-B5C4-61417F12BD89";
layerId = "5E21AFED-0BAA-4C2A-B2E0-5D556F4B8C49";
name = "2 apr 22, 19:03";
paths = (
{
closed = 1;
nodes = (
"480 712 LINE",
"480 712 OFFCURVE",
"479 712 OFFCURVE",
"479 712 CURVE",
"247 677 OFFCURVE",
"50 441 OFFCURVE",
"50 214 CURVE SMOOTH",
"50 70 OFFCURVE",
"139 -12 OFFCURVE",
"228 -13 CURVE",
"294 15 OFFCURVE",
"417 143 OFFCURVE",
"468 191 CURVE",
"457 199 LINE",
"413 154 OFFCURVE",
"313 59 OFFCURVE",
"294 59 CURVE SMOOTH",
"242 59 OFFCURVE",
"165 136 OFFCURVE",
"159 238 CURVE SMOOTH",
"149 419 OFFCURVE",
"286 688 OFFCURVE",
"447 688 CURVE"
);
},
{
closed = 1;
nodes = (
"447 688 LINE",
"490 685 OFFCURVE",
"539 639 OFFCURVE",
"539 566 CURVE SMOOTH",
"539 544 OFFCURVE",
"534 521 OFFCURVE",
"525 495 CURVE",
"534 495 LINE",
"624 688 LINE",
"582 705 OFFCURVE",
"524 712 OFFCURVE",
"478 712 CURVE",
"474 711 OFFCURVE",
"469 711 OFFCURVE",
"465 710 CURVE"
);
}
);
width = 486;
},
{
anchors = (
{
name = bottom;
position = "{181, 0}";
},
{
name = top;
position = "{485, 701}";
}
);
associatedMasterId = "B4D6250A-EC24-4DD5-8C49-5E627D155568";
layerId = "091CA44E-DB92-466F-8E92-0E7F89D605AB";
name = "12 apr 22, 22:03";
paths = (
{
closed = 1;
nodes = (
"472 712 LINE",
"472 712 OFFCURVE",
"471 712 OFFCURVE",
"471 712 CURVE",
"239 677 OFFCURVE",
"29 411 OFFCURVE",
"29 184 CURVE SMOOTH",
"29 40 OFFCURVE",
"140 -12 OFFCURVE",
"220 -13 CURVE",
"316 15 OFFCURVE",
"439 143 OFFCURVE",
"490 191 CURVE",
"469 209 LINE",
"425 164 OFFCURVE",
"325 69 OFFCURVE",
"306 69 CURVE SMOOTH",
"273 69 OFFCURVE",
"199 136 OFFCURVE",
"193 238 CURVE SMOOTH",
"183 419 OFFCURVE",
"285 668 OFFCURVE",
"439 668 CURVE"
);
},
{
closed = 1;
nodes = (
"439 668 LINE",
"482 665 OFFCURVE",
"548 639 OFFCURVE",
"548 566 CURVE SMOOTH",
"548 544 OFFCURVE",
"546 491 OFFCURVE",
"537 465 CURVE",
"549 465 LINE",
"636 688 LINE",
"594 705 OFFCURVE",
"516 712 OFFCURVE",
"470 712 CURVE",
"466 711 OFFCURVE",
"461 711 OFFCURVE",
"457 710 CURVE"
);
}
);
width = 517;
}
);
leftKerningGroup = O;
leftMetricsKey = O;
rightKerningGroup = C;
unicode = 0043;
},
{
color = 3;
glyphname = D;
lastChange = "2022-04-13 21:58:49 +0000";
layers = (
{
anchors = (
{
name = top;
position = "{436, 700}";
}
);
hints = (
{
origin = "{0, 7}";
type = Corner;
name = _corner.rightSerif.cap;
options = 1;
},
{
origin = "{0, 8}";
type = Corner;
name = _corner.leftSerif.cap;
}
);
layerId = "4AEC2A2F-21E0-4005-B5C4-61417F12BD89";
paths = (
{
closed = 1;
nodes = (
"292 0 LINE",
"512 64 OFFCURVE",
"664 248 OFFCURVE",
"664 440 CURVE SMOOTH",
"664 598 OFFCURVE",
"564 700 OFFCURVE",
"408 700 CURVE SMOOTH",
"238 700 LINE",
"38 0 LINE"
);
},
{
closed = 1;
nodes = (
"336 700 LINE",
"309 674 LINE",
"337 679 OFFCURVE",
"370 682 OFFCURVE",
"400 682 CURVE",
"497 682 OFFCURVE",
"558 589 OFFCURVE",
"558 444 CURVE SMOOTH",
"558 259 OFFCURVE",
"456 84 OFFCURVE",
"308 20 CURVE",
"240 20 OFFCURVE",
"181 32 OFFCURVE",
"132 56 CURVE",
"136 0 LINE"
);
}
);
width = 656;
},
{
anchors = (
{
name = top;
position = "{464, 700}";
}
);
hints = (
{
origin = "{0, 7}";
type = Corner;
name = _corner.rightSerif.cap;
options = 1;
},
{
origin = "{0, 8}";
type = Corner;
name = _corner.leftSerif.cap;
}
);
layerId = "B4D6250A-EC24-4DD5-8C49-5E627D155568";
paths = (
{
closed = 1;
nodes = (
"307 0 LINE",
"539 60 OFFCURVE",
"698 252 OFFCURVE",
"698 468 CURVE SMOOTH",
"698 604 OFFCURVE",
"601 700 OFFCURVE",
"464 700 CURVE SMOOTH",
"240 700 LINE",
"40 0 LINE"
);
},
{
closed = 1;
nodes = (
"390 700 LINE",
"352 656 LINE",
"379 666 OFFCURVE",
"419 673 OFFCURVE",
"448 676 CURVE",
"500 652 OFFCURVE",
"534 576 OFFCURVE",
"534 472 CURVE SMOOTH",
"534 288 OFFCURVE",
"450 113 OFFCURVE",
"323 24 CURVE",
"267 30 OFFCURVE",
"229 40 OFFCURVE",
"189 64 CURVE",
"190 0 LINE"
);
}
);
width = 682;
},
{
associatedMasterId = "4AEC2A2F-21E0-4005-B5C4-61417F12BD89";
layerId = "4182AC19-F03B-4174-B8F2-56B8ACE019A7";
name = "31 mar 22, 22:08";
paths = (
{
closed = 1;
nodes = (
"127 0 LINE",
"218 -1 LINE",
"285 2 OFFCURVE",
"593 127 OFFCURVE",
"670 383 CURVE SMOOTH",
"734 599 OFFCURVE",
"642 709 OFFCURVE",
"424 701 CURVE",
"237 700 LINE",
"24 0 LINE"
);
},
{
closed = 1;
nodes = (
"328 672 LINE",
"350 681 OFFCURVE",
"373 685 OFFCURVE",
"388 685 CURVE SMOOTH",
"552 685 OFFCURVE",
"620 597 OFFCURVE",
"554 372 CURVE SMOOTH",
"491 161 OFFCURVE",
"387 41 OFFCURVE",
"269 41 CURVE SMOOTH",
"218 41 OFFCURVE",
"170 41 OFFCURVE",
"148 70 CURVE"
);
}
);
width = 625;
},
{
anchors = (
{
name = bottom;
position = "{273, 0}";
},
{
name = center;
position = "{380, 350}";
},
{
name = top;
position = "{432, 701}";
}
);
associatedMasterId = "B4D6250A-EC24-4DD5-8C49-5E627D155568";
layerId = "C8AF28E2-13CA-4EE4-B93C-CEAEEB720B77";
name = "12 apr 22, 08:55";
paths = (
{
closed = 1;
nodes = (
"155 0 LINE",
"226 -1 LINE",
"323 2 OFFCURVE",
"629 127 OFFCURVE",
"706 383 CURVE SMOOTH",
"770 599 OFFCURVE",
"680 709 OFFCURVE",
"432 701 CURVE",
"214 700 LINE",
"1 0 LINE"
);
},
{
closed = 1;
nodes = (
"356 662 LINE",
"378 671 OFFCURVE",
"401 675 OFFCURVE",
"416 675 CURVE SMOOTH",
"552 675 OFFCURVE",
"600 597 OFFCURVE",
"534 372 CURVE SMOOTH",
"471 161 OFFCURVE",
"328 51 OFFCURVE",
"297 51 CURVE SMOOTH",
"246 51 OFFCURVE",
"198 51 OFFCURVE",
"176 80 CURVE"
);
}
);
width = 675;
}
);
leftKerningGroup = H;
leftMetricsKey = H;
rightKerningGroup = O;
rightMetricsKey = O;
unicode = 0044;
},
{
glyphname = Eth;
lastChange = "2022-04-13 21:35:35 +0000";
layers = (
{
components = (
{
name = D;
}
);
layerId = "4AEC2A2F-21E0-4005-B5C4-61417F12BD89";
paths = (
{
closed = 1;
nodes = (
"424 362 LINE",
"426 378 LINE",
"56 378 LINE",
"54 362 LINE"
);
}
);
width = 656;
},
{
components = (
{
name = D;
}
);
layerId = "B4D6250A-EC24-4DD5-8C49-5E627D155568";
paths = (
{
closed = 1;
nodes = (
"420 360 LINE",
"422 380 LINE",
"56 380 LINE",
"54 360 LINE"
);
}
);
width = 682;
}
);
leftKerningGroup = H;
leftMetricsKey = H;
rightKerningGroup = O;
rightMetricsKey = O;
unicode = 00D0;
},
{
color = 1;
glyphname = E;
lastChange = "2022-04-14 12:29:19 +0000";
layers = (
{
anchors = (
{
name = ogonek;
position = "{288, 0}";
},
{
name = top;
position = "{400, 700}";
}
);
background = {
components = (
{
name = C;
transform = "{1, 0, 0, 1, -43, 0}";
}
);
};
layerId = "B4D6250A-EC24-4DD5-8C49-5E627D155568";
paths = (
{
closed = 1;
nodes = (
"504 152 LINE",
"492 170 LINE",
"439 131 OFFCURVE",
"381 90 OFFCURVE",
"324 60 CURVE",
"227 60 OFFCURVE",
"176 109 OFFCURVE",
"176 188 CURVE SMOOTH",
"176 266 OFFCURVE",
"223 352 OFFCURVE",
"316 408 CURVE",
"308 420 LINE",
"132 376 OFFCURVE",
"10 280 OFFCURVE",
"10 160 CURVE SMOOTH",
"10 56 OFFCURVE",
"120 -14 OFFCURVE",
"268 -14 CURVE"
);
},
{
closed = 1;
nodes = (
"416 372 LINE",
"344 417 OFFCURVE",
"288 470 OFFCURVE",
"288 539 CURVE SMOOTH",
"288 603 OFFCURVE",
"329 661 OFFCURVE",
"393 686 CURVE",
"462 635 OFFCURVE",
"507 542 OFFCURVE",
"507 448 CURVE",
"523 448 LINE",
"584 644 LINE",
"535 681 OFFCURVE",
"462 706 OFFCURVE",
"396 710 CURVE",
"241 701 OFFCURVE",
"132 630 OFFCURVE",
"132 540 CURVE SMOOTH",
"132 454 OFFCURVE",
"228 372 OFFCURVE",
"412 356 CURVE"
);
}
);
width = 532;
},
{
anchors = (
{
name = ogonek;
position = "{292, 0}";
},
{
name = top;
position = "{412, 700}";
}
);
layerId = "4AEC2A2F-21E0-4005-B5C4-61417F12BD89";
paths = (
{
closed = 1;
nodes = (
"504 144 LINE",
"494 159 LINE",
"438 119 OFFCURVE",
"380 80 OFFCURVE",
"316 48 CURVE",
"204 48 OFFCURVE",
"134 100 OFFCURVE",
"134 188 CURVE SMOOTH",
"134 276 OFFCURVE",
"188 356 OFFCURVE",
"292 392 CURVE",
"280 408 LINE",
"112 352 OFFCURVE",
"28 260 OFFCURVE",
"28 152 CURVE SMOOTH",
"28 49 OFFCURVE",
"124 -14 OFFCURVE",
"272 -14 CURVE"
);
},
{
closed = 1;
nodes = (
"400 380 LINE",
"304 412 OFFCURVE",
"248 476 OFFCURVE",
"248 552 CURVE SMOOTH",
"248 619 OFFCURVE",
"292 675 OFFCURVE",
"360 696 CURVE",
"440 672 OFFCURVE",
"492 600 OFFCURVE",
"508 476 CURVE",
"520 476 LINE",
"556 640 LINE",
"507 685 OFFCURVE",
"432 714 OFFCURVE",
"364 714 CURVE",
"232 690 OFFCURVE",
"148 624 OFFCURVE",
"148 536 CURVE SMOOTH",
"148 444 OFFCURVE",
"242 380 OFFCURVE",
"398 368 CURVE"
);
}
);
width = 540;
},
{
associatedMasterId = "4AEC2A2F-21E0-4005-B5C4-61417F12BD89";
background = {
anchors = (
{
name = bottom;
position = "{240, -18}";
},
{
name = ogonek;
position = "{241, 0}";
},
{
name = top;
position = "{433, 700}";
},
{
name = topleft;
position = "{194, 700}";
}
);
paths = (
{
closed = 1;
nodes = (
"399 710 LINE",
"272 700 OFFCURVE",
"158 639 OFFCURVE",
"150 550 CURVE SMOOTH",
"147 479 OFFCURVE",
"218 434 OFFCURVE",
"293 403 CURVE",
"175 365 OFFCURVE",
"40 300 OFFCURVE",
"28 166 CURVE",
"42 62 OFFCURVE",
"140 -17 OFFCURVE",
"247 -16 CURVE",
"519 124 LINE",
"511 138 LINE",
"489 127 OFFCURVE",
"315 30 OFFCURVE",
"287 30 CURVE SMOOTH",
"220 30 OFFCURVE",
"139 110 OFFCURVE",
"147 210 CURVE SMOOTH",
"157 322 OFFCURVE",
"205 361 OFFCURVE",
"310 396 CURVE",
"345 383 OFFCURVE",
"380 372 OFFCURVE",
"407 363 CURVE",
"408 373 LINE",
"342 406 OFFCURVE",
"236 472 OFFCURVE",
"236 589 CURVE SMOOTH",
"236 662 OFFCURVE",
"324 695 OFFCURVE",
"389 700 CURVE",
"392 700 OFFCURVE",
"395 700 OFFCURVE",
"399 699 CURVE"
);
},
{
closed = 1;
nodes = (
"399 699 LINE",
"446 692 OFFCURVE",
"484 633 OFFCURVE",
"484 566 CURVE SMOOTH",
"484 544 OFFCURVE",
"479 521 OFFCURVE",
"470 495 CURVE",
"479 495 LINE",
"569 688 LINE",
"527 705 OFFCURVE",
"479 711 OFFCURVE",
"433 711 CURVE SMOOTH",
"422 711 OFFCURVE",
"410 711 OFFCURVE",
"399 710 CURVE"
);
}
);
};
layerId = "86E15AB7-FD6A-49E0-9FE7-C63AB57B35BF";
name = "9 apr 22, 21:44";
paths = (
{
closed = 1;
nodes = (
"510 152 LINE",
"502 164 LINE",
"442 116 OFFCURVE",
"391 79 OFFCURVE",
"324 40 CURVE",
"212 40 OFFCURVE",
"140 98 OFFCURVE",
"140 188 CURVE SMOOTH",
"140 284 OFFCURVE",
"204 365 OFFCURVE",
"304 396 CURVE",
"292 408 LINE",
"128 344 OFFCURVE",
"36 268 OFFCURVE",
"36 152 CURVE SMOOTH",
"36 48 OFFCURVE",
"126 -14 OFFCURVE",
"274 -14 CURVE"
);
},
{
closed = 1;
nodes = (
"460 676 OFFCURVE",
"518 600 OFFCURVE",
"526 480 CURVE",
"534 480 LINE",
"576 652 LINE",
"524 692 OFFCURVE",
"456 714 OFFCURVE",
"372 714 CURVE",
"240 690 OFFCURVE",
"156 620 OFFCURVE",
"156 528 CURVE SMOOTH",
"156 440 OFFCURVE",
"250 384 OFFCURVE",
"406 368 CURVE",
"408 376 LINE",
"308 412 OFFCURVE",
"248 480 OFFCURVE",
"248 552 CURVE SMOOTH",
"248 619 OFFCURVE",
"293 677 OFFCURVE",
"368 700 CURVE"
);
}
);
width = 543;
},
{
anchors = (
{
name = bottom;
position = "{220, -18}";
},
{
name = ogonek;
position = "{221, 0}";
},
{
name = top;
position = "{413, 700}";
},
{
name = topleft;
position = "{174, 700}";
}
);
associatedMasterId = "4AEC2A2F-21E0-4005-B5C4-61417F12BD89";
background = {
paths = (
{
closed = 1;
nodes = (
"186 376 OFFCURVE",
"21 323 OFFCURVE",
"8 174 CURVE",
"22 70 OFFCURVE",
"120 -9 OFFCURVE",
"227 -8 CURVE",
"499 132 LINE",
"491 146 LINE",
"469 135 OFFCURVE",
"295 38 OFFCURVE",
"267 38 CURVE SMOOTH",
"200 38 OFFCURVE",
"119 118 OFFCURVE",
"127 218 CURVE SMOOTH",
"138 339 OFFCURVE",
"193 366 OFFCURVE",
"317 405 CURVE",
"311 415 LINE"
);
},
{
closed = 1;
nodes = (
"125 441 OFFCURVE",
"297 393 OFFCURVE",
"387 363 CURVE",
"388 373 LINE",
"322 406 OFFCURVE",
"216 472 OFFCURVE",
"216 589 CURVE SMOOTH",
"216 662 OFFCURVE",
"304 695 OFFCURVE",
"330 695 CURVE",
"416 667 OFFCURVE",
"470 580 OFFCURVE",
"494 550 CURVE",
"505 580 LINE",
"452 709 LINE",
"413 711 LINE",
"273 711 OFFCURVE",
"139 647 OFFCURVE",
"130 550 CURVE"
);
}
);
};
layerId = "32265FD3-1559-4DB2-8C7E-7FF8ADDC73F8";
name = "4 apr 22, 21:07";
paths = (
{
closed = 1;
nodes = (
"379 710 LINE",
"252 700 OFFCURVE",
"138 639 OFFCURVE",
"130 550 CURVE SMOOTH",
"127 479 OFFCURVE",
"198 434 OFFCURVE",
"273 403 CURVE",
"155 365 OFFCURVE",
"20 300 OFFCURVE",
"8 166 CURVE",
"22 62 OFFCURVE",
"120 -17 OFFCURVE",
"227 -16 CURVE",
"499 124 LINE",
"491 138 LINE",
"469 127 OFFCURVE",
"295 30 OFFCURVE",
"267 30 CURVE SMOOTH",
"200 30 OFFCURVE",
"119 110 OFFCURVE",
"127 210 CURVE SMOOTH",
"137 322 OFFCURVE",
"185 361 OFFCURVE",
"290 396 CURVE",
"325 383 OFFCURVE",
"360 372 OFFCURVE",
"387 363 CURVE",
"388 373 LINE",
"322 406 OFFCURVE",
"216 472 OFFCURVE",
"216 589 CURVE SMOOTH",
"216 662 OFFCURVE",
"304 695 OFFCURVE",
"369 700 CURVE",
"372 700 OFFCURVE",
"375 700 OFFCURVE",
"379 699 CURVE"
);
},
{
closed = 1;
nodes = (
"379 699 LINE",
"426 692 OFFCURVE",
"464 633 OFFCURVE",
"464 566 CURVE SMOOTH",
"464 544 OFFCURVE",
"459 521 OFFCURVE",
"450 495 CURVE",
"459 495 LINE",
"549 688 LINE",
"507 705 OFFCURVE",
"459 711 OFFCURVE",
"413 711 CURVE SMOOTH",
"402 711 OFFCURVE",
"390 711 OFFCURVE",
"379 710 CURVE"
);
}
);
width = 480;
},
{
anchors = (
{
name = ogonek;
position = "{279, 15}";
},
{
name = top;
position = "{422, 700}";
}
);
associatedMasterId = "B4D6250A-EC24-4DD5-8C49-5E627D155568";
layerId = "96D414CD-E3FE-4417-B454-04B49D238FB8";
name = "12 apr 22, 23:46";
paths = (
{
closed = 1;
nodes = (
"17 51 OFFCURVE",
"145 -17 OFFCURVE",
"252 -16 CURVE",
"530 138 LINE",
"520 156 LINE",
"498 145 OFFCURVE",
"324 48 OFFCURVE",
"296 48 CURVE SMOOTH",
"246 48 OFFCURVE",
"197 116 OFFCURVE",
"197 196 CURVE SMOOTH",
"197 308 OFFCURVE",
"279 356 OFFCURVE",
"342 383 CURVE",
"377 370 OFFCURVE",
"399 362 OFFCURVE",
"426 353 CURVE",
"427 383 LINE",
"374 416 OFFCURVE",
"298 472 OFFCURVE",
"298 589 CURVE SMOOTH",
"298 624 OFFCURVE",
"345 686 OFFCURVE",
"397 686 CURVE",
"430 686 OFFCURVE",
"496 639 OFFCURVE",
"496 566 CURVE SMOOTH",
"496 544 OFFCURVE",
"491 521 OFFCURVE",
"482 495 CURVE",
"504 495 LINE",
"594 688 LINE",
"552 705 OFFCURVE",
"494 713 OFFCURVE",
"448 711 CURVE SMOOTH",
"418 710 LINE SMOOTH",
"291 706 OFFCURVE",
"137 639 OFFCURVE",
"129 540 CURVE SMOOTH",
"123 469 OFFCURVE",
"237 424 OFFCURVE",
"312 393 CURVE",
"194 355 OFFCURVE",
"17 291 OFFCURVE",
"17 156 CURVE SMOOTH"
);
}
);
width = 563;
}
);
leftKerningGroup = E;
rightKerningGroup = C;
rightMetricsKey = C;
unicode = 0045;
},
{
glyphname = F;
lastChange = "2022-04-14 12:29:31 +0000";
layers = (
{
hints = (
{
origin = "{0, 0}";
scale = "{1.2, 1}";
type = Corner;
name = _corner.rightSerif.cap;
options = 1;
},
{
origin = "{0, 2}";
type = Corner;
name = _corner.rightSerif.cap;
options = 1;
},
{
origin = "{0, 3}";
type = Corner;
name = _corner.leftSerif.cap;
}
);
layerId = "4AEC2A2F-21E0-4005-B5C4-61417F12BD89";
paths = (
{
closed = 1;
nodes = (
"136 0 LINE",
"336 700 LINE",
"238 700 LINE",
"38 0 LINE"
);
},
{
closed = 1;
nodes = (
"398 191 LINE",
"467 455 LINE",
"455 455 LINE",
"374 345 LINE",
"214 345 LINE",
"210 327 LINE",
"370 327 LINE",
"386 191 LINE"
);
},
{
closed = 1;
nodes = (
"600 498 LINE",
"644 700 LINE",
"316 700 LINE",
"312 682 LINE",
"550 682 LINE",
"588 498 LINE"
);
}
);
width = 532;
},
{
background = {
paths = (
{
closed = 1;
nodes = (
"186 0 LINE",
"398 701 LINE",
"244 701 LINE",
"32 0 LINE"
);
}
);
};
hints = (
{
origin = "{0, 2}";
type = Corner;
name = _corner.rightSerif.cap;
options = 1;
},
{
origin = "{0, 3}";
type = Corner;
name = _corner.leftSerif.cap;
},
{
origin = "{0, 0}";
scale = "{1.2, 1}";
type = Corner;
name = _corner.rightSerif.cap;
options = 1;
}
);
layerId = "B4D6250A-EC24-4DD5-8C49-5E627D155568";
paths = (
{
closed = 1;
nodes = (
"190 0 LINE",
"390 700 LINE",
"240 700 LINE",
"40 0 LINE"
);
},
{
closed = 1;
nodes = (
"448 176 LINE",
"528 476 LINE",
"512 478 LINE",
"413 355 LINE",
"272 355 LINE",
"264 329 LINE",
"409 329 LINE",
"432 176 LINE"
);
},
{
closed = 1;
nodes = (
"630 460 LINE",
"696 700 LINE",
"370 700 LINE",
"364 672 LINE",
"576 672 LINE",
"614 460 LINE"
);
}
);
width = 576;
},
{
associatedMasterId = "4AEC2A2F-21E0-4005-B5C4-61417F12BD89";
layerId = "BFB280A5-524C-4962-8A34-2E2883471E43";
name = "2 apr 22, 17:53";
paths = (
{
closed = 1;
nodes = (
"63 0 LINE",
"163 0 LINE",
"372 700 LINE",
"272 700 LINE"
);
},
{
closed = 1;
nodes = (
"345 681 LINE",
"641 681 LINE",
"647 700 LINE",
"359 700 LINE"
);
},
{
closed = 1;
nodes = (
"238 324 LINE",
"484 324 LINE",
"491 343 LINE",
"253 343 LINE"
);
},
{
closed = 1;
nodes = (
"520 440 LINE",
"514 440 LINE",
"442 343 LINE",
"488 334 LINE"
);
},
{
closed = 1;
nodes = (
"547 689 LINE",
"577 690 OFFCURVE",
"614 553 OFFCURVE",
"620 516 CURVE",
"626 516 LINE",
"666 703 LINE"
);
},
{
closed = 1;
nodes = (
"436 325 LINE",
"450 228 LINE",
"456 228 LINE",
"488 334 LINE"
);
}
);
width = 555;
},
{
anchors = (
{
name = bottom;
position = "{212, 0}";
},
{
name = top;
position = "{426, 700}";
}
);
associatedMasterId = "B4D6250A-EC24-4DD5-8C49-5E627D155568";
background = {
paths = (
{
closed = 1;
nodes = (
"186 0 LINE",
"398 701 LINE",
"244 701 LINE",
"32 0 LINE"
);
}
);
};
layerId = "1188262C-4F27-4C14-A99A-52810233B0A4";
name = "11 apr 22, 22:55";
paths = (
{
closed = 1;
nodes = (
"32 0 LINE",
"186 0 LINE",
"395 700 LINE",
"241 700 LINE"
);
},
{
closed = 1;
nodes = (
"352 665 LINE",
"641 665 LINE",
"647 700 LINE",
"359 700 LINE"
);
},
{
closed = 1;
nodes = (
"238 324 LINE",
"484 324 LINE",
"491 354 LINE",
"253 354 LINE"
);
},
{
closed = 1;
nodes = (
"520 445 LINE",
"504 445 LINE",
"432 343 LINE",
"488 334 LINE"
);
},
{
closed = 1;
nodes = (
"563 689 LINE",
"593 690 OFFCURVE",
"618 523 OFFCURVE",
"624 486 CURVE",
"636 486 LINE",
"676 703 LINE"
);
},
{
closed = 1;
nodes = (
"426 325 LINE",
"440 223 LINE",
"456 223 LINE",
"488 334 LINE"
);
}
);
width = 570;
}
);
leftKerningGroup = H;
leftMetricsKey = H;
rightKerningGroup = F;
unicode = 0046;
},
{
glyphname = G;
lastChange = "2022-04-14 12:29:31 +0000";
layers = (
{
anchors = (
{
name = bottom;
position = "{227, 0}";
},
{
name = top;
position = "{444, 700}";
}
);
background = {
anchors = (
{
name = bottom;
position = "{212, -280}";
},
{
name = top;
position = "{434, 700}";
}
);
paths = (
{
closed = 1;
nodes = (
"469 712 LINE",
"469 712 OFFCURVE",
"468 712 OFFCURVE",
"468 712 CURVE",
"236 677 OFFCURVE",
"32 406 OFFCURVE",
"32 214 CURVE SMOOTH",
"32 70 OFFCURVE",
"128 -12 OFFCURVE",
"217 -13 CURVE",
"313 15 OFFCURVE",
"436 143 OFFCURVE",
"487 191 CURVE",
"466 209 LINE",
"422 164 OFFCURVE",
"322 69 OFFCURVE",
"303 69 CURVE SMOOTH",
"265 69 OFFCURVE",
"191 136 OFFCURVE",
"185 238 CURVE SMOOTH",
"175 419 OFFCURVE",
"282 668 OFFCURVE",
"436 668 CURVE"
);
},
{
closed = 1;
nodes = (
"310 -205 LINE",
"372 -141 OFFCURVE",
"491 -29 OFFCURVE",
"502 -6 CURVE",
"519 55 OFFCURVE",
"556 164 OFFCURVE",
"600 313 CURVE",
"465 301 LINE",
"414 124 LINE",
"403 76 OFFCURVE",
"302 -162 OFFCURVE",
"286 -199 CURVE"
);
},
{
closed = 1;
nodes = (
"293 -183 LINE",
"284 -203 OFFCURVE",
"262 -206 OFFCURVE",
"249 -206 CURVE SMOOTH",
"227 -206 OFFCURVE",
"165 -147 OFFCURVE",
"136 -129 CURVE",
"21 -182 LINE",
"74 -216 OFFCURVE",
"156 -280 OFFCURVE",
"212 -280 CURVE",
"244 -260 OFFCURVE",
"279 -231 OFFCURVE",
"310 -205 CURVE"
);
},
{
closed = 1;
nodes = (
"335 293 LINE",
"326 267 LINE",
"476 267 LINE",
"536 307 LINE"
);
},
{
closed = 1;
nodes = (
"436 668 LINE",
"479 665 OFFCURVE",
"545 639 OFFCURVE",
"545 566 CURVE SMOOTH",
"545 544 OFFCURVE",
"543 491 OFFCURVE",
"534 465 CURVE",
"546 465 LINE",
"633 688 LINE",
"591 705 OFFCURVE",
"513 712 OFFCURVE",
"467 712 CURVE",
"463 711 OFFCURVE",
"458 711 OFFCURVE",
"454 710 CURVE"
);
}
);
};
hints = (
{
origin = "{1, 4}";
type = Corner;
name = _corner.rightSerif.cap;
options = 1;
}
);
layerId = "B4D6250A-EC24-4DD5-8C49-5E627D155568";
paths = (
{
closed = 1;
nodes = (
"524 134 LINE",
"510 152 LINE",
"454 112 OFFCURVE",
"422 92 OFFCURVE",
"358 60 CURVE",
"262 64 OFFCURVE",
"202 144 OFFCURVE",
"202 268 CURVE SMOOTH",
"202 449 OFFCURVE",
"292 605 OFFCURVE",
"428 692 CURVE",
"488 644 OFFCURVE",
"530 552 OFFCURVE",
"542 428 CURVE",
"558 428 LINE",
"622 632 LINE",
"566 684 OFFCURVE",
"500 714 OFFCURVE",
"442 714 CURVE",
"214 658 OFFCURVE",
"42 444 OFFCURVE",
"42 228 CURVE SMOOTH",
"42 81 OFFCURVE",
"142 -14 OFFCURVE",
"298 -14 CURVE"
);
},
{
closed = 1;
nodes = (
"283 -234 OFFCURVE",
"413 -138 OFFCURVE",
"484 -44 CURVE",
"582 324 LINE",
"440 324 LINE",
"320 -128 LINE SMOOTH",
"313 -156 OFFCURVE",
"294 -183 OFFCURVE",
"272 -196 CURVE",
"144 -112 LINE",
"104 -116 LINE",
"44 -212 LINE",
"83 -244 OFFCURVE",
"133 -264 OFFCURVE",
"172 -264 CURVE"
);
}
);
width = 604;
},
{
anchors = (
{
name = bottom;
position = "{242, 0}";
},
{
name = top;
position = "{436, 700}";
}
);
hints = (
{
origin = "{1, 4}";
type = Corner;
name = _corner.rightSerif.cap;
options = 1;
}
);
layerId = "4AEC2A2F-21E0-4005-B5C4-61417F12BD89";
paths = (
{
closed = 1;
nodes = (
"520 148 LINE",
"512 164 LINE",
"456 120 OFFCURVE",
"398 82 OFFCURVE",
"338 46 CURVE",
"230 46 OFFCURVE",
"154 132 OFFCURVE",
"154 272 CURVE SMOOTH",
"154 464 OFFCURVE",
"258 630 OFFCURVE",
"414 696 CURVE",
"494 672 OFFCURVE",
"548 588 OFFCURVE",
"556 460 CURVE",
"568 460 LINE",
"610 640 LINE",
"558 688 OFFCURVE",
"492 714 OFFCURVE",
"418 714 CURVE",
"178 630 OFFCURVE",
"50 412 OFFCURVE",
"50 220 CURVE SMOOTH",
"50 72 OFFCURVE",
"150 -14 OFFCURVE",
"294 -14 CURVE"
);
},
{
closed = 1;
nodes = (
"318 -222 OFFCURVE",
"402 -140 OFFCURVE",
"470 -32 CURVE",
"566 312 LINE",
"474 312 LINE",
"354 -116 LINE SMOOTH",
"341 -161 OFFCURVE",
"308 -202 OFFCURVE",
"272 -220 CURVE",
"140 -144 LINE",
"112 -148 LINE",
"76 -212 LINE",
"120 -248 OFFCURVE",
"174 -266 OFFCURVE",
"210 -266 CURVE"
);
}
);
width = 588;
},
{
associatedMasterId = "4AEC2A2F-21E0-4005-B5C4-61417F12BD89";
background = {
paths = (
{
closed = 1;
nodes = (
"465 710 LINE",
"238 668 OFFCURVE",
"49 436 OFFCURVE",
"49 209 CURVE SMOOTH",
"49 68 OFFCURVE",
"129 -12 OFFCURVE",
"217 -13 CURVE SMOOTH",
"282 -13 OFFCURVE",
"461 146 OFFCURVE",
"497 194 CURVE",
"486 202 LINE",
"452 167 OFFCURVE",
"350 54 OFFCURVE",
"288 43 CURVE",
"191 43 OFFCURVE",
"157 122 OFFCURVE",
"157 220 CURVE SMOOTH",
"157 415 OFFCURVE",
"282 688 OFFCURVE",
"443 688 CURVE SMOOTH",
"444 688 OFFCURVE",
"446 688 OFFCURVE",
"447 688 CURVE"
);
},
{
closed = 1;
nodes = (
"376 293 LINE",
"374 285 LINE",
"483 285 LINE",
"527 307 LINE"
);
},
{
closed = 1;
nodes = (
"311 -205 LINE",
"373 -141 OFFCURVE",
"468 -29 OFFCURVE",
"479 -6 CURVE",
"496 55 OFFCURVE",
"533 164 OFFCURVE",
"577 313 CURVE",
"486 303 LINE",
"435 124 LINE",
"424 76 OFFCURVE",
"323 -162 OFFCURVE",
"307 -199 CURVE"
);
},
{
closed = 1;
nodes = (
"447 688 LINE",
"490 685 OFFCURVE",
"539 639 OFFCURVE",
"539 566 CURVE SMOOTH",
"539 544 OFFCURVE",
"534 521 OFFCURVE",
"525 495 CURVE",
"534 495 LINE",
"624 688 LINE",
"582 705 OFFCURVE",
"524 712 OFFCURVE",
"478 712 CURVE",
"474 711 OFFCURVE",
"469 711 OFFCURVE",
"465 710 CURVE"
);
},
{
closed = 1;
nodes = (
"307 -199 LINE",
"290 -218 OFFCURVE",
"273 -221 OFFCURVE",
"249 -221 CURVE SMOOTH",
"227 -221 OFFCURVE",
"169 -187 OFFCURVE",
"140 -169 CURVE",
"48 -201 LINE",
"101 -235 OFFCURVE",
"158 -275 OFFCURVE",
"214 -275 CURVE",
"246 -255 OFFCURVE",
"280 -231 OFFCURVE",
"311 -205 CURVE"
);
}
);
};
hints = (
{
origin = "{1, 4}";
type = Corner;
name = _corner.rightSerif.cap;
options = 1;
}
);
layerId = "F8A31CC0-7025-4A84-A825-A57315C02DF3";
name = "4 apr 22, 09:10";
paths = (
{
closed = 1;
nodes = (
"524 140 LINE",
"533 170 LINE",
"472 118 OFFCURVE",
"407 71 OFFCURVE",
"340 32 CURVE",
"224 32 OFFCURVE",
"149 128 OFFCURVE",
"149 276 CURVE SMOOTH",
"149 468 OFFCURVE",
"250 634 OFFCURVE",
"406 700 CURVE",
"499 688 OFFCURVE",
"566 594 OFFCURVE",
"578 460 CURVE",
"590 460 LINE",
"622 632 LINE",
"562 696 OFFCURVE",
"498 714 OFFCURVE",
"414 714 CURVE",
"174 630 OFFCURVE",
"46 412 OFFCURVE",
"46 216 CURVE SMOOTH",
"46 76 OFFCURVE",
"148 -14 OFFCURVE",
"304 -14 CURVE"
);
},
{
closed = 1;
nodes = (
"316 -222 OFFCURVE",
"412 -144 OFFCURVE",
"476 -40 CURVE",
"576 312 LINE",
"482 312 LINE",
"360 -116 LINE SMOOTH",
"347 -161 OFFCURVE",
"316 -202 OFFCURVE",
"280 -220 CURVE",
"152 -144 LINE",
"124 -148 LINE",
"80 -212 LINE",
"124 -248 OFFCURVE",
"180 -266 OFFCURVE",
"216 -266 CURVE"
);
}
);
width = 592;
},
{
associatedMasterId = "4AEC2A2F-21E0-4005-B5C4-61417F12BD89";
layerId = "4B225389-1053-47F9-A5F4-3033DF7C403A";
name = "2 apr 22, 19:23";
paths = (
{
closed = 1;
nodes = (
"465 710 LINE",
"238 668 OFFCURVE",
"49 436 OFFCURVE",
"49 209 CURVE SMOOTH",
"49 68 OFFCURVE",
"129 -12 OFFCURVE",
"217 -13 CURVE SMOOTH",
"282 -13 OFFCURVE",
"461 146 OFFCURVE",
"497 194 CURVE",
"486 202 LINE",
"452 167 OFFCURVE",
"350 54 OFFCURVE",
"288 43 CURVE",
"191 43 OFFCURVE",
"157 122 OFFCURVE",
"157 220 CURVE SMOOTH",
"157 415 OFFCURVE",
"282 688 OFFCURVE",
"443 688 CURVE SMOOTH",
"444 688 OFFCURVE",
"446 688 OFFCURVE",
"447 688 CURVE"
);
},
{
closed = 1;
nodes = (
"376 293 LINE",
"374 285 LINE",
"483 285 LINE",
"527 307 LINE"
);
},
{
closed = 1;
nodes = (
"311 -205 LINE",
"373 -141 OFFCURVE",
"468 -29 OFFCURVE",
"479 -6 CURVE",
"496 55 OFFCURVE",
"533 164 OFFCURVE",
"577 313 CURVE",
"486 303 LINE",
"435 124 LINE",
"424 76 OFFCURVE",
"323 -162 OFFCURVE",
"307 -199 CURVE"
);
},
{
closed = 1;
nodes = (
"447 688 LINE",
"490 685 OFFCURVE",
"539 639 OFFCURVE",
"539 566 CURVE SMOOTH",
"539 544 OFFCURVE",
"534 521 OFFCURVE",
"525 495 CURVE",
"534 495 LINE",
"624 688 LINE",
"582 705 OFFCURVE",
"524 712 OFFCURVE",
"478 712 CURVE",
"474 711 OFFCURVE",
"469 711 OFFCURVE",
"465 710 CURVE"
);
},
{
closed = 1;
nodes = (
"307 -199 LINE",
"290 -218 OFFCURVE",
"273 -221 OFFCURVE",
"249 -221 CURVE SMOOTH",
"227 -221 OFFCURVE",
"169 -187 OFFCURVE",
"140 -169 CURVE",
"48 -201 LINE",
"101 -235 OFFCURVE",
"158 -275 OFFCURVE",
"214 -275 CURVE",
"246 -255 OFFCURVE",
"280 -231 OFFCURVE",
"311 -205 CURVE"
);
}
);
width = 584;
},
{
anchors = (
{
name = bottom;
position = "{214, -280}";
},
{
name = top;
position = "{436, 700}";
}
);
associatedMasterId = "B4D6250A-EC24-4DD5-8C49-5E627D155568";
background = {
paths = (
{
closed = 1;
nodes = (
"325 -181 LINE",
"308 -200 OFFCURVE",
"285 -206 OFFCURVE",
"261 -206 CURVE SMOOTH",
"239 -206 OFFCURVE",
"165 -157 OFFCURVE",
"148 -139 CURVE",
"33 -192 LINE",
"86 -226 OFFCURVE",
"168 -280 OFFCURVE",
"224 -280 CURVE",
"256 -260 OFFCURVE",
"290 -236 OFFCURVE",
"321 -210 CURVE"
);
}
);
};
layerId = "9CFF6AA2-1829-4A49-9D45-3E659486FF09";
name = "12 apr 22, 22:26";
paths = (
{
closed = 1;
nodes = (
"471 712 LINE",
"471 712 OFFCURVE",
"470 712 OFFCURVE",
"470 712 CURVE",
"238 677 OFFCURVE",
"34 406 OFFCURVE",
"34 214 CURVE SMOOTH",
"34 70 OFFCURVE",
"130 -12 OFFCURVE",
"219 -13 CURVE",
"315 15 OFFCURVE",
"438 143 OFFCURVE",
"489 191 CURVE",
"468 209 LINE",
"424 164 OFFCURVE",
"324 69 OFFCURVE",
"305 69 CURVE SMOOTH",
"267 69 OFFCURVE",
"193 136 OFFCURVE",
"187 238 CURVE SMOOTH",
"177 419 OFFCURVE",
"284 668 OFFCURVE",
"438 668 CURVE"
);
},
{
closed = 1;
nodes = (
"312 -205 LINE",
"374 -141 OFFCURVE",
"493 -29 OFFCURVE",
"504 -6 CURVE",
"521 55 OFFCURVE",
"558 164 OFFCURVE",
"602 313 CURVE",
"467 301 LINE",
"416 124 LINE",
"405 76 OFFCURVE",
"304 -162 OFFCURVE",
"288 -199 CURVE"
);
},
{
closed = 1;
nodes = (
"295 -183 LINE",
"286 -203 OFFCURVE",
"264 -206 OFFCURVE",
"251 -206 CURVE SMOOTH",
"229 -206 OFFCURVE",
"167 -147 OFFCURVE",
"138 -129 CURVE",
"23 -182 LINE",
"76 -216 OFFCURVE",
"158 -280 OFFCURVE",
"214 -280 CURVE",
"246 -260 OFFCURVE",
"281 -231 OFFCURVE",
"312 -205 CURVE"
);
},
{
closed = 1;
nodes = (
"337 293 LINE",
"328 267 LINE",
"478 267 LINE",
"538 307 LINE"
);
},
{
closed = 1;
nodes = (
"438 668 LINE",
"481 665 OFFCURVE",
"547 639 OFFCURVE",
"547 566 CURVE SMOOTH",
"547 544 OFFCURVE",
"545 491 OFFCURVE",
"536 465 CURVE",
"548 465 LINE",
"635 688 LINE",
"593 705 OFFCURVE",
"515 712 OFFCURVE",
"469 712 CURVE",
"465 711 OFFCURVE",
"460 711 OFFCURVE",
"456 710 CURVE"
);
}
);
width = 616;
}
);
leftKerningGroup = O;
leftMetricsKey = O;
rightKerningGroup = G;
unicode = 0047;
},
{
glyphname = Gcommaaccent;
lastChange = "2022-04-14 12:29:31 +0000";
layers = (
{
components = (
{
name = commaaccentcomb;
transform = "{1, 0, 0, 1, 76, 0}";
}
);
hints = (
{
origin = "{0, 2}";
type = Corner;
name = _corner.rightSerif.cap;
options = 1;
}
);
layerId = "4AEC2A2F-21E0-4005-B5C4-61417F12BD89";
paths = (
{
closed = 1;
nodes = (
"520 144 LINE",
"566 312 LINE",
"474 312 LINE",
"413 93 LINE",
"339 44 LINE",
"231 44 OFFCURVE",
"154 132 OFFCURVE",
"154 272 CURVE SMOOTH",
"154 464 OFFCURVE",
"258 630 OFFCURVE",
"414 696 CURVE",
"494 672 OFFCURVE",
"548 588 OFFCURVE",
"556 460 CURVE",
"568 460 LINE",
"610 640 LINE",
"558 688 OFFCURVE",
"492 714 OFFCURVE",
"418 714 CURVE",
"178 630 OFFCURVE",
"50 412 OFFCURVE",
"50 220 CURVE SMOOTH",
"50 72 OFFCURVE",
"150 -14 OFFCURVE",
"294 -14 CURVE"
);
}
);
width = 584;
},
{
components = (
{
name = commaaccentcomb;
transform = "{1, 0, 0, 1, 92, 0}";
}
);
hints = (
{
origin = "{0, 2}";
type = Corner;
name = _corner.rightSerif.cap;
options = 1;
}
);
layerId = "B4D6250A-EC24-4DD5-8C49-5E627D155568";
paths = (
{
closed = 1;
nodes = (
"528 124 LINE",
"582 324 LINE",
"440 324 LINE",
"372 67 LINE",
"358 60 LINE",
"262 64 OFFCURVE",
"202 144 OFFCURVE",
"202 268 CURVE SMOOTH",
"202 449 OFFCURVE",
"292 605 OFFCURVE",
"428 692 CURVE",
"488 644 OFFCURVE",
"530 552 OFFCURVE",
"542 428 CURVE",
"558 428 LINE",
"622 632 LINE",
"566 684 OFFCURVE",
"500 714 OFFCURVE",
"442 714 CURVE",
"214 658 OFFCURVE",
"42 444 OFFCURVE",
"42 228 CURVE SMOOTH",
"42 81 OFFCURVE",
"142 -14 OFFCURVE",
"298 -14 CURVE"
);
}
);
width = 597;
}
);
leftKerningGroup = O;
leftMetricsKey = O;
rightKerningGroup = G;
rightMetricsKey = G;
unicode = 0122;
},
{
glyphname = H;
lastChange = "2022-04-14 12:29:31 +0000";
layers = (
{
components = (
{
name = I;
transform = "{1, 0, 0, 1, -4, 0}";
},
{
name = I;
transform = "{1, 0, 0, 1, 376, 0}";
}
);
layerId = "4AEC2A2F-21E0-4005-B5C4-61417F12BD89";
paths = (
{
closed = 1;
nodes = (
"539 355 LINE",
"544 373 LINE",
"223 373 LINE",
"218 355 LINE"
);
}
);
width = 684;
},
{
components = (
{
name = I;
transform = "{1, 0, 0, 1, -2, 0}";
},
{
name = I;
transform = "{1, 0, 0, 1, 404, 0}";
}
);
layerId = "B4D6250A-EC24-4DD5-8C49-5E627D155568";
paths = (
{
closed = 1;
nodes = (
"566 351 LINE",
"574 377 LINE",
"278 377 LINE",
"270 351 LINE"
);
}
);
width = 772;
},
{
associatedMasterId = "4AEC2A2F-21E0-4005-B5C4-61417F12BD89";
layerId = "CF8A0258-B84B-42E4-9D7F-8FC26BD481D7";
name = "31 mar 22, 18:48";
paths = (
{
closed = 1;
nodes = (
"194 351 LINE",
"546 351 LINE",
"551 370 LINE",
"207 370 LINE"
);
},
{
closed = 1;
nodes = (
"127 0 LINE",
"339 700 LINE",
"239 700 LINE",
"27 0 LINE"
);
},
{
closed = 1;
nodes = (
"470 0 LINE",
"679 700 LINE",
"579 700 LINE",
"370 0 LINE"
);
}
);
width = 628;
},
{
anchors = (
{
name = bottom;
position = "{265, 0}";
},
{
name = center;
position = "{372, 350}";
},
{
name = top;
position = "{479, 700}";
},
{
name = topleft;
position = "{169, 700}";
}
);
associatedMasterId = "B4D6250A-EC24-4DD5-8C49-5E627D155568";
layerId = "DEE7329D-0D43-400A-B79D-76347F3BE579";
name = "11 apr 22, 21:57";
paths = (
{
closed = 1;
nodes = (
"227 346 LINE",
"579 346 LINE",
"584 376 LINE",
"240 376 LINE"
);
},
{
closed = 1;
nodes = (
"189 0 LINE",
"401 701 LINE",
"236 701 LINE",
"24 0 LINE"
);
},
{
closed = 1;
nodes = (
"539 0 LINE",
"748 701 LINE",
"583 701 LINE",
"374 0 LINE"
);
}
);
width = 679;
}
);
leftKerningGroup = H;
rightKerningGroup = H;
rightMetricsKey = "=|";
unicode = 0048;
},
{
glyphname = Hbar;
lastChange = "2022-04-14 12:29:31 +0000";
layers = (
{
components = (
{
name = H;
}
);
layerId = "4AEC2A2F-21E0-4005-B5C4-61417F12BD89";
paths = (
{
closed = 1;
nodes = (
"750 580 LINE",
"752 596 LINE",
"132 596 LINE",
"130 580 LINE"
);
}
);
width = 684;
},
{
components = (
{
name = H;
}
);
layerId = "B4D6250A-EC24-4DD5-8C49-5E627D155568";
paths = (
{
closed = 1;
nodes = (
"836 579 LINE",
"838 597 LINE",
"128 597 LINE",
"126 579 LINE"
);
}
);
width = 772;
}
);
leftKerningGroup = H;
leftMetricsKey = H;
rightKerningGroup = H;
rightMetricsKey = H;
unicode = 0126;
},
{
glyphname = I;
lastChange = "2022-04-14 12:29:31 +0000";
layers = (
{
anchors = (
{
name = ogonek;
position = "{140, 0}";
},
{
name = top;
position = "{292, 700}";
}
);
hints = (
{
origin = "{0, 0}";
type = Corner;
name = _corner.rightSerif.cap;
options = 1;
},
{
origin = "{0, 1}";
type = Corner;
name = _corner.leftSerif.cap;
},
{
origin = "{0, 2}";
type = Corner;
name = _corner.rightSerif.cap;
options = 1;
},
{
origin = "{0, 3}";
type = Corner;
name = _corner.leftSerif.cap;
}
);
layerId = "4AEC2A2F-21E0-4005-B5C4-61417F12BD89";
paths = (
{
closed = 1;
nodes = (
"140 0 LINE",
"340 700 LINE",
"242 700 LINE",
"42 0 LINE"
);
}
);
width = 312;
},
{
anchors = (
{
name = ogonek;
position = "{192, 0}";
},
{
name = top;
position = "{320, 700}";
}
);
hints = (
{
origin = "{0, 0}";
type = Corner;
name = _corner.rightSerif.cap;
options = 1;
},
{
origin = "{0, 1}";
type = Corner;
name = _corner.leftSerif.cap;
},
{
origin = "{0, 2}";
type = Corner;
name = _corner.rightSerif.cap;
options = 1;
},
{
origin = "{0, 3}";
type = Corner;
name = _corner.leftSerif.cap;
}
);
layerId = "B4D6250A-EC24-4DD5-8C49-5E627D155568";
paths = (
{
closed = 1;
nodes = (
"192 0 LINE",
"392 700 LINE",
"242 700 LINE",
"42 0 LINE"
);
}
);
width = 370;
},
{
anchors = (
{
name = bottom;
position = "{102, 0}";
},
{
name = ogonek;
position = "{106, 12}";
},
{
name = top;
position = "{316, 700}";
},
{
name = topleft;
position = "{180, 700}";
}
);
associatedMasterId = "B4D6250A-EC24-4DD5-8C49-5E627D155568";
layerId = "B548470C-A6AF-4349-9F1D-CCE3790E3B0F";
name = "11 apr 22, 21:28";
paths = (
{
closed = 1;
nodes = (
"189 0 LINE",
"398 700 LINE",
"240 700 LINE",
"31 0 LINE"
);
}
);
width = 349;
}
);
leftKerningGroup = H;
rightKerningGroup = H;
rightMetricsKey = "=|";
unicode = 0049;
},
{
glyphname = J;
lastChange = "2022-04-14 12:29:31 +0000";
layers = (
{
hints = (
{
origin = "{0, 3}";
type = Corner;
name = _corner.leftSerif.cap;
},
{
origin = "{0, 4}";
scale = "{1.2, 1}";
type = Corner;
name = _corner.rightSerif.cap;
options = 1;
}
);
layerId = "4AEC2A2F-21E0-4005-B5C4-61417F12BD89";
paths = (
{
closed = 1;
nodes = (
"-32 -220 OFFCURVE",
"64 -144 OFFCURVE",
"128 -40 CURVE",
"340 700 LINE",
"242 700 LINE",
"8 -116 LINE SMOOTH",
"-5 -161 OFFCURVE",
"-36 -202 OFFCURVE",
"-72 -220 CURVE",
"-199 -140 LINE",
"-228 -144 LINE",
"-269 -212 LINE",
"-225 -248 OFFCURVE",
"-168 -264 OFFCURVE",
"-132 -264 CURVE"
);
}
);
width = 320;
},
{
hints = (
{
origin = "{0, 3}";
type = Corner;
name = _corner.leftSerif.cap;
},
{
origin = "{0, 4}";
scale = "{1.2, 1}";
type = Corner;
name = _corner.rightSerif.cap;
options = 1;
}
);
layerId = "B4D6250A-EC24-4DD5-8C49-5E627D155568";
paths = (
{
closed = 1;
nodes = (
"-34 -233 OFFCURVE",
"104 -139 OFFCURVE",
"178 -40 CURVE",
"390 700 LINE",
"240 700 LINE",
"6 -116 LINE SMOOTH",
"-5 -154 OFFCURVE",
"-29 -183 OFFCURVE",
"-50 -196 CURVE",
"-178 -104 LINE",
"-222 -112 LINE",
"-278 -208 LINE",
"-232 -245 OFFCURVE",
"-188 -264 OFFCURVE",
"-150 -264 CURVE"
);
}
);
width = 380;
},
{
associatedMasterId = "4AEC2A2F-21E0-4005-B5C4-61417F12BD89";
layerId = "3AECD88F-EA3A-4330-8D44-FEB598468F68";
name = "31 mar 22, 22:02";
paths = (
{
closed = 1;
nodes = (
"49 -205 LINE",
"112 -147 OFFCURVE",
"191 -58 OFFCURVE",
"205 -12 CURVE SMOOTH",
"415 690 LINE",
"399 700 LINE",
"319 700 LINE",
"319 664 OFFCURVE",
"55 -166 OFFCURVE",
"45 -199 CURVE"
);
},
{
closed = 1;
nodes = (
"409 686 LINE",
"399 700 LINE"
);
},
{
closed = 1;
nodes = (
"45 -199 LINE",
"28 -218 OFFCURVE",
"11 -221 OFFCURVE",
"-13 -221 CURVE SMOOTH",
"-35 -221 OFFCURVE",
"-93 -187 OFFCURVE",
"-122 -169 CURVE",
"-214 -201 LINE",
"-161 -235 OFFCURVE",
"-104 -275 OFFCURVE",
"-48 -275 CURVE",
"-16 -255 OFFCURVE",
"18 -231 OFFCURVE",
"49 -205 CURVE"
);
}
);
width = 332;
},
{
anchors = (
{
name = bottom;
position = "{117, 0}";
},
{
name = top;
position = "{331, 700}";
}
);
associatedMasterId = "B4D6250A-EC24-4DD5-8C49-5E627D155568";
background = {
paths = (
{
closed = 1;
nodes = (
"275 0 LINE",
"484 701 LINE",
"330 701 LINE",
"121 0 LINE"
);
},
{
closed = 1;
nodes = (
"43 -183 LINE",
"34 -203 OFFCURVE",
"12 -206 OFFCURVE",
"-1 -206 CURVE SMOOTH",
"-23 -206 OFFCURVE",
"-85 -147 OFFCURVE",
"-114 -129 CURVE",
"-229 -182 LINE",
"-176 -216 OFFCURVE",
"-94 -280 OFFCURVE",
"-38 -280 CURVE",
"-6 -260 OFFCURVE",
"29 -231 OFFCURVE",
"60 -205 CURVE"
);
}
);
};
layerId = "B2DEE47F-3CD3-4F49-916B-87AA61F92A4E";
name = "11 apr 22, 22:16";
paths = (
{
closed = 1;
nodes = (
"66 -205 LINE",
"129 -147 OFFCURVE",
"251 -58 OFFCURVE",
"265 -12 CURVE SMOOTH",
"475 690 LINE",
"459 700 LINE",
"338 700 LINE",
"277 489 OFFCURVE",
"75 -171 OFFCURVE",
"67 -199 CURVE"
);
},
{
closed = 1;
nodes = (
"77 -174 LINE",
"60 -193 OFFCURVE",
"34 -202 OFFCURVE",
"10 -202 CURVE SMOOTH",
"-12 -202 OFFCURVE",
"-76 -152 OFFCURVE",
"-105 -134 CURVE",
"-221 -187 LINE",
"-168 -221 OFFCURVE",
"-87 -280 OFFCURVE",
"-31 -280 CURVE",
"1 -260 OFFCURVE",
"35 -231 OFFCURVE",
"66 -205 CURVE"
);
}
);
width = 416;
}
);
leftKerningGroup = J;
rightKerningGroup = J;
unicode = 004A;
},
{
color = 3;
glyphname = K;
lastChange = "2022-04-14 12:29:21 +0000";
layers = (
{
anchors = (
{
name = bottom;
position = "{284, 0}";
}
);
hints = (
{
origin = "{0, 14}";
type = Corner;
name = _corner.rightSerif.cap;
options = 1;
},
{
origin = "{1, 0}";
type = Corner;
name = _corner.rightSerif.cap;
options = 1;
}
);
layerId = "4AEC2A2F-21E0-4005-B5C4-61417F12BD89";
paths = (
{
closed = 1;
nodes = (
"242 232 OFFCURVE",
"321 408 OFFCURVE",
"425 528 CURVE",
"491 580 OFFCURVE",
"603 620 OFFCURVE",
"673 636 CURVE",
"677 668 LINE",
"577 716 LINE",
"469 700 OFFCURVE",
"303 400 OFFCURVE",
"131 48 CURVE",
"127 48 LINE",
"313 688 LINE",
"297 700 LINE",
"218 700 LINE",
"18 2 LINE",
"118 -4 LINE"
);
},
{
closed = 1;
nodes = (
"513 12 LINE",
"388 380 LINE",
"310 356 LINE",
"308 364 LINE",
"296 360 LINE",
"412 2 LINE",
"467 -16 LINE"
);
}
);
width = 612;
},
{
anchors = (
{
name = bottom;
position = "{308, 0}";
}
);
hints = (
{
origin = "{0, 14}";
type = Corner;
name = _corner.rightSerif.cap;
options = 1;
},
{
origin = "{1, 0}";
type = Corner;
name = _corner.rightSerif.cap;
options = 1;
}
);
layerId = "B4D6250A-EC24-4DD5-8C49-5E627D155568";
paths = (
{
closed = 1;
nodes = (
"296 236 OFFCURVE",
"340 346 OFFCURVE",
"452 510 CURVE",
"524 566 OFFCURVE",
"644 592 OFFCURVE",
"724 608 CURVE",
"732 656 LINE",
"596 718 LINE",
"476 690 OFFCURVE",
"351 400 OFFCURVE",
"186 48 CURVE",
"178 50 LINE",
"360 676 LINE",
"340 700 LINE",
"218 700 LINE",
"18 2 LINE",
"188 -4 LINE"
);
},
{
closed = 1;
nodes = (
"573 12 LINE",
"464 392 LINE",
"372 371 LINE",
"369 383 LINE",
"332 328 LINE",
"421 4 LINE",
"527 -18 LINE"
);
}
);
width = 660;
},
{
associatedMasterId = "4AEC2A2F-21E0-4005-B5C4-61417F12BD89";
layerId = "3A935C0C-FCFD-40AD-9D23-3478A5E740E0";
name = "2 apr 22, 19:57";
paths = (
{
closed = 1;
nodes = (
"98 0 LINE",
"108 23 LINE",
"92 23 LINE",
"350 684 LINE",
"335 700 LINE",
"238 700 LINE",
"6 -3 LINE"
);
},
{
closed = 1;
nodes = (
"105 16 LINE",
"280 400 OFFCURVE",
"518 687 OFFCURVE",
"541 687 CURVE",
"699 713 LINE",
"699 740 LINE SMOOTH",
"699 760 OFFCURVE",
"657 781 OFFCURVE",
"615 780 CURVE",
"569 771 OFFCURVE",
"259 440 OFFCURVE",
"95 16 CURVE"
);
},
{
closed = 1;
nodes = (
"280 260 OFFCURVE",
"377 -26 OFFCURVE",
"440 -26 CURVE",
"595 70 LINE",
"591 76 LINE",
"534 47 LINE",
"460 47 OFFCURVE",
"371 369 OFFCURVE",
"371 383 CURVE",
"355 377 OFFCURVE",
"307 361 OFFCURVE",
"287 361 CURVE",
"280 348 LINE"
);
}
);
width = 613;
},
{
anchors = (
{
name = bottom;
position = "{266, -12}";
},
{
name = top;
position = "{470, 700}";
}
);
associatedMasterId = "B4D6250A-EC24-4DD5-8C49-5E627D155568";
background = {
paths = (
{
closed = 1;
nodes = (
"-29 -205 LINE",
"34 -147 OFFCURVE",
"163 -58 OFFCURVE",
"177 -12 CURVE SMOOTH",
"387 690 LINE",
"371 700 LINE",
"241 700 LINE",
"241 664 OFFCURVE",
"-23 -166 OFFCURVE",
"-33 -199 CURVE"
);
}
);
};
layerId = "75BC9261-86F2-4AF2-9C9A-32F4D46E533B";
name = "12 apr 22, 22:14";
paths = (
{
closed = 1;
nodes = (
"144 0 LINE",
"154 23 LINE",
"138 23 LINE",
"392 689 LINE",
"381 700 LINE",
"241 700 LINE",
"20 0 LINE"
);
},
{
closed = 1;
nodes = (
"151 16 LINE",
"326 400 OFFCURVE",
"547 654 OFFCURVE",
"570 654 CURVE",
"733 680 LINE",
"750 740 LINE SMOOTH",
"756 760 OFFCURVE",
"703 781 OFFCURVE",
"661 780 CURVE",
"615 771 OFFCURVE",
"289 440 OFFCURVE",
"125 16 CURVE"
);
},
{
closed = 1;
nodes = (
"307 249 OFFCURVE",
"404 -37 OFFCURVE",
"467 -37 CURVE",
"646 70 LINE",
"638 84 LINE",
"585 55 LINE",
"511 55 OFFCURVE",
"422 369 OFFCURVE",
"422 383 CURVE",
"406 377 OFFCURVE",
"334 350 OFFCURVE",
"314 350 CURVE",
"307 337 LINE"
);
}
);
width = 639;
}
);
leftKerningGroup = H;
rightKerningGroup = K;
unicode = 004B;
},
{
glyphname = L;
lastChange = "2022-04-14 12:29:31 +0000";
layers = (
{
anchors = (
{
name = bottom;
position = "{268, 0}";
},
{
name = top;
position = "{320, 700}";
},
{
name = topright;
position = "{360, 470}";
}
);
hints = (
{
origin = "{0, 1}";
type = Corner;
name = _corner.leftSerif.cap;
},
{
origin = "{0, 2}";
type = Corner;
name = _corner.rightSerif.cap;
options = 1;
},
{
origin = "{0, 3}";
type = Corner;
name = _corner.leftSerif.cap;
}
);
layerId = "4AEC2A2F-21E0-4005-B5C4-61417F12BD89";
paths = (
{
closed = 1;
nodes = (
"136 0 LINE",
"336 700 LINE",
"238 700 LINE",
"38 0 LINE"
);
},
{
closed = 1;
nodes = (
"464 0 LINE",
"516 188 LINE",
"504 188 LINE",
"380 20 LINE",
"122 20 LINE",
"116 0 LINE"
);
}
);
width = 560;
},
{
anchors = (
{
name = bottom;
position = "{296, 0}";
},
{
name = top;
position = "{380, 700}";
},
{
name = topright;
position = "{428, 490}";
}
);
hints = (
{
origin = "{0, 1}";
type = Corner;
name = _corner.leftSerif.cap;
},
{
origin = "{0, 2}";
type = Corner;
name = _corner.rightSerif.cap;
options = 1;
},
{
origin = "{0, 3}";
type = Corner;
name = _corner.leftSerif.cap;
}
);
layerId = "B4D6250A-EC24-4DD5-8C49-5E627D155568";
paths = (
{
closed = 1;
nodes = (
"190 0 LINE",
"390 700 LINE",
"240 700 LINE",
"40 0 LINE"
);
},
{
closed = 1;
nodes = (
"513 0 LINE",
"576 234 LINE",
"560 238 LINE",
"400 28 LINE",
"178 28 LINE",
"170 0 LINE"
);
}
);
width = 600;
},
{
anchors = (
{
name = bottom;
position = "{126, 0}";
},
{
name = center;
position = "{309, 350}";
},
{
name = top;
position = "{340, 700}";
},
{
name = topright;
position = "{671, 700}";
}
);
associatedMasterId = "B4D6250A-EC24-4DD5-8C49-5E627D155568";
layerId = "522462B5-2A60-4E9B-B8E6-1F7ADF943D11";
name = "11 apr 22, 22:14";
paths = (
{
closed = 1;
nodes = (
"193 0 LINE",
"414 700 LINE",
"260 700 LINE",
"39 0 LINE"
);
},
{
closed = 1;
nodes = (
"-6 0 LINE",
"485 0 LINE",
"494 30 LINE",
"65 37 LINE",
"-5 11 LINE"
);
},
{
closed = 1;
nodes = (
"557 185 LINE",
"532 191 LINE",
"503 154 OFFCURVE",
"387 17 OFFCURVE",
"357 18 CURVE",
"485 0 LINE"
);
}
);
width = 580;
}
);
leftKerningGroup = H;
leftMetricsKey = H;
rightKerningGroup = L;
unicode = 004C;
},
{
glyphname = Lslash;
lastChange = "2022-04-13 23:50:52 +0000";
layers = (
{
components = (
{
name = L;
transform = "{1, 0, 0, 1, 4, 0}";
}
);
layerId = "4AEC2A2F-21E0-4005-B5C4-61417F12BD89";
paths = (
{
closed = 1;
nodes = (
"395 460 LINE",
"385 476 LINE",
"181 329 LINE",
"183 308 LINE"
);
},
{
closed = 1;
nodes = (
"183 321 LINE",
"181 342 LINE",
"-6 216 LINE",
"4 200 LINE"
);
}
);
width = 564;
},
{
components = (
{
name = L;
transform = "{1, 0, 0, 1, 32, 0}";
}
);
layerId = "B4D6250A-EC24-4DD5-8C49-5E627D155568";
paths = (
{
closed = 1;
nodes = (
"510 484 LINE",
"500 504 LINE",
"221 336 LINE",
"227 316 LINE"
);
},
{
closed = 1;
nodes = (
"226 324 LINE",
"220 344 LINE",
"32 236 LINE",
"42 216 LINE"
);
}
);
width = 632;
}
);
leftKerningGroup = H;
rightKerningGroup = L;
rightMetricsKey = L;
unicode = 0141;
},
{
glyphname = M;
lastChange = "2022-04-14 12:29:31 +0000";
layers = (
{
hints = (
{
origin = "{0, 0}";
type = Corner;
name = _corner.rightSerif.cap;
options = 1;
},
{
origin = "{0, 14}";
type = Corner;
name = _corner.rightSerif.cap;
options = 1;
},
{
origin = "{0, 15}";
type = Corner;
name = _corner.leftSerif.cap;
},
{
origin = "{0, 8}";
type = Corner;
name = _corner.rightSerif.cap;
options = 1;
},
{
origin = "{0, 9}";
type = Corner;
name = _corner.leftSerif.cap;
},
{
origin = "{0, 7}";
type = Corner;
name = _corner.leftSerif.cap;
}
);
layerId = "4AEC2A2F-21E0-4005-B5C4-61417F12BD89";
paths = (
{
closed = 1;
nodes = (
"54 0 LINE",
"246 676 LINE",
"250 676 LINE",
"296 0 LINE",
"330 0 LINE",
"762 678 LINE",
"766 678 LINE",
"572 0 LINE",
"670 0 LINE",
"870 700 LINE",
"750 700 LINE",
"388 132 LINE",
"384 132 LINE",
"344 700 LINE",
"230 700 LINE",
"30 0 LINE"
);
}
);
width = 838;
},
{
background = {
hints = (
{
origin = "{0, 0}";
type = Corner;
name = _corner.rightSerif.cap;
options = 1;
},
{
origin = "{0, 7}";
type = Corner;
name = _corner.leftSerif.cap;
},
{
origin = "{0, 8}";
type = Corner;
name = _corner.rightSerif.cap;
options = 1;
},
{
origin = "{0, 9}";
type = Corner;
name = _corner.leftSerif.cap;
},
{
origin = "{0, 14}";
type = Corner;
name = _corner.rightSerif.cap;
options = 1;
},
{
origin = "{0, 15}";
type = Corner;
name = _corner.leftSerif.cap;
}
);
paths = (
{
closed = 1;
nodes = (
"94 0 LINE",
"286 676 LINE",
"290 676 LINE",
"336 0 LINE",
"370 0 LINE",
"802 678 LINE",
"806 678 LINE",
"612 0 LINE",
"710 0 LINE",
"910 700 LINE",
"790 700 LINE",
"428 132 LINE",
"424 132 LINE",
"384 700 LINE",
"270 700 LINE",
"70 0 LINE"
);
}
);
};
hints = (
{
origin = "{0, 0}";
type = Corner;
name = _corner.rightSerif.cap;
options = 1;
},
{
origin = "{0, 14}";
type = Corner;
name = _corner.rightSerif.cap;
options = 1;
},
{
origin = "{0, 15}";
type = Corner;
name = _corner.leftSerif.cap;
},
{
origin = "{0, 8}";
type = Corner;
name = _corner.rightSerif.cap;
options = 1;
},
{
origin = "{0, 9}";
type = Corner;
name = _corner.leftSerif.cap;
},
{
origin = "{0, 7}";
type = Corner;
name = _corner.leftSerif.cap;
}
);
layerId = "B4D6250A-EC24-4DD5-8C49-5E627D155568";
paths = (
{
closed = 1;
nodes = (
"56 0 LINE",
"244 660 LINE",
"252 660 LINE",
"304 0 LINE",
"404 0 LINE",
"786 658 LINE",
"794 656 LINE",
"606 0 LINE",
"756 0 LINE",
"956 700 LINE",
"784 700 LINE",
"454 136 LINE",
"446 136 LINE",
"400 700 LINE",
"230 700 LINE",
"30 0 LINE"
);
}
);
width = 932;
},
{
associatedMasterId = "4AEC2A2F-21E0-4005-B5C4-61417F12BD89";
layerId = "DA95A976-2407-4E86-8844-F7D9E8BE47BC";
name = "31 mar 22, 21:36";
paths = (
{
closed = 1;
nodes = (
"334 -2 LINE",
"411 120 LINE",
"417 174 LINE",
"387 704 LINE",
"292 700 LINE",
"273 700 LINE",
"317 -2 LINE"
);
},
{
closed = 1;
nodes = (
"42 0 LINE",
"73 0 LINE",
"286 700 LINE",
"260 700 LINE"
);
},
{
closed = 1;
nodes = (
"322 20 LINE",
"334 -2 LINE",
"811 700 LINE",
"785 700 LINE"
);
},
{
closed = 1;
nodes = (
"681 0 LINE",
"886 700 LINE",
"831 700 LINE",
"786 702 LINE",
"581 0 LINE"
);
}
);
width = 851;
},
{
anchors = (
{
name = bottom;
position = "{364, 0}";
},
{
name = top;
position = "{578, 700}";
}
);
associatedMasterId = "B4D6250A-EC24-4DD5-8C49-5E627D155568";
background = {
paths = (
{
closed = 1;
nodes = (
"709 0 LINE",
"930 700 LINE",
"776 700 LINE",
"555 0 LINE"
);
}
);
};
layerId = "23BFC0A2-9FC2-495D-B01A-6AF4A62599F4";
name = "11 apr 22, 23:13";
paths = (
{
closed = 1;
nodes = (
"334 -2 LINE",
"431 140 LINE",
"455 204 LINE",
"415 704 LINE",
"292 700 LINE",
"273 700 LINE",
"317 -2 LINE"
);
},
{
closed = 1;
nodes = (
"37 0 LINE",
"78 0 LINE",
"291 700 LINE",
"255 700 LINE"
);
},
{
closed = 1;
nodes = (
"322 40 LINE",
"334 -2 LINE",
"820 700 LINE",
"776 702 LINE"
);
},
{
closed = 1;
nodes = (
"712 0 LINE",
"917 700 LINE",
"839 700 LINE",
"776 702 LINE",
"571 0 LINE"
);
}
);
width = 873;
}
);
leftKerningGroup = H;
leftMetricsKey = N;
rightKerningGroup = H;
rightMetricsKey = H;
unicode = 004D;
},
{
glyphname = N;
lastChange = "2022-04-14 12:29:31 +0000";
layers = (
{
anchors = (
{
name = bottom;
position = "{260, 0}";
},
{
name = top;
position = "{452, 700}";
}
);
hints = (
{
origin = "{0, 5}";
type = Corner;
name = _corner.leftSerif.cap;
},
{
origin = "{0, 6}";
type = Corner;
name = _corner.rightSerif.cap;
options = 1;
},
{
origin = "{0, 10}";
type = Corner;
name = _corner.rightSerif.cap;
options = 1;
},
{
origin = "{0, 11}";
type = Corner;
name = _corner.leftSerif.cap;
},
{
origin = "{0, 0}";
type = Corner;
name = _corner.rightSerif.cap;
options = 1;
}
);
layerId = "4AEC2A2F-21E0-4005-B5C4-61417F12BD89";
paths = (
{
closed = 1;
nodes = (
"54 0 LINE",
"244 668 LINE",
"248 668 LINE",
"430 0 LINE",
"482 0 LINE",
"682 700 LINE",
"658 700 LINE",
"498 136 LINE",
"494 136 LINE",
"340 700 LINE",
"230 700 LINE",
"30 0 LINE"
);
}
);
width = 644;
},
{
anchors = (
{
name = bottom;
position = "{304, 0}";
},
{
name = top;
position = "{474, 700}";
}
);
hints = (
{
origin = "{0, 0}";
type = Corner;
name = _corner.rightSerif.cap;
options = 1;
},
{
origin = "{0, 5}";
type = Corner;
name = _corner.leftSerif.cap;
},
{
origin = "{0, 6}";
type = Corner;
name = _corner.rightSerif.cap;
options = 1;
},
{
origin = "{0, 10}";
type = Corner;
name = _corner.rightSerif.cap;
options = 1;
},
{
origin = "{0, 11}";
type = Corner;
name = _corner.leftSerif.cap;
}
);
layerId = "B4D6250A-EC24-4DD5-8C49-5E627D155568";
paths = (
{
closed = 1;
nodes = (
"56 0 LINE",
"244 660 LINE",
"252 660 LINE",
"424 0 LINE",
"538 0 LINE",
"738 700 LINE",
"712 700 LINE",
"554 144 LINE",
"546 144 LINE",
"400 700 LINE",
"230 700 LINE",
"30 0 LINE"
);
}
);
width = 670;
},
{
anchors = (
{
name = bottom;
position = "{268, 0}";
},
{
name = top;
position = "{471, 700}";
}
);
associatedMasterId = "4AEC2A2F-21E0-4005-B5C4-61417F12BD89";
layerId = "D4DD0203-54CC-4B01-A9A7-A8EDE32FF8D8";
name = "31 mar 22, 21:44";
paths = (
{
closed = 1;
nodes = (
"436 0 LINE",
"485 159 LINE",
"354 704 LINE",
"325 701 OFFCURVE",
"306 700 OFFCURVE",
"277 700 CURVE SMOOTH",
"258 700 LINE",
"260 667 LINE",
"416 0 LINE"
);
},
{
closed = 1;
nodes = (
"32 0 LINE",
"63 0 LINE",
"271 700 LINE",
"245 700 LINE"
);
},
{
closed = 1;
nodes = (
"157 700 LINE",
"153 687 LINE",
"241 673 LINE",
"262 700 LINE"
);
},
{
closed = 1;
nodes = (
"458 0 LINE",
"668 700 LINE",
"637 700 LINE",
"432 0 LINE"
);
}
);
width = 610;
},
{
anchors = (
{
name = bottom;
position = "{293, 0}";
},
{
name = top;
position = "{484, 700}";
}
);
associatedMasterId = "B4D6250A-EC24-4DD5-8C49-5E627D155568";
layerId = "97346F7C-440D-44D8-A5C5-6A48F3882351";
name = "11 apr 22, 22:01";
paths = (
{
closed = 1;
nodes = (
"497 0 LINE",
"546 177 LINE",
"425 704 LINE",
"396 701 OFFCURVE",
"317 700 OFFCURVE",
"289 700 CURVE",
"250 695 LINE",
"252 662 LINE",
"438 0 LINE"
);
},
{
closed = 1;
nodes = (
"44 0 LINE",
"85 0 LINE",
"293 700 LINE",
"257 700 LINE"
);
},
{
closed = 1;
nodes = (
"160 700 LINE",
"152 677 LINE",
"249 663 LINE",
"274 700 LINE"
);
},
{
closed = 1;
nodes = (
"500 0 LINE",
"710 700 LINE",
"669 700 LINE",
"464 0 LINE"
);
}
);
width = 670;
}
);
leftKerningGroup = H;
rightKerningGroup = J;
unicode = 004E;
},
{
color = 3;
glyphname = O;
lastChange = "2022-04-12 22:07:44 +0000";
layers = (
{
anchors = (
{
name = top;
position = "{416, 700}";
}
);
layerId = "4AEC2A2F-21E0-4005-B5C4-61417F12BD89";
paths = (
{
closed = 1;
nodes = (
"518 66 OFFCURVE",
"660 284 OFFCURVE",
"660 476 CURVE SMOOTH",
"660 621 OFFCURVE",
"566 714 OFFCURVE",
"424 714 CURVE",
"184 634 OFFCURVE",
"51 420 OFFCURVE",
"51 220 CURVE SMOOTH",
"51 80 OFFCURVE",
"144 -14 OFFCURVE",
"286 -14 CURVE"
);
},
{
closed = 1;
nodes = (
"215 6 OFFCURVE",
"157 109 OFFCURVE",
"157 264 CURVE SMOOTH",
"157 462 OFFCURVE",
"254 626 OFFCURVE",
"406 694 CURVE",
"496 694 OFFCURVE",
"553 596 OFFCURVE",
"553 440 CURVE SMOOTH",
"553 242 OFFCURVE",
"460 74 OFFCURVE",
"308 6 CURVE"
);
}
);
width = 644;
},
{
anchors = (
{
name = top;
position = "{463, 700}";
}
);
layerId = "B4D6250A-EC24-4DD5-8C49-5E627D155568";
paths = (
{
closed = 1;
nodes = (
"497 34 OFFCURVE",
"666 256 OFFCURVE",
"666 476 CURVE SMOOTH",
"666 612 OFFCURVE",
"573 710 OFFCURVE",
"441 714 CURVE",
"209 662 OFFCURVE",
"44 448 OFFCURVE",
"44 228 CURVE SMOOTH",
"44 88 OFFCURVE",
"133 -10 OFFCURVE",
"265 -14 CURVE"
);
},
{
closed = 1;
nodes = (
"241 38 OFFCURVE",
"208 112 OFFCURVE",
"208 224 CURVE SMOOTH",
"208 432 OFFCURVE",
"293 606 OFFCURVE",
"425 690 CURVE",
"469 666 OFFCURVE",
"501 588 OFFCURVE",
"501 480 CURVE SMOOTH",
"501 272 OFFCURVE",
"417 94 OFFCURVE",
"285 10 CURVE"
);
}
);
width = 648;
},
{
anchors = (
{
name = bottom;
position = "{225, 0}";
},
{
name = center;
position = "{332, 350}";
},
{
name = ogonek;
position = "{441, 10}";
},
{
name = top;
position = "{439, 700}";
},
{
name = topleft;
position = "{192, 700}";
},
{
name = topright;
position = "{685, 700}";
}
);
associatedMasterId = "4AEC2A2F-21E0-4005-B5C4-61417F12BD89";
background = {
paths = (
{
closed = 1;
nodes = (
"172 19 OFFCURVE",
"148 122 OFFCURVE",
"151 190 CURVE",
"151 381 OFFCURVE",
"307 691 OFFCURVE",
"428 691 CURVE",
"472 685 OFFCURVE",
"507 613 OFFCURVE",
"507 537 CURVE SMOOTH",
"507 264 OFFCURVE",
"338 24 OFFCURVE",
"222 13 CURVE"
);
},
{
closed = 1;
nodes = (
"391 6 OFFCURVE",
"617 299 OFFCURVE",
"617 522 CURVE SMOOTH",
"617 632 OFFCURVE",
"584 711 OFFCURVE",
"482 711 CURVE SMOOTH",
"268 711 OFFCURVE",
"44 406 OFFCURVE",
"44 194 CURVE SMOOTH",
"40 77 OFFCURVE",
"100 -7 OFFCURVE",
"170 -7 CURVE"
);
}
);
};
layerId = "283B6EC6-03A9-4FF1-9B5C-69ACCAB06CE6";
name = "31 mar 22, 21:08";
paths = (
{
closed = 1;
nodes = (
"191 20 OFFCURVE",
"154 87 OFFCURVE",
"154 198 CURVE SMOOTH",
"154 424 OFFCURVE",
"356 678 OFFCURVE",
"435 678 CURVE SMOOTH",
"501 678 OFFCURVE",
"546 624 OFFCURVE",
"546 505 CURVE SMOOTH",
"546 207 OFFCURVE",
"330 20 OFFCURVE",
"269 20 CURVE SMOOTH"
);
},
{
closed = 1;
nodes = (
"323 7 OFFCURVE",
"656 210 OFFCURVE",
"656 497 CURVE SMOOTH",
"656 631 OFFCURVE",
"591 709 OFFCURVE",
"486 713 CURVE",
"412 699 OFFCURVE",
"46 521 OFFCURVE",
"46 203 CURVE SMOOTH",
"46 68 OFFCURVE",
"115 -18 OFFCURVE",
"221 -18 CURVE"
);
}
);
width = 593;
},
{
anchors = (
{
name = bottom;
position = "{212, 0}";
},
{
name = center;
position = "{319, 350}";
},
{
name = ogonek;
position = "{361, 10}";
},
{
name = top;
position = "{486, 700}";
},
{
name = topleft;
position = "{141, 700}";
},
{
name = topright;
position = "{711, 700}";
}
);
associatedMasterId = "B4D6250A-EC24-4DD5-8C49-5E627D155568";
background = {
paths = (
{
closed = 1;
nodes = (
"192 19 OFFCURVE",
"168 122 OFFCURVE",
"171 190 CURVE",
"171 381 OFFCURVE",
"327 671 OFFCURVE",
"448 671 CURVE SMOOTH",
"516 671 OFFCURVE",
"527 593 OFFCURVE",
"527 517 CURVE SMOOTH",
"527 244 OFFCURVE",
"358 24 OFFCURVE",
"242 13 CURVE"
);
},
{
closed = 1;
nodes = (
"411 6 OFFCURVE",
"637 279 OFFCURVE",
"637 502 CURVE SMOOTH",
"637 612 OFFCURVE",
"604 691 OFFCURVE",
"502 691 CURVE SMOOTH",
"288 691 OFFCURVE",
"64 406 OFFCURVE",
"64 194 CURVE SMOOTH",
"60 77 OFFCURVE",
"120 -7 OFFCURVE",
"190 -7 CURVE"
);
}
);
};
layerId = "4AD7B118-962D-426B-AD2E-D31E19C857CE";
name = "11 apr 22, 23:36";
paths = (
{
closed = 1;
nodes = (
"251 29 OFFCURVE",
"213 87 OFFCURVE",
"213 198 CURVE SMOOTH",
"213 424 OFFCURVE",
"356 668 OFFCURVE",
"435 668 CURVE SMOOTH",
"461 668 OFFCURVE",
"497 624 OFFCURVE",
"497 505 CURVE SMOOTH",
"497 207 OFFCURVE",
"330 29 OFFCURVE",
"269 29 CURVE SMOOTH"
);
},
{
closed = 1;
nodes = (
"323 7 OFFCURVE",
"676 210 OFFCURVE",
"676 497 CURVE SMOOTH",
"676 631 OFFCURVE",
"591 709 OFFCURVE",
"486 713 CURVE",
"412 699 OFFCURVE",
"34 521 OFFCURVE",
"34 203 CURVE SMOOTH",
"34 68 OFFCURVE",
"115 -18 OFFCURVE",
"221 -18 CURVE"
);
}
);
width = 626;
}
);
leftKerningGroup = O;
rightKerningGroup = O;
rightMetricsKey = "=|+4";
unicode = 004F;
},
{
glyphname = Oslash;
lastChange = "2022-04-13 23:48:30 +0000";
layers = (
{
components = (
{
name = O;
}
);
layerId = "4AEC2A2F-21E0-4005-B5C4-61417F12BD89";
paths = (
{
closed = 1;
nodes = (
"746 700 LINE",
"734 716 LINE",
"-22 14 LINE",
"-10 -2 LINE"
);
}
);
width = 644;
},
{
components = (
{
name = O;
}
);
layerId = "B4D6250A-EC24-4DD5-8C49-5E627D155568";
paths = (
{
closed = 1;
nodes = (
"748 700 LINE",
"732 718 LINE",
"-24 14 LINE",
"-8 -4 LINE"
);
}
);
width = 648;
}
);
leftKerningGroup = O;
rightKerningGroup = O;
rightMetricsKey = O;
unicode = 00D8;
},
{
color = 1;
glyphname = OE;
lastChange = "2022-04-14 12:29:19 +0000";
layers = (
{
components = (
{
name = E;
transform = "{1, 0, 0, 1, 366, 0}";
}
);
layerId = "B4D6250A-EC24-4DD5-8C49-5E627D155568";
paths = (
{
closed = 1;
nodes = (
"331 0 OFFCURVE",
"391 27 OFFCURVE",
"444 64 CURVE",
"399 123 LINE",
"368 76 OFFCURVE",
"329 38 OFFCURVE",
"285 10 CURVE",
"241 38 OFFCURVE",
"208 112 OFFCURVE",
"208 224 CURVE SMOOTH",
"208 432 OFFCURVE",
"293 606 OFFCURVE",
"425 690 CURVE",
"462 670 OFFCURVE",
"491 611 OFFCURVE",
"499 529 CURVE",
"608 639 LINE",
"568 684 OFFCURVE",
"510 712 OFFCURVE",
"441 714 CURVE",
"209 662 OFFCURVE",
"44 448 OFFCURVE",
"44 228 CURVE SMOOTH",
"44 88 OFFCURVE",
"133 -10 OFFCURVE",
"265 -14 CURVE"
);
}
);
width = 898;
},
{
associatedMasterId = "4AEC2A2F-21E0-4005-B5C4-61417F12BD89";
background = {
anchors = (
{
name = bottom;
position = "{71, 0}";
},
{
name = center;
position = "{178, 350}";
},
{
name = ogonek;
position = "{287, 10}";
},
{
name = top;
position = "{285, 700}";
},
{
name = topleft;
position = "{38, 700}";
},
{
name = topright;
position = "{531, 700}";
}
);
paths = (
{
closed = 1;
nodes = (
"717 692 OFFCURVE",
"755 633 OFFCURVE",
"755 566 CURVE SMOOTH",
"755 544 OFFCURVE",
"750 521 OFFCURVE",
"741 495 CURVE",
"750 495 LINE",
"840 688 LINE",
"798 705 OFFCURVE",
"750 711 OFFCURVE",
"704 711 CURVE SMOOTH",
"264 711 OFFCURVE",
"20 384 OFFCURVE",
"20 194 CURVE SMOOTH",
"16 77 OFFCURVE",
"76 -7 OFFCURVE",
"146 -7 CURVE SMOOTH",
"207 -4 OFFCURVE",
"290 20 OFFCURVE",
"352 56 CURVE",
"394 11 OFFCURVE",
"454 -17 OFFCURVE",
"518 -16 CURVE",
"790 124 LINE",
"782 138 LINE",
"760 127 OFFCURVE",
"586 30 OFFCURVE",
"558 30 CURVE SMOOTH",
"491 30 OFFCURVE",
"410 110 OFFCURVE",
"418 210 CURVE SMOOTH",
"428 322 OFFCURVE",
"476 361 OFFCURVE",
"581 396 CURVE",
"616 383 OFFCURVE",
"651 372 OFFCURVE",
"678 363 CURVE",
"679 373 LINE",
"613 406 OFFCURVE",
"507 472 OFFCURVE",
"507 589 CURVE SMOOTH",
"507 662 OFFCURVE",
"595 695 OFFCURVE",
"660 700 CURVE SMOOTH",
"663 700 OFFCURVE",
"666 700 OFFCURVE",
"670 699 CURVE SMOOTH"
);
},
{
closed = 1;
nodes = (
"127 378 OFFCURVE",
"363 680 OFFCURVE",
"584 691 CURVE",
"495 666 OFFCURVE",
"427 618 OFFCURVE",
"421 550 CURVE SMOOTH",
"418 479 OFFCURVE",
"489 434 OFFCURVE",
"564 403 CURVE",
"446 365 OFFCURVE",
"311 300 OFFCURVE",
"299 166 CURVE",
"304 132 OFFCURVE",
"317 100 OFFCURVE",
"338 73 CURVE",
"301 40 OFFCURVE",
"262 26 OFFCURVE",
"228 23 CURVE",
"148 29 OFFCURVE",
"124 122 OFFCURVE",
"127 190 CURVE"
);
}
);
};
components = (
{
name = E;
transform = "{1, 0, 0, 1, 282, 0}";
}
);
layerId = "FAAE5CFD-27E0-4EC2-A370-1A031D700755";
name = "13 apr 22, 12:31";
paths = (
{
closed = 1;
nodes = (
"318 2 OFFCURVE",
"360 23 OFFCURVE",
"398 48 CURVE",
"383 62 LINE",
"356 40 OFFCURVE",
"330 22 OFFCURVE",
"298 8 CURVE",
"214 12 OFFCURVE",
"154 88 OFFCURVE",
"154 236 CURVE SMOOTH",
"154 462 OFFCURVE",
"317 641 OFFCURVE",
"571 694 CURVE",
"646 714 LINE",
"283 683 OFFCURVE",
"50 485 OFFCURVE",
"50 208 CURVE SMOOTH",
"50 68 OFFCURVE",
"130 -14 OFFCURVE",
"272 -14 CURVE"
);
}
);
width = 822;
},
{
background = {
anchors = (
{
name = bottom;
position = "{75, 0}";
},
{
name = center;
position = "{182, 350}";
},
{
name = ogonek;
position = "{291, 10}";
},
{
name = top;
position = "{289, 700}";
},
{
name = topleft;
position = "{42, 700}";
},
{
name = topright;
position = "{535, 700}";
}
);
paths = (
{
closed = 1;
nodes = (
"721 692 OFFCURVE",
"759 633 OFFCURVE",
"759 566 CURVE SMOOTH",
"759 544 OFFCURVE",
"754 521 OFFCURVE",
"745 495 CURVE",
"754 495 LINE",
"844 688 LINE",
"802 705 OFFCURVE",
"754 711 OFFCURVE",
"708 711 CURVE SMOOTH",
"268 711 OFFCURVE",
"24 384 OFFCURVE",
"24 194 CURVE SMOOTH",
"20 77 OFFCURVE",
"80 -7 OFFCURVE",
"150 -7 CURVE SMOOTH",
"211 -4 OFFCURVE",
"294 20 OFFCURVE",
"356 56 CURVE",
"398 11 OFFCURVE",
"458 -17 OFFCURVE",
"522 -16 CURVE",
"794 124 LINE",
"786 138 LINE",
"764 127 OFFCURVE",
"590 30 OFFCURVE",
"562 30 CURVE SMOOTH",
"495 30 OFFCURVE",
"414 110 OFFCURVE",
"422 210 CURVE SMOOTH",
"432 322 OFFCURVE",
"480 361 OFFCURVE",
"585 396 CURVE",
"620 383 OFFCURVE",
"655 372 OFFCURVE",
"682 363 CURVE",
"683 373 LINE",
"617 406 OFFCURVE",
"511 472 OFFCURVE",
"511 589 CURVE SMOOTH",
"511 662 OFFCURVE",
"599 695 OFFCURVE",
"664 700 CURVE SMOOTH",
"667 700 OFFCURVE",
"670 700 OFFCURVE",
"674 699 CURVE SMOOTH"
);
},
{
closed = 1;
nodes = (
"131 378 OFFCURVE",
"367 680 OFFCURVE",
"588 691 CURVE",
"499 666 OFFCURVE",
"431 618 OFFCURVE",
"425 550 CURVE SMOOTH",
"422 479 OFFCURVE",
"493 434 OFFCURVE",
"568 403 CURVE",
"450 365 OFFCURVE",
"315 300 OFFCURVE",
"303 166 CURVE",
"308 132 OFFCURVE",
"321 100 OFFCURVE",
"342 73 CURVE",
"305 40 OFFCURVE",
"266 26 OFFCURVE",
"232 23 CURVE",
"152 29 OFFCURVE",
"128 122 OFFCURVE",
"131 190 CURVE"
);
}
);
};
components = (
{
name = E;
transform = "{1, 0, 0, 1, 398, 0}";
}
);
layerId = "4AEC2A2F-21E0-4005-B5C4-61417F12BD89";
name = "Extra Italic";
paths = (
{
closed = 1;
nodes = (
"353 9 OFFCURVE",
"413 44 OFFCURVE",
"464 87 CURVE",
"447 114 LINE",
"409 67 OFFCURVE",
"362 30 OFFCURVE",
"308 6 CURVE",
"215 6 OFFCURVE",
"157 109 OFFCURVE",
"157 264 CURVE SMOOTH",
"157 462 OFFCURVE",
"254 626 OFFCURVE",
"406 694 CURVE",
"479 694 OFFCURVE",
"531 629 OFFCURVE",
"547 521 CURVE",
"610 633 LINE",
"568 685 OFFCURVE",
"504 714 OFFCURVE",
"424 714 CURVE",
"184 634 OFFCURVE",
"51 420 OFFCURVE",
"51 220 CURVE SMOOTH",
"51 80 OFFCURVE",
"144 -14 OFFCURVE",
"286 -14 CURVE"
);
}
);
width = 938;
},
{
associatedMasterId = "4AEC2A2F-21E0-4005-B5C4-61417F12BD89";
background = {
anchors = (
{
name = bottom;
position = "{75, 0}";
},
{
name = center;
position = "{182, 350}";
},
{
name = ogonek;
position = "{291, 10}";
},
{
name = top;
position = "{289, 700}";
},
{
name = topleft;
position = "{42, 700}";
},
{
name = topright;
position = "{535, 700}";
}
);
paths = (
{
closed = 1;
nodes = (
"721 692 OFFCURVE",
"759 633 OFFCURVE",
"759 566 CURVE SMOOTH",
"759 544 OFFCURVE",
"754 521 OFFCURVE",
"745 495 CURVE",
"754 495 LINE",
"844 688 LINE",
"802 705 OFFCURVE",
"754 711 OFFCURVE",
"708 711 CURVE SMOOTH",
"268 711 OFFCURVE",
"24 384 OFFCURVE",
"24 194 CURVE SMOOTH",
"20 77 OFFCURVE",
"80 -7 OFFCURVE",
"150 -7 CURVE SMOOTH",
"211 -4 OFFCURVE",
"294 20 OFFCURVE",
"356 56 CURVE",
"398 11 OFFCURVE",
"458 -17 OFFCURVE",
"522 -16 CURVE",
"794 124 LINE",
"786 138 LINE",
"764 127 OFFCURVE",
"590 30 OFFCURVE",
"562 30 CURVE SMOOTH",
"495 30 OFFCURVE",
"414 110 OFFCURVE",
"422 210 CURVE SMOOTH",
"432 322 OFFCURVE",
"480 361 OFFCURVE",
"585 396 CURVE",
"620 383 OFFCURVE",
"655 372 OFFCURVE",
"682 363 CURVE",
"683 373 LINE",
"617 406 OFFCURVE",
"511 472 OFFCURVE",
"511 589 CURVE SMOOTH",
"511 662 OFFCURVE",
"599 695 OFFCURVE",
"664 700 CURVE SMOOTH",
"667 700 OFFCURVE",
"670 700 OFFCURVE",
"674 699 CURVE SMOOTH"
);
},
{
closed = 1;
nodes = (
"131 378 OFFCURVE",
"367 680 OFFCURVE",
"588 691 CURVE",
"499 666 OFFCURVE",
"431 618 OFFCURVE",
"425 550 CURVE SMOOTH",
"422 479 OFFCURVE",
"493 434 OFFCURVE",
"568 403 CURVE",
"450 365 OFFCURVE",
"315 300 OFFCURVE",
"303 166 CURVE",
"308 132 OFFCURVE",
"321 100 OFFCURVE",
"342 73 CURVE",
"305 40 OFFCURVE",
"266 26 OFFCURVE",
"232 23 CURVE",
"152 29 OFFCURVE",
"128 122 OFFCURVE",
"131 190 CURVE"
);
}
);
};
components = (
{
name = E;
transform = "{1, 0, 0, 1, 286, 0}";
}
);
layerId = "DD52E848-916B-476D-B19D-D4F5AEDCCD97";
name = "14 apr 22, 01:35";
paths = (
{
closed = 1;
nodes = (
"318 2 OFFCURVE",
"364 23 OFFCURVE",
"402 48 CURVE",
"387 62 LINE",
"360 40 OFFCURVE",
"330 22 OFFCURVE",
"298 8 CURVE",
"214 12 OFFCURVE",
"156 108 OFFCURVE",
"156 256 CURVE SMOOTH",
"156 454 OFFCURVE",
"268 626 OFFCURVE",
"420 694 CURVE",
"457 676 OFFCURVE",
"491 639 OFFCURVE",
"508 601 CURVE",
"556 652 LINE",
"520 684 OFFCURVE",
"478 706 OFFCURVE",
"438 714 CURVE",
"186 630 OFFCURVE",
"50 416 OFFCURVE",
"50 220 CURVE SMOOTH",
"50 80 OFFCURVE",
"130 -14 OFFCURVE",
"272 -14 CURVE"
);
}
);
width = 826;
},
{
anchors = (
{
name = bottom;
position = "{220, 0}";
},
{
name = ogonek;
position = "{668, 15}";
},
{
name = top;
position = "{434, 700}";
},
{
name = topleft;
position = "{589, 700}";
}
);
associatedMasterId = "B4D6250A-EC24-4DD5-8C49-5E627D155568";
layerId = "929D9B6B-C7B7-4515-9EF3-293AEC09BBB7";
name = "14 apr 22, 01:38";
paths = (
{
closed = 1;
nodes = (
"406 143 OFFCURVE",
"408 131 OFFCURVE",
"411 120 CURVE",
"378 65 OFFCURVE",
"330 34 OFFCURVE",
"295 31 CURVE",
"215 37 OFFCURVE",
"183 110 OFFCURVE",
"186 178 CURVE",
"186 369 OFFCURVE",
"425 675 OFFCURVE",
"647 675 CURVE",
"646 674 LINE",
"577 644 OFFCURVE",
"523 598 OFFCURVE",
"518 540 CURVE SMOOTH",
"512 469 OFFCURVE",
"626 424 OFFCURVE",
"701 393 CURVE",
"583 355 OFFCURVE",
"406 291 OFFCURVE",
"406 156 CURVE SMOOTH"
);
},
{
closed = 1;
nodes = (
"23 57 OFFCURVE",
"123 -7 OFFCURVE",
"213 -7 CURVE",
"281 -3 OFFCURVE",
"376 25 OFFCURVE",
"440 69 CURVE",
"485 15 OFFCURVE",
"568 -17 OFFCURVE",
"641 -16 CURVE",
"919 138 LINE",
"909 156 LINE",
"887 145 OFFCURVE",
"713 48 OFFCURVE",
"685 48 CURVE SMOOTH",
"635 48 OFFCURVE",
"586 116 OFFCURVE",
"586 196 CURVE SMOOTH",
"586 308 OFFCURVE",
"668 356 OFFCURVE",
"731 383 CURVE",
"766 370 OFFCURVE",
"788 362 OFFCURVE",
"815 353 CURVE",
"816 383 LINE",
"763 416 OFFCURVE",
"687 472 OFFCURVE",
"687 589 CURVE SMOOTH",
"687 624 OFFCURVE",
"734 686 OFFCURVE",
"786 686 CURVE SMOOTH",
"819 686 OFFCURVE",
"885 639 OFFCURVE",
"885 566 CURVE SMOOTH",
"885 544 OFFCURVE",
"880 521 OFFCURVE",
"871 495 CURVE",
"893 495 LINE",
"983 688 LINE",
"941 705 OFFCURVE",
"883 713 OFFCURVE",
"837 711 CURVE SMOOTH",
"807 710 LINE SMOOTH",
"360 710 OFFCURVE",
"27 500 OFFCURVE",
"27 174 CURVE"
);
}
);
width = 952;
}
);
leftKerningGroup = O;
leftMetricsKey = O;
rightKerningGroup = E;
rightMetricsKey = E;
unicode = 0152;
},
{
color = 3;
glyphname = P;
lastChange = "2022-04-12 22:08:57 +0000";
layers = (
{
hints = (
{
origin = "{0, 0}";
scale = "{1.24, 1}";
type = Corner;
name = _corner.rightSerif.cap;
options = 1;
},
{
origin = "{0, 23}";
type = Corner;
name = _corner.rightSerif.cap;
options = 1;
},
{
origin = "{0, 24}";
type = Corner;
name = _corner.leftSerif.cap;
}
);
layerId = "4AEC2A2F-21E0-4005-B5C4-61417F12BD89";
paths = (
{
closed = 1;
nodes = (
"136 0 LINE",
"336 700 LINE",
"308 674 LINE",
"334 679 OFFCURVE",
"367 682 OFFCURVE",
"392 682 CURVE SMOOTH",
"468 682 OFFCURVE",
"516 618 OFFCURVE",
"516 524 CURVE SMOOTH",
"516 428 OFFCURVE",
"466 347 OFFCURVE",
"388 320 CURVE",
"330 320 OFFCURVE",
"261 328 OFFCURVE",
"213 340 CURVE",
"202 300 LINE",
"360 300 LINE",
"516 332 OFFCURVE",
"620 420 OFFCURVE",
"620 540 CURVE SMOOTH",
"620 636 OFFCURVE",
"552 700 OFFCURVE",
"452 700 CURVE SMOOTH",
"238 700 LINE",
"38 0 LINE"
);
}
);
width = 544;
},
{
background = {
anchors = (
{
name = bottom;
position = "{211, 0}";
},
{
name = top;
position = "{425, 700}";
}
);
components = (
{
name = serif_maiuscolo;
transform = "{-1, 0, 0, -1, 436, 700}";
},
{
name = serif_maiusc_sinistra;
transform = "{1, 0, 0, 1, -184, 0}";
},
{
name = serif_maiuscolo;
transform = "{1, 0, 0, 1, -15, 0}";
}
);
paths = (
{
closed = 1;
nodes = (
"379 662 LINE",
"384 670 OFFCURVE",
"400 675 OFFCURVE",
"416 675 CURVE",
"437 674 OFFCURVE",
"475 637 OFFCURVE",
"475 578 CURVE SMOOTH",
"475 468 OFFCURVE",
"404 324 OFFCURVE",
"303 324 CURVE",
"312 324 OFFCURVE",
"287 324 OFFCURVE",
"278 330 CURVE"
);
},
{
closed = 1;
nodes = (
"476 299 OFFCURVE",
"622 422 OFFCURVE",
"622 584 CURVE SMOOTH",
"622 678 OFFCURVE",
"536 701 OFFCURVE",
"436 701 CURVE SMOOTH",
"171 700 LINE",
"169 694 LINE",
"235 674 LINE",
"31 0 LINE",
"177 0 LINE",
"269 299 LINE"
);
}
);
};
hints = (
{
origin = "{0, 0}";
scale = "{1.24, 1}";
type = Corner;
name = _corner.rightSerif.cap;
options = 1;
},
{
origin = "{0, 23}";
type = Corner;
name = _corner.rightSerif.cap;
options = 1;
},
{
origin = "{0, 24}";
type = Corner;
name = _corner.leftSerif.cap;
}
);
layerId = "B4D6250A-EC24-4DD5-8C49-5E627D155568";
paths = (
{
closed = 1;
nodes = (
"190 0 LINE",
"390 700 LINE",
"361 666 LINE",
"379 671 OFFCURVE",
"396 674 OFFCURVE",
"414 674 CURVE SMOOTH",
"480 674 OFFCURVE",
"522 617 OFFCURVE",
"522 528 CURVE SMOOTH",
"522 430 OFFCURVE",
"470 348 OFFCURVE",
"390 320 CURVE",
"346 320 OFFCURVE",
"309 328 OFFCURVE",
"269 344 CURVE",
"254 294 LINE",
"410 294 LINE",
"570 326 OFFCURVE",
"682 424 OFFCURVE",
"682 540 CURVE SMOOTH",
"682 634 OFFCURVE",
"611 700 OFFCURVE",
"510 700 CURVE SMOOTH",
"240 700 LINE",
"40 0 LINE"
);
}
);
width = 596;
},
{
associatedMasterId = "4AEC2A2F-21E0-4005-B5C4-61417F12BD89";
layerId = "5062BA78-AD84-4469-BF49-D6B722E0C88C";
name = "2 apr 22, 17:29";
paths = (
{
closed = 1;
nodes = (
"330 672 LINE",
"341 680 OFFCURVE",
"370 684 OFFCURVE",
"387 685 CURVE",
"449 684 OFFCURVE",
"497 637 OFFCURVE",
"497 578 CURVE SMOOTH",
"497 468 OFFCURVE",
"426 315 OFFCURVE",
"284 315 CURVE SMOOTH",
"263 315 OFFCURVE",
"253 316 OFFCURVE",
"229 321 CURVE"
);
},
{
closed = 1;
nodes = (
"417 299 OFFCURVE",
"593 392 OFFCURVE",
"593 584 CURVE SMOOTH",
"593 678 OFFCURVE",
"507 701 OFFCURVE",
"417 701 CURVE SMOOTH",
"152 700 LINE",
"150 694 LINE",
"231 674 LINE",
"29 0 LINE",
"132 0 LINE",
"220 299 LINE"
);
}
);
width = 479;
},
{
anchors = (
{
name = bottom;
position = "{209, 0}";
},
{
name = top;
position = "{423, 700}";
}
);
associatedMasterId = "B4D6250A-EC24-4DD5-8C49-5E627D155568";
background = {
paths = (
{
closed = 1;
nodes = (
"175 0 LINE",
"396 700 LINE",
"242 700 LINE",
"21 0 LINE"
);
}
);
};
layerId = "8FA67996-EC74-4C3F-BD47-657CB64CEFC9";
name = "12 apr 22, 19:06";
paths = (
{
closed = 1;
nodes = (
"377 662 LINE",
"382 670 OFFCURVE",
"398 675 OFFCURVE",
"414 675 CURVE",
"435 674 OFFCURVE",
"473 637 OFFCURVE",
"473 578 CURVE SMOOTH",
"473 468 OFFCURVE",
"402 324 OFFCURVE",
"301 324 CURVE",
"310 324 OFFCURVE",
"285 324 OFFCURVE",
"276 330 CURVE"
);
},
{
closed = 1;
nodes = (
"474 299 OFFCURVE",
"620 422 OFFCURVE",
"620 584 CURVE SMOOTH",
"620 678 OFFCURVE",
"534 701 OFFCURVE",
"434 701 CURVE SMOOTH",
"169 700 LINE",
"167 694 LINE",
"233 674 LINE",
"29 0 LINE",
"175 0 LINE",
"267 299 LINE"
);
}
);
width = 532;
}
);
leftKerningGroup = H;
leftMetricsKey = H;
rightKerningGroup = P;
unicode = 0050;
},
{
color = 3;
glyphname = Thorn;
lastChange = "2022-04-12 22:01:50 +0000";
layers = (
{
hints = (
{
origin = "{0, 0}";
scale = "{1.24, 1}";
type = Corner;
name = _corner.rightSerif.cap;
options = 1;
},
{
origin = "{0, 2}";
type = Corner;
name = _corner.rightSerif.cap;
options = 1;
},
{
origin = "{0, 3}";
type = Corner;
name = _corner.leftSerif.cap;
},
{
origin = "{0, 1}";
type = Corner;
name = _corner.leftSerif.cap;
}
);
layerId = "4AEC2A2F-21E0-4005-B5C4-61417F12BD89";
paths = (
{
closed = 1;
nodes = (
"136 0 LINE",
"336 700 LINE",
"238 700 LINE",
"38 0 LINE"
);
},
{
closed = 1;
nodes = (
"344 182 LINE",
"500 214 OFFCURVE",
"604 300 OFFCURVE",
"604 420 CURVE SMOOTH",
"604 516 OFFCURVE",
"536 582 OFFCURVE",
"436 582 CURVE SMOOTH",
"282 582 LINE",
"275 556 LINE",
"301 561 OFFCURVE",
"341 564 OFFCURVE",
"366 564 CURVE SMOOTH",
"448 564 OFFCURVE",
"500 498 OFFCURVE",
"500 402 CURVE SMOOTH",
"500 306 OFFCURVE",
"448 230 OFFCURVE",
"368 202 CURVE",
"302 202 OFFCURVE",
"229 210 OFFCURVE",
"180 222 CURVE",
"168 182 LINE"
);
}
);
width = 592;
},
{
hints = (
{
origin = "{0, 0}";
scale = "{1.24, 1}";
type = Corner;
name = _corner.rightSerif.cap;
options = 1;
},
{
origin = "{0, 1}";
type = Corner;
name = _corner.leftSerif.cap;
},
{
origin = "{0, 2}";
type = Corner;
name = _corner.rightSerif.cap;
options = 1;
},
{
origin = "{0, 3}";
type = Corner;
name = _corner.leftSerif.cap;
}
);
layerId = "B4D6250A-EC24-4DD5-8C49-5E627D155568";
paths = (
{
closed = 1;
nodes = (
"190 0 LINE",
"390 700 LINE",
"240 700 LINE",
"40 0 LINE"
);
},
{
closed = 1;
nodes = (
"382 161 LINE",
"542 189 OFFCURVE",
"658 284 OFFCURVE",
"658 404 CURVE SMOOTH",
"658 499 OFFCURVE",
"585 567 OFFCURVE",
"482 567 CURVE SMOOTH",
"332 567 LINE",
"322 534 LINE",
"340 539 OFFCURVE",
"364 542 OFFCURVE",
"382 542 CURVE SMOOTH",
"453 542 OFFCURVE",
"498 484 OFFCURVE",
"498 395 CURVE SMOOTH",
"498 298 OFFCURVE",
"443 216 OFFCURVE",
"358 186 CURVE",
"313 186 OFFCURVE",
"262 195 OFFCURVE",
"229 208 CURVE",
"216 161 LINE"
);
}
);
width = 648;
}
);
leftKerningGroup = H;
leftMetricsKey = H;
rightKerningGroup = Thorn;
unicode = 00DE;
},
{
color = 3;
glyphname = Q;
lastChange = "2022-04-14 09:42:24 +0000";
layers = (
{
components = (
{
name = O;
}
);
hints = (
{
origin = "{1, 0}";
scale = "{1.48, 1}";
type = Corner;
name = _corner.rightSerif.cap;
options = 1;
}
);
layerId = "4AEC2A2F-21E0-4005-B5C4-61417F12BD89";
paths = (
{
closed = 1;
nodes = (
"322 0 LINE",
"280 0 LINE",
"-60 -132 LINE",
"-52 -148 LINE"
);
},
{
closed = 1;
nodes = (
"352 -250 LINE",
"376 -208 LINE",
"319 -138 OFFCURVE",
"229 -83 OFFCURVE",
"144 -60 CURVE",
"16 -112 LINE",
"330 -266 LINE"
);
}
);
width = 644;
},
{
components = (
{
name = O;
}
);
hints = (
{
origin = "{1, 0}";
type = Corner;
name = _corner.rightSerif.cap;
options = 1;
}
);
layerId = "B4D6250A-EC24-4DD5-8C49-5E627D155568";
paths = (
{
closed = 1;
nodes = (
"339 8 LINE",
"288 8 LINE",
"-62 -124 LINE",
"-52 -148 LINE"
);
},
{
closed = 1;
nodes = (
"392 -228 LINE",
"392 -195 LINE",
"343 -129 OFFCURVE",
"284 -73 OFFCURVE",
"200 -40 CURVE",
"16 -112 LINE",
"328 -266 LINE"
);
}
);
width = 648;
},
{
associatedMasterId = "4AEC2A2F-21E0-4005-B5C4-61417F12BD89";
background = {
paths = (
{
closed = 1;
nodes = (
"215 6 LINE",
"-66 -152 LINE",
"-133 -180 LINE",
"-125 -187 OFFCURVE",
"-115 -190 OFFCURVE",
"-104 -188 CURVE",
"-87 -178 OFFCURVE",
"-65 -165 OFFCURVE",
"-39 -150 CURVE",
"71 -175 OFFCURVE",
"174 -204 OFFCURVE",
"300 -260 CURVE SMOOTH",
"309 -264 LINE",
"498 -128 LINE",
"491 -120 LINE",
"356 -211 LINE",
"283 -211 OFFCURVE",
"195 -97 OFFCURVE",
"68 -97 CURVE",
"13 -121 LINE",
"95 -76 OFFCURVE",
"152 -47 OFFCURVE",
"215 -18 CURVE"
);
}
);
};
layerId = "B94F2AA5-6E7F-46C1-B5EC-2F1896D3FA6B";
name = "2 apr 22, 18:27";
paths = (
{
closed = 1;
nodes = (
"191 20 OFFCURVE",
"154 87 OFFCURVE",
"154 198 CURVE SMOOTH",
"154 424 OFFCURVE",
"356 678 OFFCURVE",
"435 678 CURVE SMOOTH",
"501 678 OFFCURVE",
"546 624 OFFCURVE",
"546 505 CURVE SMOOTH",
"546 207 OFFCURVE",
"330 20 OFFCURVE",
"269 20 CURVE SMOOTH"
);
},
{
closed = 1;
nodes = (
"323 7 OFFCURVE",
"656 210 OFFCURVE",
"656 497 CURVE SMOOTH",
"656 631 OFFCURVE",
"591 709 OFFCURVE",
"486 713 CURVE",
"412 699 OFFCURVE",
"46 521 OFFCURVE",
"46 203 CURVE SMOOTH",
"46 68 OFFCURVE",
"115 -18 OFFCURVE",
"221 -18 CURVE"
);
},
{
closed = 1;
nodes = (
"48 -173 OFFCURVE",
"153 -202 OFFCURVE",
"283 -260 CURVE SMOOTH",
"292 -264 LINE",
"521 -98 LINE",
"512 -87 LINE",
"351 -204 LINE",
"278 -204 OFFCURVE",
"192 -93 OFFCURVE",
"65 -93 CURVE",
"-66 -148 LINE"
);
},
{
closed = 1;
nodes = (
"-28 -138 OFFCURVE",
"226 -30 OFFCURVE",
"298 15 CURVE",
"284 15 LINE",
"-150 -167 LINE",
"-142 -174 OFFCURVE",
"-121 -190 OFFCURVE",
"-110 -188 CURVE"
);
}
);
width = 615;
},
{
anchors = (
{
name = bottom;
position = "{257, 0}";
},
{
name = top;
position = "{471, 700}";
}
);
associatedMasterId = "B4D6250A-EC24-4DD5-8C49-5E627D155568";
layerId = "01E97F13-4DD3-4353-A993-FCB96B576917";
name = "11 apr 22, 23:52";
paths = (
{
closed = 1;
nodes = (
"78 -173 OFFCURVE",
"183 -202 OFFCURVE",
"313 -260 CURVE SMOOTH",
"322 -264 LINE",
"551 -98 LINE",
"540 -84 LINE",
"405 -175 LINE",
"332 -175 OFFCURVE",
"248 -67 OFFCURVE",
"121 -67 CURVE",
"-36 -148 LINE"
);
},
{
closed = 1;
nodes = (
"-9 -138 OFFCURVE",
"251 -12 OFFCURVE",
"323 33 CURVE",
"296 33 LINE",
"-66 -139 LINE",
"-133 -167 LINE",
"-125 -174 OFFCURVE",
"-102 -190 OFFCURVE",
"-91 -188 CURVE"
);
},
{
closed = 1;
nodes = (
"256 29 OFFCURVE",
"218 87 OFFCURVE",
"218 198 CURVE SMOOTH",
"218 424 OFFCURVE",
"361 668 OFFCURVE",
"440 668 CURVE SMOOTH",
"466 668 OFFCURVE",
"502 624 OFFCURVE",
"502 505 CURVE SMOOTH",
"502 207 OFFCURVE",
"335 29 OFFCURVE",
"274 29 CURVE SMOOTH"
);
},
{
closed = 1;
nodes = (
"295 13 OFFCURVE",
"681 210 OFFCURVE",
"681 497 CURVE SMOOTH",
"681 631 OFFCURVE",
"596 709 OFFCURVE",
"491 713 CURVE",
"417 699 OFFCURVE",
"39 521 OFFCURVE",
"39 203 CURVE SMOOTH",
"39 68 OFFCURVE",
"120 -18 OFFCURVE",
"226 -18 CURVE"
);
}
);
width = 630;
}
);
leftKerningGroup = O;
leftMetricsKey = O;
rightKerningGroup = O;
rightMetricsKey = O;
unicode = 0051;
},
{
color = 3;
glyphname = R;
lastChange = "2022-04-13 11:50:10 +0000";
layers = (
{
anchors = (
{
name = bottom;
position = "{300, 0}";
},
{
name = top;
position = "{420, 700}";
}
);
hints = (
{
origin = "{0, 13}";
type = Corner;
name = _corner.rightSerif.cap;
options = 1;
},
{
origin = "{0, 11}";
type = Corner;
name = _corner.rightSerif.cap;
options = 1;
},
{
origin = "{0, 12}";
type = Corner;
name = _corner.leftSerif.cap;
},
{
origin = "{0, 0}";
type = Corner;
name = _corner.rightSerif.cap;
options = 1;
}
);
layerId = "4AEC2A2F-21E0-4005-B5C4-61417F12BD89";
paths = (
{
closed = 1;
nodes = (
"517 12 LINE",
"416 300 LINE",
"324 320 LINE",
"324 324 LINE",
"364 324 LINE",
"532 356 OFFCURVE",
"624 440 OFFCURVE",
"624 548 CURVE SMOOTH",
"624 640 OFFCURVE",
"556 700 OFFCURVE",
"456 700 CURVE SMOOTH",
"242 700 LINE",
"42 0 LINE",
"140 0 LINE",
"340 700 LINE",
"313 674 LINE",
"341 679 OFFCURVE",
"367 682 OFFCURVE",
"396 682 CURVE SMOOTH",
"472 682 OFFCURVE",
"520 625 OFFCURVE",
"520 536 CURVE SMOOTH",
"520 447 OFFCURVE",
"470 368 OFFCURVE",
"392 341 CURVE",
"335 341 OFFCURVE",
"286 344 OFFCURVE",
"222 356 CURVE",
"213 321 LINE",
"316 321 LINE",
"304 328 LINE",
"416 2 LINE",
"470 -16 LINE"
);
}
);
width = 624;
},
{
anchors = (
{
name = bottom;
position = "{328, 0}";
},
{
name = top;
position = "{471, 700}";
}
);
hints = (
{
origin = "{0, 13}";
scale = "{1.24, 1}";
type = Corner;
name = _corner.rightSerif.cap;
options = 1;
},
{
origin = "{0, 11}";
type = Corner;
name = _corner.rightSerif.cap;
options = 1;
},
{
origin = "{0, 12}";
type = Corner;
name = _corner.leftSerif.cap;
},
{
origin = "{0, 0}";
type = Corner;
name = _corner.rightSerif.cap;
options = 1;
}
);
layerId = "B4D6250A-EC24-4DD5-8C49-5E627D155568";
paths = (
{
closed = 1;
nodes = (
"565 12 LINE",
"472 292 LINE",
"340 312 LINE",
"340 320 LINE",
"410 320 LINE",
"570 352 OFFCURVE",
"682 432 OFFCURVE",
"682 548 CURVE SMOOTH",
"682 637 OFFCURVE",
"611 700 OFFCURVE",
"510 700 CURVE SMOOTH",
"240 700 LINE",
"40 0 LINE",
"190 0 LINE",
"390 700 LINE",
"361 666 LINE",
"379 671 OFFCURVE",
"396 674 OFFCURVE",
"414 674 CURVE SMOOTH",
"480 674 OFFCURVE",
"522 618 OFFCURVE",
"522 532 CURVE SMOOTH",
"522 444 OFFCURVE",
"472 370 OFFCURVE",
"392 342 CURVE",
"348 342 OFFCURVE",
"309 350 OFFCURVE",
"269 366 CURVE",
"254 316 LINE",
"324 316 LINE",
"312 323 LINE",
"412 4 LINE",
"519 -18 LINE"
);
}
);
width = 664;
},
{
associatedMasterId = "4AEC2A2F-21E0-4005-B5C4-61417F12BD89";
layerId = "C14BE3FA-9816-41B1-94CA-B5B57468A986";
name = "2 apr 22, 20:15";
paths = (
{
closed = 1;
nodes = (
"127 0 LINE",
"220 322 LINE",
"302 323 LINE",
"302 298 OFFCURVE",
"381 -26 OFFCURVE",
"446 -26 CURVE",
"571 54 LINE",
"566 60 LINE",
"517 30 LINE",
"472 30 OFFCURVE",
"397 304 OFFCURVE",
"397 330 CURVE",
"337 323 LINE",
"432 323 OFFCURVE",
"588 487 OFFCURVE",
"588 584 CURVE SMOOTH",
"588 678 OFFCURVE",
"502 701 OFFCURVE",
"412 701 CURVE",
"226 701 LINE",
"25 0 LINE"
);
},
{
closed = 1;
nodes = (
"325 672 LINE",
"336 680 OFFCURVE",
"365 684 OFFCURVE",
"382 685 CURVE",
"444 684 OFFCURVE",
"492 637 OFFCURVE",
"492 578 CURVE SMOOTH",
"492 468 OFFCURVE",
"426 338 OFFCURVE",
"284 338 CURVE SMOOTH",
"263 338 OFFCURVE",
"253 339 OFFCURVE",
"229 344 CURVE"
);
}
);
width = 597;
},
{
anchors = (
{
name = bottom;
position = "{232, 0}";
},
{
name = top;
position = "{446, 700}";
}
);
associatedMasterId = "B4D6250A-EC24-4DD5-8C49-5E627D155568";
background = {
paths = (
{
closed = 1;
nodes = (
"373 662 LINE",
"378 670 OFFCURVE",
"394 675 OFFCURVE",
"410 675 CURVE",
"431 674 OFFCURVE",
"469 637 OFFCURVE",
"469 578 CURVE SMOOTH",
"469 468 OFFCURVE",
"398 324 OFFCURVE",
"297 324 CURVE",
"306 324 OFFCURVE",
"281 324 OFFCURVE",
"272 330 CURVE"
);
},
{
closed = 1;
nodes = (
"470 299 OFFCURVE",
"616 422 OFFCURVE",
"616 584 CURVE SMOOTH",
"616 678 OFFCURVE",
"530 701 OFFCURVE",
"430 701 CURVE SMOOTH",
"165 700 LINE",
"163 694 LINE",
"229 674 LINE",
"17 0 LINE",
"171 0 LINE",
"263 299 LINE"
);
}
);
};
layerId = "050DEBAC-0FA5-4087-8988-FF5B185BA40D";
name = "12 apr 22, 19:18";
paths = (
{
closed = 1;
nodes = (
"173 0 LINE",
"266 322 LINE",
"282 323 LINE",
"282 298 OFFCURVE",
"361 -26 OFFCURVE",
"426 -26 CURVE",
"591 54 LINE",
"586 70 LINE",
"537 40 LINE",
"492 40 OFFCURVE",
"417 306 OFFCURVE",
"417 332 CURVE",
"347 323 LINE",
"442 323 OFFCURVE",
"625 487 OFFCURVE",
"625 584 CURVE SMOOTH",
"625 678 OFFCURVE",
"539 701 OFFCURVE",
"422 701 CURVE",
"231 701 LINE",
"9 0 LINE"
);
},
{
closed = 1;
nodes = (
"371 663 LINE",
"382 671 OFFCURVE",
"403 671 OFFCURVE",
"410 672 CURVE",
"428 671 OFFCURVE",
"465 637 OFFCURVE",
"465 578 CURVE SMOOTH",
"465 468 OFFCURVE",
"396 353 OFFCURVE",
"298 353 CURVE",
"287 353 OFFCURVE",
"279 354 OFFCURVE",
"275 359 CURVE"
);
}
);
width = 603;
}
);
leftKerningGroup = H;
leftMetricsKey = R;
rightKerningGroup = R;
unicode = 0052;
},
{
color = 3;
glyphname = S;
lastChange = "2022-04-14 09:42:38 +0000";
layers = (
{
anchors = (
{
name = bottom;
position = "{168, 0}";
},
{
name = top;
position = "{364, 700}";
}
);
layerId = "4AEC2A2F-21E0-4005-B5C4-61417F12BD89";
paths = (
{
closed = 1;
nodes = (
"267 21 OFFCURVE",
"414 116 OFFCURVE",
"414 220 CURVE SMOOTH",
"414 364 OFFCURVE",
"160 432 OFFCURVE",
"160 564 CURVE",
"188 608 OFFCURVE",
"228 640 OFFCURVE",
"276 656 CURVE",
"456 600 LINE",
"486 608 LINE",
"504 680 LINE",
"476 700 OFFCURVE",
"418 714 OFFCURVE",
"378 714 CURVE",
"218 682 OFFCURVE",
"114 584 OFFCURVE",
"114 484 CURVE SMOOTH",
"114 344 OFFCURVE",
"356 272 OFFCURVE",
"356 144 CURVE",
"334 103 OFFCURVE",
"249 45 OFFCURVE",
"192 36 CURVE",
"36 120 LINE",
"4 116 LINE",
"-28 52 LINE",
"6 12 OFFCURVE",
"62 -14 OFFCURVE",
"114 -14 CURVE"
);
}
);
width = 452;
},
{
anchors = (
{
name = bottom;
position = "{176, 0}";
},
{
name = top;
position = "{371, 700}";
}
);
layerId = "B4D6250A-EC24-4DD5-8C49-5E627D155568";
paths = (
{
closed = 1;
nodes = (
"300 18 OFFCURVE",
"424 110 OFFCURVE",
"424 222 CURVE SMOOTH",
"424 386 OFFCURVE",
"192 468 OFFCURVE",
"192 588 CURVE",
"209 615 OFFCURVE",
"238 636 OFFCURVE",
"262 644 CURVE",
"464 560 LINE",
"500 568 LINE",
"528 676 LINE",
"500 696 OFFCURVE",
"428 714 OFFCURVE",
"388 714 CURVE",
"224 686 OFFCURVE",
"122 586 OFFCURVE",
"122 478 CURVE SMOOTH",
"122 318 OFFCURVE",
"346 240 OFFCURVE",
"346 124 CURVE",
"324 92 OFFCURVE",
"285 66 OFFCURVE",
"246 56 CURVE",
"62 160 LINE",
"22 152 LINE",
"-34 56 LINE",
"10 16 OFFCURVE",
"76 -14 OFFCURVE",
"124 -14 CURVE"
);
}
);
width = 464;
},
{
anchors = (
{
name = bottom;
position = "{126, 0}";
},
{
name = top;
position = "{392, 700}";
}
);
associatedMasterId = "4AEC2A2F-21E0-4005-B5C4-61417F12BD89";
layerId = "908ECEB9-54F6-49F7-89D3-288D350EACCA";
name = "4 apr 22, 22:03";
paths = (
{
closed = 1;
nodes = (
"-25 71 LINE",
"-24 19 OFFCURVE",
"78 -28 OFFCURVE",
"125 -17 CURVE SMOOTH",
"273 17 OFFCURVE",
"387 140 OFFCURVE",
"406 249 CURVE",
"406 346 OFFCURVE",
"206 410 OFFCURVE",
"206 583 CURVE",
"240 622 OFFCURVE",
"279 656 OFFCURVE",
"344 656 CURVE SMOOTH",
"376 656 OFFCURVE",
"435 612 OFFCURVE",
"480 575 CURVE",
"490 575 LINE",
"518 663 LINE",
"501 695 OFFCURVE",
"443 700 OFFCURVE",
"391 700 CURVE SMOOTH",
"281 700 OFFCURVE",
"147 574 OFFCURVE",
"133 469 CURVE SMOOTH",
"115 357 OFFCURVE",
"347 247 OFFCURVE",
"334 136 CURVE",
"305 96 OFFCURVE",
"247 50 OFFCURVE",
"191 50 CURVE",
"144 56 OFFCURVE",
"79 86 OFFCURVE",
"48 134 CURVE"
);
}
);
width = 463;
},
{
anchors = (
{
name = bottom;
position = "{129, 0}";
},
{
name = top;
position = "{390, 700}";
}
);
associatedMasterId = "B4D6250A-EC24-4DD5-8C49-5E627D155568";
layerId = "629FC640-9762-438C-B89E-D773E933FC04";
name = "12 apr 22, 22:32";
paths = (
{
closed = 1;
nodes = (
"-32 71 LINE",
"-31 19 OFFCURVE",
"71 -28 OFFCURVE",
"118 -17 CURVE SMOOTH",
"269 17 OFFCURVE",
"408 160 OFFCURVE",
"427 269 CURVE",
"427 366 OFFCURVE",
"219 410 OFFCURVE",
"219 583 CURVE",
"230 603 OFFCURVE",
"277 626 OFFCURVE",
"325 626 CURVE SMOOTH",
"357 626 OFFCURVE",
"436 592 OFFCURVE",
"481 555 CURVE",
"491 555 LINE",
"519 663 LINE",
"502 695 OFFCURVE",
"444 700 OFFCURVE",
"392 700 CURVE SMOOTH",
"277 700 OFFCURVE",
"120 554 OFFCURVE",
"106 449 CURVE SMOOTH",
"88 337 OFFCURVE",
"328 247 OFFCURVE",
"315 136 CURVE",
"281 106 OFFCURVE",
"240 80 OFFCURVE",
"184 80 CURVE",
"137 86 OFFCURVE",
"72 106 OFFCURVE",
"41 154 CURVE"
);
}
);
width = 477;
}
);
leftKerningGroup = S;
rightKerningGroup = S;
unicode = 0053;
},
{
color = 1;
glyphname = Germandbls;
lastChange = "2022-04-14 12:29:19 +0000";
layers = (
{
annotations = (
{
position = "{115.933, 2.184}";
type = Arrow;
}
);
layerId = "4AEC2A2F-21E0-4005-B5C4-61417F12BD89";
paths = (
{
closed = 1;
nodes = (
"-79 -242 OFFCURVE",
"22 -164 OFFCURVE",
"98 -64 CURVE",
"284 580 LINE SMOOTH",
"297 626 OFFCURVE",
"341 669 OFFCURVE",
"396 688 CURVE",
"450 676 OFFCURVE",
"484 626 OFFCURVE",
"484 560 CURVE SMOOTH",
"484 512 OFFCURVE",
"464 462 OFFCURVE",
"432 428 CURVE SMOOTH",
"372 364 LINE",
"460 280 OFFCURVE",
"524 196 OFFCURVE",
"524 124 CURVE",
"502 83 OFFCURVE",
"468 56 OFFCURVE",
"408 36 CURVE",
"252 120 LINE",
"220 116 LINE",
"188 52 LINE",
"222 12 OFFCURVE",
"278 -14 OFFCURVE",
"330 -14 CURVE",
"482 21 OFFCURVE",
"580 105 OFFCURVE",
"580 208 CURVE SMOOTH",
"580 280 OFFCURVE",
"528 348 OFFCURVE",
"448 420 CURVE",
"449 424 LINE",
"533 452 OFFCURVE",
"584 520 OFFCURVE",
"584 584 CURVE SMOOTH",
"584 660 OFFCURVE",
"514 714 OFFCURVE",
"416 714 CURVE",
"338 689 OFFCURVE",
"234 615 OFFCURVE",
"174 538 CURVE",
"-15 -116 LINE",
"-30 -166 OFFCURVE",
"-56 -200 OFFCURVE",
"-96 -220 CURVE",
"-235 -132 LINE",
"-264 -136 LINE",
"-309 -212 LINE",
"-261 -248 OFFCURVE",
"-207 -264 OFFCURVE",
"-159 -264 CURVE"
);
},
{
closed = 1;
nodes = (
"217 454 LINE",
"221 470 LINE",
"88 470 LINE",
"84 454 LINE"
);
}
);
width = 612;
},
{
background = {
paths = (
{
closed = 0;
nodes = (
"370 478 LINE SMOOTH",
"370 318 OFFCURVE",
"594 240 OFFCURVE",
"594 124 CURVE",
"572 92 OFFCURVE",
"533 66 OFFCURVE",
"494 56 CURVE",
"310 160 LINE",
"270 152 LINE",
"214 56 LINE",
"258 16 OFFCURVE",
"324 -14 OFFCURVE",
"372 -14 CURVE",
"548 18 OFFCURVE",
"672 110 OFFCURVE",
"672 222 CURVE SMOOTH",
"672 386 OFFCURVE",
"440 468 OFFCURVE",
"440 588 CURVE"
);
}
);
};
layerId = "B4D6250A-EC24-4DD5-8C49-5E627D155568";
paths = (
{
closed = 1;
nodes = (
"-63 -241 OFFCURVE",
"76 -153 OFFCURVE",
"148 -52 CURVE",
"320 552 LINE SMOOTH",
"337 612 OFFCURVE",
"382 661 OFFCURVE",
"436 684 CURVE",
"460 668 OFFCURVE",
"476 632 OFFCURVE",
"476 588 CURVE SMOOTH",
"476 540 OFFCURVE",
"460 495 OFFCURVE",
"428 448 CURVE SMOOTH",
"368 360 LINE",
"468 280 OFFCURVE",
"568 184 OFFCURVE",
"576 116 CURVE",
"556 89 OFFCURVE",
"531 70 OFFCURVE",
"488 52 CURVE",
"312 152 LINE",
"272 145 LINE",
"220 56 LINE",
"254 16 OFFCURVE",
"320 -14 OFFCURVE",
"372 -14 CURVE",
"524 21 OFFCURVE",
"652 117 OFFCURVE",
"652 220 CURVE SMOOTH",
"652 315 OFFCURVE",
"553 397 OFFCURVE",
"461 469 CURVE",
"462 473 LINE",
"564 473 OFFCURVE",
"632 526 OFFCURVE",
"632 596 CURVE SMOOTH",
"632 667 OFFCURVE",
"561 714 OFFCURVE",
"456 714 CURVE",
"350 693 OFFCURVE",
"226 602 OFFCURVE",
"154 494 CURVE",
"-24 -132 LINE SMOOTH",
"-32 -160 OFFCURVE",
"-48 -182 OFFCURVE",
"-68 -196 CURVE",
"-224 -112 LINE",
"-264 -120 LINE",
"-316 -200 LINE",
"-272 -236 OFFCURVE",
"-216 -260 OFFCURVE",
"-180 -264 CURVE"
);
},
{
closed = 1;
nodes = (
"268 468 LINE",
"272 490 LINE",
"92 490 LINE",
"88 468 LINE"
);
}
);
width = 676;
},
{
annotations = (
{
position = "{115.933, 2.184}";
type = Arrow;
}
);
associatedMasterId = "4AEC2A2F-21E0-4005-B5C4-61417F12BD89";
layerId = "5952463E-B174-4077-B7B1-8DB1FE1FDF06";
name = "13 apr 22, 19:57";
paths = (
{
closed = 1;
nodes = (
"185 514 OFFCURVE",
"-20 -160 OFFCURVE",
"-46 -199 CURVE",
"-63 -218 OFFCURVE",
"-80 -221 OFFCURVE",
"-104 -221 CURVE SMOOTH",
"-126 -221 OFFCURVE",
"-184 -187 OFFCURVE",
"-213 -169 CURVE",
"-305 -201 LINE",
"-252 -235 OFFCURVE",
"-195 -275 OFFCURVE",
"-139 -275 CURVE",
"-107 -255 OFFCURVE",
"-73 -231 OFFCURVE",
"-42 -205 CURVE",
"13 -141 OFFCURVE",
"102 -29 OFFCURVE",
"113 -6 CURVE",
"304 604 LINE",
"309 619 OFFCURVE",
"379 674 OFFCURVE",
"454 674 CURVE SMOOTH",
"501 674 OFFCURVE",
"539 626 OFFCURVE",
"528 590 CURVE",
"376 372 LINE",
"371 357 LINE",
"490 360 OFFCURVE",
"510 231 OFFCURVE",
"479 129 CURVE SMOOTH",
"461 72 OFFCURVE",
"415 22 OFFCURVE",
"375 22 CURVE SMOOTH",
"360 22 OFFCURVE",
"328 50 OFFCURVE",
"319 77 CURVE",
"319 180 LINE",
"300 180 LINE",
"254 30 LINE",
"267 14 OFFCURVE",
"305 -14 OFFCURVE",
"330 -14 CURVE SMOOTH",
"356 -14 OFFCURVE",
"544 84 OFFCURVE",
"583 213 CURVE SMOOTH",
"605 283 OFFCURVE",
"550 361 OFFCURVE",
"477 383 CURVE",
"626 593 LINE",
"643 646 OFFCURVE",
"567 713 OFFCURVE",
"496 713 CURVE",
"402 695 OFFCURVE",
"205 593 OFFCURVE",
"183 518 CURVE"
);
},
{
closed = 1;
nodes = (
"96 446 LINE",
"171 446 LINE",
"238 462 LINE",
"177 466 LINE",
"100 462 LINE"
);
}
);
width = 597;
},
{
anchors = (
{
name = bottom;
position = "{166, 0}";
},
{
name = top;
position = "{395, 750}";
}
);
associatedMasterId = "B4D6250A-EC24-4DD5-8C49-5E627D155568";
layerId = "8619BDA0-4E9C-42C4-B3BE-14AA0347D704";
name = "13 apr 22, 21:10";
paths = (
{
closed = 1;
nodes = (
"428 713 OFFCURVE",
"216 544 OFFCURVE",
"200 489 CURVE SMOOTH",
"193 465 LINE",
"124 464 LINE",
"106 424 LINE",
"182 431 LINE",
"85 82 OFFCURVE",
"39 -93 OFFCURVE",
"4 -172 CURVE",
"-1 -174 OFFCURVE",
"-5 -175 OFFCURVE",
"-10 -175 CURVE SMOOTH",
"-13 -175 OFFCURVE",
"-16 -174 OFFCURVE",
"-20 -174 CURVE SMOOTH",
"-103 -167 OFFCURVE",
"-152 -119 OFFCURVE",
"-175 -105 CURVE",
"-306 -168 LINE",
"-253 -202 OFFCURVE",
"-145 -263 OFFCURVE",
"-89 -263 CURVE",
"47 -190 OFFCURVE",
"184 -29 OFFCURVE",
"195 -6 CURVE",
"380 634 LINE",
"391 643 OFFCURVE",
"478 674 OFFCURVE",
"510 674 CURVE SMOOTH",
"542 672 OFFCURVE",
"554 646 OFFCURVE",
"554 619 CURVE",
"398 372 LINE",
"393 357 LINE",
"477 359 OFFCURVE",
"508 282 OFFCURVE",
"508 200 CURVE SMOOTH",
"508 166 OFFCURVE",
"442 14 OFFCURVE",
"412 14 CURVE SMOOTH",
"397 14 OFFCURVE",
"378 50 OFFCURVE",
"371 77 CURVE",
"371 180 LINE",
"352 180 LINE",
"306 30 LINE",
"319 14 OFFCURVE",
"357 -14 OFFCURVE",
"382 -14 CURVE SMOOTH",
"402 -14 OFFCURVE",
"652 82 OFFCURVE",
"652 251 CURVE SMOOTH",
"652 309 OFFCURVE",
"611 365 OFFCURVE",
"526 383 CURVE",
"690 607 LINE",
"690 657 OFFCURVE",
"613 713 OFFCURVE",
"548 713 CURVE SMOOTH"
);
}
);
width = 723;
}
);
leftMetricsKey = f;
unicode = 1E9E;
},
{
glyphname = T;
lastChange = "2022-04-14 12:29:31 +0000";
layers = (
{
anchors = (
{
name = bottom;
position = "{216, 0}";
},
{
name = top;
position = "{416, 700}";
}
);
hints = (
{
origin = "{0, 0}";
scale = "{1.2, 1}";
type = Corner;
name = _corner.rightSerif.cap;
options = 1;
},
{
origin = "{0, 3}";
scale = "{1.04, 1}";
type = Corner;
name = _corner.leftSerif.cap;
}
);
layerId = "4AEC2A2F-21E0-4005-B5C4-61417F12BD89";
paths = (
{
closed = 1;
nodes = (
"266 0 LINE",
"466 700 LINE",
"368 700 LINE",
"168 0 LINE"
);
},
{
closed = 1;
nodes = (
"124 512 LINE",
"224 680 LINE",
"596 680 LINE",
"624 512 LINE",
"636 512 LINE",
"684 700 LINE",
"142 700 LINE",
"112 512 LINE"
);
}
);
width = 563;
},
{
anchors = (
{
name = bottom;
position = "{232, 0}";
},
{
name = top;
position = "{428, 700}";
}
);
hints = (
{
origin = "{0, 0}";
scale = "{1.2, 1}";
type = Corner;
name = _corner.rightSerif.cap;
options = 1;
},
{
origin = "{0, 3}";
scale = "{1.04, 1}";
type = Corner;
name = _corner.leftSerif.cap;
}
);
layerId = "B4D6250A-EC24-4DD5-8C49-5E627D155568";
paths = (
{
closed = 1;
nodes = (
"306 0 LINE",
"506 700 LINE",
"356 700 LINE",
"156 0 LINE"
);
},
{
closed = 1;
nodes = (
"108 458 LINE",
"240 672 LINE",
"594 672 LINE",
"633 460 LINE",
"649 460 LINE",
"711 700 LINE",
"131 700 LINE",
"92 460 LINE"
);
}
);
width = 591;
},
{
anchors = (
{
name = bottom;
position = "{172, 0}";
},
{
name = center;
position = "{318, 350}";
},
{
name = top;
position = "{425, 700}";
}
);
associatedMasterId = "B4D6250A-EC24-4DD5-8C49-5E627D155568";
background = {
paths = (
{
closed = 1;
nodes = (
"270 0 LINE",
"491 700 LINE",
"337 700 LINE",
"116 0 LINE"
);
},
{
closed = 1;
nodes = (
"200 664 LINE",
"407 664 LINE",
"418 700 LINE",
"211 700 LINE"
);
},
{
closed = 1;
nodes = (
"63 515 LINE",
"82 515 LINE",
"111 552 OFFCURVE",
"240 700 OFFCURVE",
"270 699 CURVE",
"224 700 LINE SMOOTH",
"214 700 OFFCURVE",
"179 702 OFFCURVE",
"167 704 CURVE",
"144 704 LINE"
);
},
{
closed = 1;
nodes = (
"418 700 LINE",
"407 664 LINE",
"614 664 LINE",
"625 700 LINE"
);
},
{
closed = 1;
nodes = (
"673 704 LINE",
"659 702 OFFCURVE",
"622 700 OFFCURVE",
"612 700 CURVE SMOOTH",
"566 699 LINE",
"596 700 OFFCURVE",
"635 552 OFFCURVE",
"642 515 CURVE",
"661 515 LINE",
"696 704 LINE"
);
},
{
closed = 1;
nodes = (
"119 0 LINE",
"277 0 LINE",
"491 700 LINE",
"333 700 LINE"
);
}
);
};
layerId = "C3260E3F-CF89-42A1-A96A-F9D9EBF66003";
name = "11 apr 22, 22:25";
paths = (
{
closed = 1;
nodes = (
"113 0 LINE",
"278 0 LINE",
"493 700 LINE",
"333 700 LINE"
);
},
{
closed = 1;
nodes = (
"240 670 LINE",
"584 670 LINE",
"590 700 LINE",
"246 700 LINE"
);
},
{
closed = 1;
nodes = (
"84 515 LINE",
"90 515 LINE",
"118 552 OFFCURVE",
"287 700 OFFCURVE",
"316 699 CURVE",
"244 700 LINE SMOOTH",
"234 700 OFFCURVE",
"189 702 OFFCURVE",
"176 704 CURVE",
"163 704 LINE"
);
},
{
closed = 1;
nodes = (
"657 704 LINE",
"644 702 OFFCURVE",
"587 700 OFFCURVE",
"577 700 CURVE SMOOTH",
"540 699 LINE",
"571 700 OFFCURVE",
"623 552 OFFCURVE",
"631 515 CURVE",
"637 515 LINE",
"670 704 LINE"
);
}
);
width = 553;
}
);
leftKerningGroup = T;
rightKerningGroup = T;
unicode = 0054;
},
{
color = 3;
glyphname = U;
lastChange = "2022-04-13 12:09:58 +0000";
layers = (
{
anchors = (
{
name = ogonek;
position = "{324, 0}";
},
{
name = top;
position = "{472, 700}";
}
);
hints = (
{
origin = "{0, 12}";
type = Corner;
name = _corner.leftSerif.cap;
},
{
origin = "{0, 13}";
type = Corner;
name = _corner.rightSerif.cap;
options = 1;
},
{
origin = "{0, 3}";
type = Corner;
name = _corner.leftSerif.cap;
},
{
origin = "{0, 4}";
type = Corner;
name = _corner.rightSerif.cap;
options = 1;
}
);
layerId = "4AEC2A2F-21E0-4005-B5C4-61417F12BD89";
paths = (
{
closed = 1;
nodes = (
"398 10 OFFCURVE",
"499 104 OFFCURVE",
"532 220 CURVE SMOOTH",
"668 700 LINE",
"644 700 LINE",
"509 218 LINE SMOOTH",
"482 122 OFFCURVE",
"412 52 OFFCURVE",
"324 20 CURVE",
"201 20 OFFCURVE",
"145 100 OFFCURVE",
"180 224 CURVE SMOOTH",
"316 700 LINE",
"218 700 LINE",
"76 200 LINE SMOOTH",
"40 74 OFFCURVE",
"124 -14 OFFCURVE",
"284 -14 CURVE"
);
}
);
width = 612;
},
{
anchors = (
{
name = ogonek;
position = "{368, 0}";
},
{
name = top;
position = "{500, 700}";
}
);
hints = (
{
origin = "{0, 3}";
type = Corner;
name = _corner.leftSerif.cap;
},
{
origin = "{0, 4}";
type = Corner;
name = _corner.rightSerif.cap;
options = 1;
},
{
origin = "{0, 12}";
type = Corner;
name = _corner.leftSerif.cap;
},
{
origin = "{0, 13}";
type = Corner;
name = _corner.rightSerif.cap;
options = 1;
}
);
layerId = "B4D6250A-EC24-4DD5-8C49-5E627D155568";
paths = (
{
closed = 1;
nodes = (
"436 10 OFFCURVE",
"537 106 OFFCURVE",
"568 216 CURVE SMOOTH",
"706 700 LINE",
"680 700 LINE",
"545 222 LINE SMOOTH",
"521 137 OFFCURVE",
"447 65 OFFCURVE",
"356 32 CURVE",
"240 32 OFFCURVE",
"190 104 OFFCURVE",
"224 224 CURVE SMOOTH",
"360 700 LINE",
"210 700 LINE",
"76 232 LINE SMOOTH",
"33 82 OFFCURVE",
"131 -14 OFFCURVE",
"320 -14 CURVE"
);
}
);
width = 656;
},
{
anchors = (
{
name = bottom;
position = "{256, 0}";
},
{
name = ogonek;
position = "{256, 1}";
},
{
name = top;
position = "{470, 700}";
},
{
name = topright;
position = "{745, 700}";
}
);
associatedMasterId = "4AEC2A2F-21E0-4005-B5C4-61417F12BD89";
layerId = "BB20724B-438E-42C1-9176-273038BAAA13";
name = "2 apr 22, 17:38";
paths = (
{
closed = 1;
nodes = (
"254 700 LINE",
"212 560 OFFCURVE",
"94 181 OFFCURVE",
"94 113 CURVE SMOOTH",
"94 47 OFFCURVE",
"142 -14 OFFCURVE",
"261 -12 CURVE",
"357 13 OFFCURVE",
"491 79 OFFCURVE",
"538 239 CURVE SMOOTH",
"674 700 LINE",
"648 700 LINE",
"515 266 LINE SMOOTH",
"468 113 OFFCURVE",
"361 36 OFFCURVE",
"296 36 CURVE SMOOTH",
"235 36 OFFCURVE",
"206 62 OFFCURVE",
"206 125 CURVE SMOOTH",
"206 212 OFFCURVE",
"310 542 OFFCURVE",
"358 700 CURVE"
);
}
);
width = 603;
},
{
anchors = (
{
name = bottom;
position = "{263, -1}";
},
{
name = ogonek;
position = "{276, 3}";
},
{
name = top;
position = "{526, 700}";
},
{
name = topright;
position = "{788, 700}";
}
);
associatedMasterId = "B4D6250A-EC24-4DD5-8C49-5E627D155568";
layerId = "F92E1E77-3911-485A-8D14-CB709478F1A0";
name = "12 apr 22, 09:08";
paths = (
{
closed = 1;
nodes = (
"249 700 LINE",
"207 560 OFFCURVE",
"89 181 OFFCURVE",
"89 113 CURVE SMOOTH",
"89 47 OFFCURVE",
"157 -14 OFFCURVE",
"276 -12 CURVE",
"372 13 OFFCURVE",
"505 79 OFFCURVE",
"553 239 CURVE SMOOTH",
"691 700 LINE",
"648 700 LINE",
"513 266 LINE SMOOTH",
"465 113 OFFCURVE",
"361 36 OFFCURVE",
"311 36 CURVE SMOOTH",
"280 36 OFFCURVE",
"251 62 OFFCURVE",
"251 125 CURVE SMOOTH",
"251 212 OFFCURVE",
"355 542 OFFCURVE",
"403 700 CURVE"
);
}
);
width = 632;
}
);
leftKerningGroup = U;
rightKerningGroup = J;
unicode = 0055;
},
{
color = 2;
glyphname = V;
lastChange = "2022-04-12 22:08:57 +0000";
layers = (
{
hints = (
{
origin = "{0, 14}";
type = Corner;
name = _corner.rightSerif.cap;
options = 1;
}
);
layerId = "4AEC2A2F-21E0-4005-B5C4-61417F12BD89";
paths = (
{
closed = 1;
nodes = (
"348 100 OFFCURVE",
"582 428 OFFCURVE",
"610 624 CURVE",
"594 660 OFFCURVE",
"554 700 OFFCURVE",
"514 716 CURVE",
"466 668 LINE",
"466 640 LINE",
"578 564 LINE",
"506 356 OFFCURVE",
"316 118 OFFCURVE",
"160 18 CURVE",
"156 20 LINE",
"324 700 LINE",
"226 700 LINE",
"68 48 LINE",
"80 24 OFFCURVE",
"102 0 OFFCURVE",
"124 -12 CURVE",
"92 -36 LINE",
"100 -48 LINE"
);
}
);
width = 536;
},
{
hints = (
{
origin = "{0, 14}";
type = Corner;
name = _corner.rightSerif.cap;
options = 1;
}
);
layerId = "B4D6250A-EC24-4DD5-8C49-5E627D155568";
paths = (
{
closed = 1;
nodes = (
"382 90 OFFCURVE",
"614 392 OFFCURVE",
"650 620 CURVE",
"630 656 OFFCURVE",
"582 698 OFFCURVE",
"530 718 CURVE",
"474 656 LINE",
"478 616 LINE",
"602 544 LINE",
"554 368 OFFCURVE",
"414 176 OFFCURVE",
"222 32 CURVE",
"214 36 LINE",
"358 700 LINE",
"210 700 LINE",
"74 64 LINE",
"94 28 OFFCURVE",
"126 0 OFFCURVE",
"154 -14 CURVE",
"112 -40 LINE",
"122 -58 LINE"
);
}
);
width = 580;
},
{
associatedMasterId = "4AEC2A2F-21E0-4005-B5C4-61417F12BD89";
background = {
paths = (
{
closed = 1;
nodes = (
"509 731 OFFCURVE",
"441 659 OFFCURVE",
"441 650 CURVE",
"499 658 OFFCURVE",
"575 573 OFFCURVE",
"586 532 CURVE",
"596 571 OFFCURVE",
"602 602 OFFCURVE",
"602 629 CURVE SMOOTH",
"602 699 OFFCURVE",
"549 731 OFFCURVE",
"515 731 CURVE"
);
},
{
closed = 1;
nodes = (
"84 27 OFFCURVE",
"109 -6 OFFCURVE",
"141 -17 CURVE",
"179 12 LINE",
"170 12 OFFCURVE",
"163 18 OFFCURVE",
"163 26 CURVE",
"210 213 OFFCURVE",
"324 489 OFFCURVE",
"357 677 CURVE",
"359 692 OFFCURVE",
"354 702 OFFCURVE",
"345 708 CURVE",
"254 659 LINE",
"68 73 LINE"
);
},
{
closed = 1;
nodes = (
"340 691 LINE",
"345 708 LINE",
"123 606 LINE",
"122 595 LINE"
);
},
{
closed = 1;
nodes = (
"97 -43 OFFCURVE",
"100 -46 OFFCURVE",
"105 -47 CURVE",
"293 63 OFFCURVE",
"565 351 OFFCURVE",
"591 560 CURVE SMOOTH",
"592 568 OFFCURVE",
"592 574 OFFCURVE",
"592 580 CURVE SMOOTH",
"592 596 OFFCURVE",
"589 604 OFFCURVE",
"585 604 CURVE SMOOTH",
"580 604 OFFCURVE",
"573 592 OFFCURVE",
"571 566 CURVE",
"550 346 OFFCURVE",
"288 77 OFFCURVE",
"97 -38 CURVE"
);
}
);
};
layerId = "D4600802-B05E-4979-8DA0-AE05A267356B";
name = "4 apr 22, 22:30";
paths = (
{
closed = 1;
nodes = (
"421 650 LINE",
"479 658 OFFCURVE",
"555 573 OFFCURVE",
"566 532 CURVE",
"576 571 OFFCURVE",
"582 602 OFFCURVE",
"582 629 CURVE SMOOTH",
"582 699 OFFCURVE",
"529 731 OFFCURVE",
"495 731 CURVE"
);
},
{
closed = 1;
nodes = (
"84 27 OFFCURVE",
"109 -6 OFFCURVE",
"141 -17 CURVE",
"179 12 LINE",
"170 12 OFFCURVE",
"163 18 OFFCURVE",
"163 26 CURVE",
"197 139 OFFCURVE",
"272 452 OFFCURVE",
"343 692 CURVE",
"318 700 LINE",
"237 700 LINE",
"68 73 LINE"
);
},
{
closed = 1;
nodes = (
"88 -34 OFFCURVE",
"100 -46 OFFCURVE",
"105 -47 CURVE",
"293 63 OFFCURVE",
"545 351 OFFCURVE",
"571 560 CURVE SMOOTH",
"572 568 OFFCURVE",
"572 574 OFFCURVE",
"572 580 CURVE SMOOTH",
"572 596 OFFCURVE",
"569 604 OFFCURVE",
"565 604 CURVE SMOOTH",
"560 604 OFFCURVE",
"545 601 OFFCURVE",
"543 575 CURVE SMOOTH",
"522 355 OFFCURVE",
"279 86 OFFCURVE",
"88 -29 CURVE"
);
}
);
width = 527;
},
{
anchors = (
{
name = bottom;
position = "{189, 0}";
},
{
name = top;
position = "{403, 700}";
}
);
associatedMasterId = "B4D6250A-EC24-4DD5-8C49-5E627D155568";
background = {
components = (
{
name = serif_asc;
transform = "{1, 0, 0, 1, -123, -25}";
}
);
};
layerId = "F0E5C2D2-30DD-4F98-B5CA-10BE2FC84141";
name = "12 apr 22, 21:04";
paths = (
{
closed = 1;
nodes = (
"406 613 LINE",
"468 603 OFFCURVE",
"540 536 OFFCURVE",
"551 495 CURVE",
"561 534 OFFCURVE",
"577 604 OFFCURVE",
"577 631 CURVE SMOOTH",
"577 701 OFFCURVE",
"524 733 OFFCURVE",
"490 733 CURVE"
);
},
{
closed = 1;
nodes = (
"38 29 OFFCURVE",
"104 -4 OFFCURVE",
"136 -15 CURVE",
"174 14 LINE",
"175 14 OFFCURVE",
"183 20 OFFCURVE",
"183 28 CURVE",
"207 90 OFFCURVE",
"275 469 OFFCURVE",
"345 693 CURVE",
"330 700 LINE",
"190 700 LINE",
"22 75 LINE"
);
},
{
closed = 1;
nodes = (
"78 -24 OFFCURVE",
"95 -44 OFFCURVE",
"100 -45 CURVE",
"288 65 OFFCURVE",
"540 353 OFFCURVE",
"566 562 CURVE SMOOTH",
"567 570 OFFCURVE",
"567 576 OFFCURVE",
"567 582 CURVE SMOOTH",
"567 598 OFFCURVE",
"564 606 OFFCURVE",
"560 606 CURVE SMOOTH",
"555 606 OFFCURVE",
"536 610 OFFCURVE",
"534 584 CURVE SMOOTH",
"513 364 OFFCURVE",
"269 96 OFFCURVE",
"78 -19 CURVE"
);
}
);
width = 523;
}
);
leftKerningGroup = V;
rightKerningGroup = V;
unicode = 0056;
},
{
color = 1;
glyphname = W;
lastChange = "2022-04-14 12:29:19 +0000";
layers = (
{
hints = (
{
origin = "{0, 23}";
type = Corner;
name = _corner.rightSerif.cap;
options = 1;
}
);
layerId = "4AEC2A2F-21E0-4005-B5C4-61417F12BD89";
paths = (
{
closed = 1;
nodes = (
"652 96 OFFCURVE",
"884 416 OFFCURVE",
"916 616 CURVE",
"900 656 OFFCURVE",
"864 692 OFFCURVE",
"824 712 CURVE",
"784 664 LINE",
"784 636 LINE",
"880 556 LINE",
"821 356 OFFCURVE",
"644 141 OFFCURVE",
"460 9 CURVE",
"456 12 LINE",
"548 228 OFFCURVE",
"612 474 OFFCURVE",
"644 702 CURVE",
"624 716 LINE",
"548 702 LINE",
"512 442 OFFCURVE",
"376 189 OFFCURVE",
"160 21 CURVE",
"156 24 LINE",
"324 700 LINE",
"226 700 LINE",
"65 43 LINE",
"79 19 OFFCURVE",
"100 0 OFFCURVE",
"124 -12 CURVE",
"92 -36 LINE",
"100 -48 LINE",
"269 65 OFFCURVE",
"415 249 OFFCURVE",
"480 392 CURVE",
"484 391 LINE",
"456 275 OFFCURVE",
"420 164 OFFCURVE",
"376 56 CURVE",
"391 26 OFFCURVE",
"407 6 OFFCURVE",
"432 -12 CURVE",
"392 -40 LINE",
"400 -52 LINE"
);
}
);
width = 843;
},
{
hints = (
{
origin = "{0, 23}";
type = Corner;
name = _corner.rightSerif.cap;
options = 1;
}
);
layerId = "B4D6250A-EC24-4DD5-8C49-5E627D155568";
paths = (
{
closed = 1;
nodes = (
"716 88 OFFCURVE",
"948 388 OFFCURVE",
"984 616 CURVE",
"964 652 OFFCURVE",
"917 698 OFFCURVE",
"865 718 CURVE",
"817 656 LINE",
"821 616 LINE",
"932 540 LINE",
"884 364 OFFCURVE",
"744 172 OFFCURVE",
"552 28 CURVE",
"544 32 LINE",
"624 248 OFFCURVE",
"672 464 OFFCURVE",
"692 696 CURVE",
"633 718 LINE",
"550 686 LINE",
"510 414 OFFCURVE",
"408 212 OFFCURVE",
"224 40 CURVE",
"216 44 LINE",
"358 700 LINE",
"210 700 LINE",
"72 60 LINE",
"94 24 OFFCURVE",
"126 -2 OFFCURVE",
"154 -14 CURVE",
"112 -40 LINE",
"122 -58 LINE",
"314 70 OFFCURVE",
"402 180 OFFCURVE",
"477 330 CURVE",
"485 328 LINE",
"459 223 OFFCURVE",
"446 178 OFFCURVE",
"408 72 CURVE",
"428 36 OFFCURVE",
"461 2 OFFCURVE",
"489 -14 CURVE",
"444 -44 LINE",
"456 -60 LINE"
);
}
);
width = 916;
},
{
associatedMasterId = "4AEC2A2F-21E0-4005-B5C4-61417F12BD89";
layerId = "27119AF4-CD88-4DD1-BB1C-E517A6CEA41C";
name = "5 apr 22, 08:58";
paths = (
{
closed = 1;
nodes = (
"73 -43 OFFCURVE",
"85 -46 OFFCURVE",
"90 -47 CURVE",
"278 63 OFFCURVE",
"532 351 OFFCURVE",
"556 560 CURVE",
"527 549 LINE",
"506 329 OFFCURVE",
"264 77 OFFCURVE",
"73 -38 CURVE"
);
},
{
closed = 1;
nodes = (
"402 -37 OFFCURVE",
"405 -46 OFFCURVE",
"410 -47 CURVE",
"598 63 OFFCURVE",
"850 351 OFFCURVE",
"876 560 CURVE SMOOTH",
"883 617 OFFCURVE",
"870 697 OFFCURVE",
"783 712 CURVE",
"780 707 LINE",
"864 684 OFFCURVE",
"852 619 OFFCURVE",
"847 566 CURVE SMOOTH",
"826 346 OFFCURVE",
"593 83 OFFCURVE",
"402 -32 CURVE"
);
},
{
closed = 1;
nodes = (
"709 631 LINE",
"767 639 OFFCURVE",
"844 554 OFFCURVE",
"855 513 CURVE",
"861 649 LINE",
"844 680 OFFCURVE",
"821 701 OFFCURVE",
"791 709 CURVE",
"783 712 LINE"
);
},
{
closed = 1;
nodes = (
"69 27 OFFCURVE",
"94 -6 OFFCURVE",
"126 -17 CURVE",
"164 12 LINE",
"155 12 OFFCURVE",
"148 18 OFFCURVE",
"148 26 CURVE",
"182 139 OFFCURVE",
"287 452 OFFCURVE",
"358 692 CURVE",
"333 700 LINE",
"252 700 LINE",
"53 73 LINE"
);
},
{
closed = 1;
nodes = (
"399 27 OFFCURVE",
"414 -6 OFFCURVE",
"446 -17 CURVE",
"484 12 LINE",
"475 12 OFFCURVE",
"468 18 OFFCURVE",
"468 26 CURVE",
"502 139 OFFCURVE",
"577 452 OFFCURVE",
"648 692 CURVE",
"623 700 LINE",
"552 700 LINE",
"383 73 LINE"
);
}
);
width = 832;
},
{
anchors = (
{
name = bottom;
position = "{370, 0}";
},
{
name = top;
position = "{636, 700}";
}
);
associatedMasterId = "B4D6250A-EC24-4DD5-8C49-5E627D155568";
layerId = "9052A35E-9ADC-49B9-978E-DCE810C009CB";
name = "12 apr 22, 23:30";
paths = (
{
closed = 1;
nodes = (
"435 -30 OFFCURVE",
"448 -46 OFFCURVE",
"453 -47 CURVE",
"641 63 OFFCURVE",
"893 351 OFFCURVE",
"919 560 CURVE SMOOTH",
"926 617 OFFCURVE",
"913 697 OFFCURVE",
"826 712 CURVE",
"823 707 LINE",
"907 684 OFFCURVE",
"878 631 OFFCURVE",
"873 578 CURVE SMOOTH",
"852 358 OFFCURVE",
"626 90 OFFCURVE",
"435 -25 CURVE"
);
},
{
closed = 1;
nodes = (
"746 613 LINE",
"808 603 OFFCURVE",
"875 492 OFFCURVE",
"886 451 CURVE",
"913 631 LINE",
"896 662 OFFCURVE",
"864 701 OFFCURVE",
"834 709 CURVE",
"826 712 LINE"
);
},
{
closed = 1;
nodes = (
"110 -27 OFFCURVE",
"123 -44 OFFCURVE",
"128 -45 CURVE",
"316 65 OFFCURVE",
"588 353 OFFCURVE",
"614 562 CURVE SMOOTH",
"615 570 OFFCURVE",
"615 576 OFFCURVE",
"615 582 CURVE SMOOTH",
"615 598 OFFCURVE",
"612 606 OFFCURVE",
"608 606 CURVE SMOOTH",
"603 606 OFFCURVE",
"598 617 OFFCURVE",
"596 591 CURVE SMOOTH",
"575 371 OFFCURVE",
"301 93 OFFCURVE",
"110 -22 CURVE"
);
},
{
closed = 1;
nodes = (
"66 29 OFFCURVE",
"132 -4 OFFCURVE",
"164 -15 CURVE",
"202 14 LINE",
"203 14 OFFCURVE",
"198 20 OFFCURVE",
"198 28 CURVE",
"219 91 OFFCURVE",
"358 530 OFFCURVE",
"410 693 CURVE",
"395 700 LINE",
"268 700 LINE",
"50 75 LINE"
);
},
{
closed = 1;
nodes = (
"409 29 OFFCURVE",
"451 -4 OFFCURVE",
"483 -15 CURVE",
"521 14 LINE",
"522 14 OFFCURVE",
"517 20 OFFCURVE",
"517 28 CURVE",
"538 91 OFFCURVE",
"647 530 OFFCURVE",
"699 693 CURVE",
"684 700 LINE",
"581 700 LINE",
"393 75 LINE"
);
}
);
width = 868;
}
);
leftKerningGroup = W;
leftMetricsKey = V;
rightKerningGroup = W;
rightMetricsKey = V;
unicode = 0057;
},
{
color = 3;
glyphname = X;
lastChange = "2022-04-12 22:08:57 +0000";
layers = (
{
hints = (
{
origin = "{0, 1}";
type = Corner;
name = _corner.leftSerif.cap;
},
{
origin = "{0, 2}";
type = Corner;
name = _corner.rightSerif.cap;
options = 1;
},
{
origin = "{0, 3}";
type = Corner;
name = _corner.leftSerif.cap;
},
{
origin = "{0, 0}";
type = Corner;
name = _corner.rightSerif.cap;
options = 1;
},
{
origin = "{2, 0}";
type = Corner;
name = _corner.leftSerif.cap;
},
{
origin = "{2, 1}";
type = Corner;
name = _corner.rightSerif.cap;
options = 1;
},
{
origin = "{1, 3}";
type = Corner;
name = _corner.leftSerif.cap;
},
{
origin = "{1, 0}";
type = Corner;
name = _corner.rightSerif.cap;
options = 1;
}
);
layerId = "4AEC2A2F-21E0-4005-B5C4-61417F12BD89";
paths = (
{
closed = 1;
nodes = (
"540 0 LINE",
"306 700 LINE",
"206 700 LINE",
"438 0 LINE"
);
},
{
closed = 1;
nodes = (
"62 0 LINE",
"348 324 LINE",
"340 348 LINE",
"32 0 LINE"
);
},
{
closed = 1;
nodes = (
"696 700 LINE",
"666 700 LINE",
"388 384 LINE",
"396 360 LINE"
);
}
);
width = 668;
},
{
associatedMasterId = "4AEC2A2F-21E0-4005-B5C4-61417F12BD89";
hints = (
{
origin = "{1, 1}";
type = Corner;
name = _corner.leftSerif.cap;
},
{
origin = "{1, 2}";
type = Corner;
name = _corner.rightSerif.cap;
options = 1;
},
{
origin = "{1, 3}";
type = Corner;
name = _corner.leftSerif.cap;
},
{
origin = "{1, 0}";
type = Corner;
name = _corner.rightSerif.cap;
options = 1;
},
{
origin = "{0, 1}";
type = Corner;
name = _corner.leftSerif.cap;
},
{
origin = "{0, 2}";
type = Corner;
name = _corner.rightSerif.cap;
options = 1;
},
{
origin = "{0, 3}";
type = Corner;
name = _corner.leftSerif.cap;
},
{
origin = "{0, 0}";
type = Corner;
name = _corner.rightSerif.cap;
options = 1;
}
);
layerId = "538898F3-5E91-4FC3-84E5-B3F63FF4ACC9";
name = "10 apr 22, 11:19";
paths = (
{
closed = 1;
nodes = (
"102 0 LINE",
"720 700 LINE",
"690 700 LINE",
"72 0 LINE"
);
},
{
closed = 1;
nodes = (
"568 0 LINE",
"334 700 LINE",
"234 700 LINE",
"466 0 LINE"
);
}
);
width = 740;
},
{
associatedMasterId = "4AEC2A2F-21E0-4005-B5C4-61417F12BD89";
layerId = "64374C76-A545-4E79-B2B3-DBA3196E8D53";
name = "5 apr 22, 08:51";
paths = (
{
closed = 1;
nodes = (
"453 0 LINE",
"280 700 LINE",
"175 700 LINE",
"346 0 LINE"
);
},
{
closed = 1;
nodes = (
"308 380 LINE",
"282 388 LINE",
"-30 0 LINE",
"8 0 LINE"
);
},
{
closed = 1;
nodes = (
"575 700 LINE",
"546 700 LINE",
"325 412 LINE",
"341 393 LINE"
);
}
);
width = 567;
},
{
hints = (
{
origin = "{0, 0}";
type = Corner;
name = _corner.rightSerif.cap;
options = 1;
},
{
origin = "{0, 1}";
type = Corner;
name = _corner.leftSerif.cap;
},
{
origin = "{0, 2}";
type = Corner;
name = _corner.rightSerif.cap;
options = 1;
},
{
origin = "{0, 3}";
type = Corner;
name = _corner.leftSerif.cap;
},
{
origin = "{1, 0}";
type = Corner;
name = _corner.rightSerif.cap;
options = 1;
},
{
origin = "{1, 3}";
type = Corner;
name = _corner.leftSerif.cap;
},
{
origin = "{2, 0}";
type = Corner;
name = _corner.leftSerif.cap;
},
{
origin = "{2, 1}";
type = Corner;
name = _corner.rightSerif.cap;
options = 1;
}
);
layerId = "B4D6250A-EC24-4DD5-8C49-5E627D155568";
paths = (
{
closed = 1;
nodes = (
"584 0 LINE",
"354 700 LINE",
"202 700 LINE",
"428 0 LINE"
);
},
{
closed = 1;
nodes = (
"54 0 LINE",
"360 320 LINE",
"352 344 LINE",
"18 0 LINE"
);
},
{
closed = 1;
nodes = (
"752 700 LINE",
"717 700 LINE",
"432 400 LINE",
"440 376 LINE"
);
}
);
width = 716;
},
{
associatedMasterId = "B4D6250A-EC24-4DD5-8C49-5E627D155568";
background = {
anchors = (
{
name = bottom;
position = "{186, 0}";
},
{
name = top;
position = "{400, 700}";
}
);
components = (
{
name = serif_maiuscolo;
transform = "{-1, 0, 0, -1, 703, 700}";
},
{
name = serif_maiuscolo;
transform = "{-1, 0, 0, -1, 284, 700}";
},
{
name = serif_maiusc_sinistra;
transform = "{1, 0, 0, 1, 87, 0}";
},
{
name = serif_maiusc_sinistra;
transform = "{1, 0, 0, 1, -244, 0}";
},
{
name = serif_maiuscolo;
transform = "{1, 0, 0, 1, 317, 0}";
},
{
name = serif_maiuscolo;
transform = "{1, 0, 0, 1, -61, 0}";
},
{
name = serif_maiusc_sinistra;
transform = "{-1, 0, 0, -1, 548, 700}";
},
{
name = serif_maiusc_sinistra;
transform = "{-1, 0, 0, -1, 836, 700}";
}
);
paths = (
{
closed = 1;
nodes = (
"477 0 LINE",
"304 700 LINE",
"149 700 LINE",
"320 0 LINE"
);
},
{
closed = 1;
nodes = (
"305 336 LINE",
"266 336 LINE",
"-39 0 LINE",
"12 0 LINE"
);
},
{
closed = 1;
nodes = (
"631 700 LINE",
"583 700 LINE",
"297 336 LINE",
"338 338 LINE"
);
}
);
};
hints = (
{
origin = "{1, 0}";
type = Corner;
name = _corner.rightSerif.cap;
options = 1;
},
{
origin = "{1, 1}";
type = Corner;
name = _corner.leftSerif.cap;
},
{
origin = "{1, 2}";
type = Corner;
name = _corner.rightSerif.cap;
options = 1;
},
{
origin = "{1, 3}";
type = Corner;
name = _corner.leftSerif.cap;
},
{
origin = "{0, 0}";
type = Corner;
name = _corner.rightSerif.cap;
options = 1;
},
{
origin = "{0, 3}";
type = Corner;
name = _corner.leftSerif.cap;
},
{
origin = "{0, 1}";
type = Corner;
name = _corner.leftSerif.cap;
},
{
origin = "{0, 2}";
type = Corner;
name = _corner.rightSerif.cap;
options = 1;
}
);
layerId = "E2292B73-4EEB-4316-9F38-AF5EECB5BEEB";
name = "12 apr 22, 20:45";
paths = (
{
closed = 1;
nodes = (
"116 0 LINE",
"780 700 LINE",
"746 700 LINE",
"82 0 LINE"
);
},
{
closed = 1;
nodes = (
"640 0 LINE",
"384 700 LINE",
"232 700 LINE",
"486 0 LINE"
);
}
);
width = 572;
},
{
anchors = (
{
name = bottom;
position = "{186, 0}";
},
{
name = top;
position = "{400, 700}";
}
);
associatedMasterId = "B4D6250A-EC24-4DD5-8C49-5E627D155568";
layerId = "511A2BA6-5126-44F5-A1F7-CD6CE645B802";
name = "12 apr 22, 20:42";
paths = (
{
closed = 1;
nodes = (
"477 0 LINE",
"304 700 LINE",
"149 700 LINE",
"320 0 LINE"
);
},
{
closed = 1;
nodes = (
"305 336 LINE",
"266 336 LINE",
"-39 0 LINE",
"12 0 LINE"
);
},
{
closed = 1;
nodes = (
"631 700 LINE",
"583 700 LINE",
"297 336 LINE",
"338 338 LINE"
);
}
);
width = 572;
}
);
leftKerningGroup = X;
rightKerningGroup = X;
unicode = 0058;
},
{
color = 3;
glyphname = Y;
lastChange = "2022-04-13 10:50:45 +0000";
layers = (
{
anchors = (
{
name = bottom;
position = "{238, 0}";
},
{
name = top;
position = "{460, 700}";
}
);
hints = (
{
origin = "{0, 0}";
type = Corner;
name = _corner.rightSerif.cap;
options = 1;
},
{
origin = "{0, 9}";
type = Corner;
name = _corner.leftSerif.cap;
},
{
origin = "{0, 2}";
type = Corner;
name = _corner.leftSerif.cap;
},
{
origin = "{0, 6}";
type = Corner;
name = _corner.leftSerif.cap;
},
{
origin = "{0, 7}";
type = Corner;
name = _corner.rightSerif.cap;
options = 1;
},
{
origin = "{0, 3}";
type = Corner;
name = _corner.rightSerif.cap;
options = 1;
}
);
layerId = "4AEC2A2F-21E0-4005-B5C4-61417F12BD89";
paths = (
{
closed = 1;
nodes = (
"336 0 LINE",
"416 296 LINE",
"672 700 LINE",
"646 700 LINE",
"408 324 LINE",
"404 324 LINE",
"292 700 LINE",
"194 700 LINE",
"316 292 LINE",
"238 0 LINE"
);
}
);
width = 620;
},
{
anchors = (
{
name = bottom;
position = "{253, 0}";
},
{
name = top;
position = "{488, 700}";
}
);
hints = (
{
origin = "{0, 0}";
type = Corner;
name = _corner.rightSerif.cap;
options = 1;
},
{
origin = "{0, 2}";
type = Corner;
name = _corner.leftSerif.cap;
},
{
origin = "{0, 3}";
type = Corner;
name = _corner.rightSerif.cap;
options = 1;
},
{
origin = "{0, 6}";
type = Corner;
name = _corner.leftSerif.cap;
},
{
origin = "{0, 7}";
type = Corner;
name = _corner.rightSerif.cap;
options = 1;
},
{
origin = "{0, 9}";
type = Corner;
name = _corner.leftSerif.cap;
}
);
layerId = "B4D6250A-EC24-4DD5-8C49-5E627D155568";
paths = (
{
closed = 1;
nodes = (
"370 0 LINE",
"448 292 LINE",
"702 700 LINE",
"672 700 LINE",
"440 328 LINE",
"432 328 LINE",
"334 700 LINE",
"186 700 LINE",
"296 284 LINE",
"220 0 LINE"
);
}
);
width = 656;
},
{
anchors = (
{
name = bottom;
position = "{155, 0}";
},
{
name = top;
position = "{450, 700}";
},
{
name = topleft;
position = "{162, 700}";
}
);
associatedMasterId = "4AEC2A2F-21E0-4005-B5C4-61417F12BD89";
layerId = "651FA760-44CE-4DE7-A6AF-9ECA4E86290E";
name = "4 apr 22, 23:25";
paths = (
{
closed = 1;
nodes = (
"180 0 LINE",
"280 0 LINE",
"374 314 LINE",
"279 328 LINE"
);
},
{
closed = 1;
nodes = (
"662 700 LINE",
"633 700 LINE",
"352 316 LINE",
"374 314 LINE"
);
},
{
closed = 1;
nodes = (
"351 317 LINE",
"358 317 LINE",
"362 327 LINE",
"314 700 LINE",
"228 700 LINE",
"277 321 LINE"
);
}
);
width = 523;
},
{
anchors = (
{
name = bottom;
position = "{256, 0}";
},
{
name = top;
position = "{420, 700}";
},
{
name = topleft;
position = "{150, 700}";
}
);
associatedMasterId = "B4D6250A-EC24-4DD5-8C49-5E627D155568";
layerId = "BD5F93EF-00C6-4A93-820D-8F2BFA7D0D05";
name = "12 apr 22, 18:50";
paths = (
{
closed = 1;
nodes = (
"127 0 LINE",
"277 0 LINE",
"371 314 LINE",
"226 328 LINE"
);
},
{
closed = 1;
nodes = (
"649 700 LINE",
"599 700 LINE",
"319 286 LINE",
"371 314 LINE"
);
},
{
closed = 1;
nodes = (
"318 287 LINE",
"325 287 LINE",
"371 314 LINE",
"328 700 LINE",
"175 700 LINE",
"226 321 LINE"
);
}
);
width = 492;
}
);
leftKerningGroup = Y;
rightKerningGroup = Y;
unicode = 0059;
},
{
color = 3;
glyphname = Z;
lastChange = "2022-04-13 10:51:00 +0000";
layers = (
{
anchors = (
{
name = top;
position = "{384, 700}";
}
);
layerId = "4AEC2A2F-21E0-4005-B5C4-61417F12BD89";
paths = (
{
closed = 1;
nodes = (
"466 0 LINE",
"510 208 LINE",
"498 208 LINE",
"378 16 LINE",
"94 16 LINE",
"94 0 LINE",
"622 684 LINE",
"610 700 LINE",
"150 700 LINE",
"114 500 LINE",
"126 500 LINE",
"238 684 LINE",
"518 684 LINE",
"518 700 LINE",
"-10 20 LINE",
"1 0 LINE"
);
}
);
width = 550;
},
{
anchors = (
{
name = top;
position = "{384, 700}";
}
);
layerId = "B4D6250A-EC24-4DD5-8C49-5E627D155568";
paths = (
{
closed = 1;
nodes = (
"481 0 LINE",
"530 232 LINE",
"514 236 LINE",
"368 24 LINE",
"140 24 LINE",
"140 0 LINE",
"626 668 LINE",
"612 700 LINE",
"147 700 LINE",
"108 472 LINE",
"124 468 LINE",
"264 676 LINE",
"468 676 LINE",
"468 692 LINE",
"-12 36 LINE",
"8 0 LINE"
);
}
);
width = 568;
},
{
associatedMasterId = "4AEC2A2F-21E0-4005-B5C4-61417F12BD89";
background = {
paths = (
{
closed = 1;
nodes = (
"56 466 LINE",
"224 700 LINE",
"126 725 LINE",
"33 466 LINE"
);
},
{
closed = 1;
nodes = (
"277 -28 LINE",
"282 -31 LINE",
"362 17 LINE",
"530 127 LINE",
"522 142 LINE",
"344 32 LINE",
"213 32 OFFCURVE",
"223 138 OFFCURVE",
"68 138 CURVE",
"-2 59 LINE"
);
},
{
closed = 1;
nodes = (
"-76 -6 OFFCURVE",
"-55 -6 OFFCURVE",
"-41 -3 CURVE",
"62 120 OFFCURVE",
"84 156 OFFCURVE",
"170 240 CURVE",
"253 240 OFFCURVE",
"592 546 OFFCURVE",
"592 708 CURVE",
"589 711 OFFCURVE",
"542 748 OFFCURVE",
"536 749 CURVE",
"466 666 LINE",
"126 725 LINE",
"128 693 LINE",
"229 702 OFFCURVE",
"425 653 OFFCURVE",
"446 648 CURVE",
"446 584 OFFCURVE",
"190 289 OFFCURVE",
"-13 65 CURVE",
"-34 40 OFFCURVE",
"-64 14 OFFCURVE",
"-89 -4 CURVE"
);
}
);
};
layerId = "1B9AE04E-C4B3-46D6-8229-B18FDF24CBC9";
name = "4 apr 22, 23:11";
paths = (
{
closed = 1;
nodes = (
"614 688 LINE",
"610 700 LINE",
"512 700 LINE",
"-28 14 LINE",
"-20 0 LINE",
"88 0 LINE"
);
},
{
closed = 1;
nodes = (
"181 685 LINE",
"499 684 LINE",
"514 700 LINE",
"186 700 LINE"
);
},
{
closed = 1;
nodes = (
"72 0 LINE",
"404 0 LINE",
"409 15 LINE",
"77 15 LINE"
);
},
{
closed = 1;
nodes = (
"478 203 LINE",
"470 205 LINE",
"315 14 LINE",
"404 0 LINE"
);
},
{
closed = 1;
nodes = (
"126 517 LINE",
"134 515 LINE",
"279 685 LINE",
"184 694 LINE"
);
}
);
width = 548;
},
{
anchors = (
{
name = bottom;
position = "{227, 0}";
},
{
name = center;
position = "{334, 350}";
},
{
name = top;
position = "{441, 700}";
}
);
associatedMasterId = "B4D6250A-EC24-4DD5-8C49-5E627D155568";
layerId = "3362C047-D1BE-4A9B-9FE0-7C741F4DD91F";
name = "12 apr 22, 18:30";
paths = (
{
closed = 1;
nodes = (
"642 688 LINE",
"638 700 LINE",
"484 700 LINE",
"-46 14 LINE",
"-38 0 LINE",
"126 0 LINE"
);
},
{
closed = 1;
nodes = (
"181 671 LINE",
"499 670 LINE",
"514 700 LINE",
"186 700 LINE"
);
},
{
closed = 1;
nodes = (
"72 0 LINE",
"404 0 LINE",
"409 30 LINE",
"77 30 LINE"
);
},
{
closed = 1;
nodes = (
"478 203 LINE",
"460 205 LINE",
"305 13 LINE",
"404 0 LINE"
);
},
{
closed = 1;
nodes = (
"126 517 LINE",
"143 515 LINE",
"288 688 LINE",
"186 700 LINE"
);
}
);
width = 600;
}
);
leftKerningGroup = Z;
rightKerningGroup = Z;
unicode = 005A;
},
{
export = 0;
glyphname = A.001;
lastChange = "2022-04-12 21:21:23 +0000";
layers = (
{
layerId = "4AEC2A2F-21E0-4005-B5C4-61417F12BD89";
paths = (
{
closed = 1;
nodes = (
"696 702 LINE",
"535 702 OFFCURVE",
"158 642 OFFCURVE",
"150 574 CURVE SMOOTH",
"143 523 OFFCURVE",
"212 476 OFFCURVE",
"245 475 CURVE",
"245 481 LINE",
"214 484 OFFCURVE",
"184 537 OFFCURVE",
"188 573 CURVE",
"199 647 OFFCURVE",
"592 690 OFFCURVE",
"637 690 CURVE"
);
},
{
closed = 1;
nodes = (
"229 251 OFFCURVE",
"187 296 OFFCURVE",
"187 300 CURVE",
"186 300 LINE",
"101 264 LINE",
"101 262 OFFCURVE",
"124 235 OFFCURVE",
"223 235 CURVE SMOOTH",
"511 228 LINE",
"536 244 LINE",
"299 251 LINE SMOOTH"
);
},
{
closed = 1;
nodes = (
"623 38 LINE",
"619 46 LINE",
"520 17 LINE",
"520 -3 LINE"
);
},
{
closed = 1;
nodes = (
"-114 -101 OFFCURVE",
"-77 -108 OFFCURVE",
"-50 -108 CURVE SMOOTH",
"-22 -108 OFFCURVE",
"586 626 OFFCURVE",
"607 651 CURVE",
"435 31 LINE",
"450 8 OFFCURVE",
"454 -3 OFFCURVE",
"482 -19 CURVE",
"527 0 LINE",
"706 689 LINE",
"696 702 LINE",
"611 693 LINE",
"56 23 LINE SMOOTH",
"29 -11 OFFCURVE",
"-19 -5 OFFCURVE",
"-54 -5 CURVE",
"-130 -87 LINE"
);
}
);
width = 687;
},
{
anchors = (
{
name = bottom;
position = "{-358, 0}";
},
{
name = ogonek;
position = "{-115, 10}";
},
{
name = top;
position = "{-144, 700}";
}
);
layerId = "B4D6250A-EC24-4DD5-8C49-5E627D155568";
width = 0;
}
);
leftKerningGroup = A.001;
leftMetricsKey = A;
rightKerningGroup = A.001;
rightMetricsKey = A;
},
{
export = 0;
glyphname = F.001;
lastChange = "2022-04-12 21:21:23 +0000";
layers = (
{
background = {
paths = (
{
closed = 1;
nodes = (
"76 0 LINE",
"176 0 LINE",
"385 700 LINE",
"285 700 LINE"
);
},
{
closed = 1;
nodes = (
"198 700 LINE",
"196 694 LINE",
"279 681 LINE",
"305 700 LINE"
);
},
{
closed = 1;
nodes = (
"81 19 LINE",
"0 6 LINE",
"-1 0 LINE",
"96 0 LINE"
);
},
{
closed = 1;
nodes = (
"293 0 LINE",
"294 6 LINE",
"181 19 LINE",
"156 0 LINE"
);
},
{
closed = 1;
nodes = (
"358 681 LINE",
"654 681 LINE",
"660 700 LINE",
"372 700 LINE"
);
},
{
closed = 1;
nodes = (
"251 324 LINE",
"497 324 LINE",
"504 343 LINE",
"266 343 LINE"
);
},
{
closed = 1;
nodes = (
"533 440 LINE",
"527 440 LINE",
"455 343 LINE",
"501 334 LINE"
);
},
{
closed = 1;
nodes = (
"560 689 LINE",
"590 690 OFFCURVE",
"627 553 OFFCURVE",
"633 516 CURVE",
"639 516 LINE",
"679 703 LINE"
);
},
{
closed = 1;
nodes = (
"449 325 LINE",
"463 228 LINE",
"469 228 LINE",
"501 334 LINE"
);
}
);
};
layerId = "4AEC2A2F-21E0-4005-B5C4-61417F12BD89";
paths = (
{
closed = 1;
nodes = (
"16 531 OFFCURVE",
"96 498 OFFCURVE",
"129 504 CURVE",
"128 510 LINE",
"97 506 OFFCURVE",
"53 552 OFFCURVE",
"53 588 CURVE SMOOTH",
"53 664 OFFCURVE",
"211 690 OFFCURVE",
"282 689 CURVE",
"44 -70 LINE",
"70 -70 OFFCURVE",
"163 -23 OFFCURVE",
"171 0 CURVE",
"270 324 LINE",
"450 324 LINE",
"464 228 LINE",
"470 228 LINE",
"499 324 LINE",
"505 343 LINE",
"535 440 LINE",
"529 440 LINE",
"456 343 LINE",
"276 343 LINE",
"379 681 LINE",
"568 681 LINE",
"593 651 OFFCURVE",
"613 547 OFFCURVE",
"619 516 CURVE",
"625 516 LINE",
"684 703 LINE",
"656 700 LINE",
"305 700 LINE",
"248 702 OFFCURVE",
"13 677 OFFCURVE",
"15 582 CURVE SMOOTH"
);
}
);
width = 553;
},
{
anchors = (
{
name = bottom;
position = "{227, 0}";
},
{
name = top;
position = "{441, 700}";
}
);
layerId = "B4D6250A-EC24-4DD5-8C49-5E627D155568";
width = 733;
}
);
leftKerningGroup = F.001;
rightKerningGroup = F.001;
rightMetricsKey = F;
},
{
export = 0;
glyphname = J.001;
lastChange = "2022-04-12 21:21:23 +0000";
layers = (
{
background = {
paths = (
{
closed = 1;
nodes = (
"412 662 LINE",
"427 635 OFFCURVE",
"415 584 OFFCURVE",
"407 557 CURVE",
"326 292 OFFCURVE",
"261 88 OFFCURVE",
"180 -178 CURVE",
"169 -204 OFFCURVE",
"146 -216 OFFCURVE",
"113 -216 CURVE",
"88 -216 OFFCURVE",
"60 -197 OFFCURVE",
"35 -172 CURVE",
"-45 -233 LINE",
"-25 -254 OFFCURVE",
"15 -271 OFFCURVE",
"59 -274 CURVE",
"128 -271 OFFCURVE",
"309 -96 OFFCURVE",
"334 -12 CURVE",
"326 11 OFFCURVE",
"477 446 OFFCURVE",
"524 611 CURVE",
"533 643 OFFCURVE",
"512 685 OFFCURVE",
"500 700 CURVE"
);
},
{
closed = 1;
nodes = (
"260 597 LINE",
"265 592 LINE",
"505 693 LINE",
"495 707 LINE"
);
}
);
};
layerId = "4AEC2A2F-21E0-4005-B5C4-61417F12BD89";
paths = (
{
closed = 1;
nodes = (
"514 668 OFFCURVE",
"476 700 OFFCURVE",
"447 700 CURVE",
"180 -178 LINE",
"169 -204 OFFCURVE",
"146 -216 OFFCURVE",
"113 -216 CURVE SMOOTH",
"88 -216 OFFCURVE",
"60 -197 OFFCURVE",
"35 -172 CURVE",
"-45 -233 LINE",
"-25 -254 OFFCURVE",
"15 -271 OFFCURVE",
"59 -274 CURVE",
"128 -271 OFFCURVE",
"309 -96 OFFCURVE",
"334 -12 CURVE",
"334 15 OFFCURVE",
"531 602 OFFCURVE",
"531 643 CURVE"
);
},
{
closed = 1;
nodes = (
"160 531 OFFCURVE",
"240 498 OFFCURVE",
"273 504 CURVE",
"272 510 LINE",
"241 506 OFFCURVE",
"197 552 OFFCURVE",
"197 588 CURVE SMOOTH",
"197 678 OFFCURVE",
"419 698 OFFCURVE",
"456 685 CURVE",
"449 700 LINE",
"392 702 OFFCURVE",
"157 677 OFFCURVE",
"159 582 CURVE SMOOTH"
);
}
);
width = 447;
},
{
anchors = (
{
name = bottom;
position = "{227, 0}";
},
{
name = top;
position = "{441, 700}";
}
);
layerId = "B4D6250A-EC24-4DD5-8C49-5E627D155568";
width = 1092;
}
);
leftKerningGroup = J.001;
rightKerningGroup = J.001;
rightMetricsKey = J;
},
{
export = 0;
glyphname = K.001;
lastChange = "2022-04-12 21:21:23 +0000";
layers = (
{
layerId = "4AEC2A2F-21E0-4005-B5C4-61417F12BD89";
paths = (
{
closed = 1;
nodes = (
"95 0 LINE",
"105 23 LINE",
"89 23 LINE",
"364 742 LINE",
"361 747 OFFCURVE",
"357 754 OFFCURVE",
"351 758 CURVE",
"148 680 LINE",
"151 672 LINE",
"254 708 LINE",
"-17 -3 LINE"
);
},
{
closed = 1;
nodes = (
"102 16 LINE",
"277 400 OFFCURVE",
"515 687 OFFCURVE",
"538 687 CURVE",
"696 713 LINE",
"696 740 LINE SMOOTH",
"696 760 OFFCURVE",
"654 781 OFFCURVE",
"612 780 CURVE",
"566 771 OFFCURVE",
"256 440 OFFCURVE",
"92 16 CURVE"
);
},
{
closed = 1;
nodes = (
"236 313 LINE",
"237 303 LINE",
"239 293 OFFCURVE",
"243 291 OFFCURVE",
"243 279 CURVE SMOOTH",
"243 199 OFFCURVE",
"404 -296 OFFCURVE",
"696 -296 CURVE SMOOTH",
"738 -296 OFFCURVE",
"840 -178 OFFCURVE",
"840 -64 CURVE SMOOTH",
"840 -48 OFFCURVE",
"779 10 OFFCURVE",
"764 10 CURVE",
"740 -7 OFFCURVE",
"715 -33 OFFCURVE",
"691 -61 CURVE",
"749 -61 OFFCURVE",
"790 -249 OFFCURVE",
"738 -249 CURVE SMOOTH",
"537 -249 OFFCURVE",
"329 166 OFFCURVE",
"329 329 CURVE"
);
}
);
width = 468;
},
{
anchors = (
{
name = bottom;
position = "{185, 0}";
},
{
name = top;
position = "{399, 700}";
}
);
layerId = "B4D6250A-EC24-4DD5-8C49-5E627D155568";
width = 558;
}
);
leftKerningGroup = K.001;
leftMetricsKey = H;
rightKerningGroup = K.001;
},
{
export = 0;
glyphname = N.001;
lastChange = "2022-04-12 21:21:23 +0000";
layers = (
{
layerId = "4AEC2A2F-21E0-4005-B5C4-61417F12BD89";
paths = (
{
closed = 1;
nodes = (
"340 0 LINE",
"363 155 LINE",
"256 703 LINE",
"190 700 LINE",
"171 700 LINE",
"170 661 LINE",
"301 0 LINE"
);
},
{
closed = 1;
nodes = (
"70 700 LINE",
"66 687 LINE",
"154 673 LINE",
"175 700 LINE"
);
},
{
closed = 1;
nodes = (
"351 0 LINE",
"396 157 OFFCURVE",
"567 529 OFFCURVE",
"567 649 CURVE SMOOTH",
"567 673 OFFCURVE",
"546 742 OFFCURVE",
"506 754 CURVE",
"488 747 OFFCURVE",
"412 705 OFFCURVE",
"393 688 CURVE",
"430 681 OFFCURVE",
"549 624 OFFCURVE",
"526 539 CURVE SMOOTH",
"485 377 OFFCURVE",
"381 201 OFFCURVE",
"325 0 CURVE"
);
},
{
closed = 1;
nodes = (
"-61 0 LINE",
"-95 -80 OFFCURVE",
"-192 -89 OFFCURVE",
"-226 -72 CURVE",
"-221 -97 OFFCURVE",
"-217 -177 OFFCURVE",
"-208 -194 CURVE",
"-168 -208 OFFCURVE",
"-110 -167 OFFCURVE",
"-94 -148 CURVE SMOOTH",
"-20 -55 OFFCURVE",
"141 546 OFFCURVE",
"186 698 CURVE",
"161 698 LINE"
);
}
);
width = 513;
},
{
anchors = (
{
name = bottom;
position = "{-1237, 0}";
},
{
name = top;
position = "{-1023, 700}";
}
);
layerId = "B4D6250A-EC24-4DD5-8C49-5E627D155568";
width = 0;
}
);
leftKerningGroup = N.001;
leftMetricsKey = J;
rightKerningGroup = N.001;
},
{
export = 0;
glyphname = R.001;
lastChange = "2022-04-12 21:21:23 +0000";
layers = (
{
layerId = "4AEC2A2F-21E0-4005-B5C4-61417F12BD89";
paths = (
{
closed = 1;
nodes = (
"336 672 LINE",
"347 680 OFFCURVE",
"376 684 OFFCURVE",
"393 685 CURVE",
"455 684 OFFCURVE",
"503 637 OFFCURVE",
"503 578 CURVE SMOOTH",
"503 468 OFFCURVE",
"437 338 OFFCURVE",
"295 338 CURVE SMOOTH",
"274 338 OFFCURVE",
"264 339 OFFCURVE",
"240 344 CURVE"
);
},
{
closed = 1;
nodes = (
"138 0 LINE",
"231 322 LINE",
"313 323 LINE",
"336 165 OFFCURVE",
"411 -296 OFFCURVE",
"735 -296 CURVE SMOOTH",
"777 -296 OFFCURVE",
"920 -167 OFFCURVE",
"919 -53 CURVE",
"919 -18 OFFCURVE",
"901 15 OFFCURVE",
"868 43 CURVE",
"844 26 OFFCURVE",
"819 0 OFFCURVE",
"795 -28 CURVE",
"853 -28 OFFCURVE",
"829 -258 OFFCURVE",
"777 -258 CURVE SMOOTH",
"576 -258 OFFCURVE",
"408 167 OFFCURVE",
"408 330 CURVE",
"370 326 LINE",
"465 347 OFFCURVE",
"599 494 OFFCURVE",
"599 584 CURVE SMOOTH",
"599 678 OFFCURVE",
"513 701 OFFCURVE",
"423 701 CURVE SMOOTH",
"158 700 LINE",
"156 694 LINE",
"237 674 LINE",
"43 26 LINE",
"-48 11 LINE",
"-52 0 LINE"
);
}
);
width = 568;
},
{
anchors = (
{
name = bottom;
position = "{272, 0}";
},
{
name = top;
position = "{486, 700}";
}
);
layerId = "B4D6250A-EC24-4DD5-8C49-5E627D155568";
width = 645;
}
);
leftKerningGroup = R.001;
leftMetricsKey = I;
rightKerningGroup = R.001;
},
{
export = 0;
glyphname = R.003;
lastChange = "2022-04-12 21:21:23 +0000";
layers = (
{
layerId = "4AEC2A2F-21E0-4005-B5C4-61417F12BD89";
paths = (
{
closed = 1;
nodes = (
"456 672 LINE",
"467 680 OFFCURVE",
"496 684 OFFCURVE",
"513 685 CURVE",
"575 684 OFFCURVE",
"623 637 OFFCURVE",
"623 578 CURVE SMOOTH",
"623 468 OFFCURVE",
"557 338 OFFCURVE",
"415 338 CURVE SMOOTH",
"394 338 OFFCURVE",
"384 339 OFFCURVE",
"360 344 CURVE"
);
},
{
closed = 1;
nodes = (
"258 0 LINE",
"351 322 LINE",
"433 323 LINE",
"433 298 OFFCURVE",
"512 -26 OFFCURVE",
"577 -26 CURVE",
"702 54 LINE",
"697 60 LINE",
"648 30 LINE",
"603 30 OFFCURVE",
"528 304 OFFCURVE",
"528 330 CURVE",
"490 326 LINE",
"585 347 OFFCURVE",
"719 494 OFFCURVE",
"719 584 CURVE SMOOTH",
"719 678 OFFCURVE",
"633 701 OFFCURVE",
"543 701 CURVE SMOOTH",
"415 700 LINE",
"358 702 OFFCURVE",
"123 677 OFFCURVE",
"125 582 CURVE SMOOTH",
"126 531 OFFCURVE",
"206 498 OFFCURVE",
"239 504 CURVE",
"238 510 LINE",
"207 506 OFFCURVE",
"171 552 OFFCURVE",
"171 588 CURVE SMOOTH",
"171 656 OFFCURVE",
"292 684 OFFCURVE",
"368 688 CURVE",
"364 687 LINE",
"163 26 LINE",
"72 11 LINE",
"68 0 LINE"
);
}
);
width = 730;
},
{
anchors = (
{
name = bottom;
position = "{272, 0}";
},
{
name = top;
position = "{486, 700}";
}
);
layerId = "B4D6250A-EC24-4DD5-8C49-5E627D155568";
width = 645;
}
);
leftKerningGroup = R.003;
leftMetricsKey = I;
rightKerningGroup = R.003;
},
{
export = 0;
glyphname = T.002;
lastChange = "2022-04-12 21:21:20 +0000";
layers = (
{
layerId = "4AEC2A2F-21E0-4005-B5C4-61417F12BD89";
paths = (
{
closed = 1;
nodes = (
"204 0 LINE",
"304 0 LINE",
"513 700 LINE",
"413 700 LINE"
);
},
{
closed = 1;
nodes = (
"214 36 LINE",
"88 6 LINE",
"87 0 LINE",
"224 0 LINE"
);
},
{
closed = 1;
nodes = (
"421 0 LINE",
"422 6 LINE",
"314 36 LINE",
"284 0 LINE"
);
},
{
closed = 1;
nodes = (
"767 746 LINE",
"699 700 OFFCURVE",
"664 700 OFFCURVE",
"606 700 CURVE SMOOTH",
"464 700 LINE",
"458 681 LINE",
"508 681 LINE",
"586 678 OFFCURVE",
"642 653 OFFCURVE",
"701 642 CURVE",
"781 745 LINE"
);
},
{
closed = 1;
nodes = (
"98 506 OFFCURVE",
"109 488 OFFCURVE",
"121 488 CURVE",
"200 568 LINE",
"180 568 OFFCURVE",
"166 599 OFFCURVE",
"166 646 CURVE SMOOTH",
"166 674 OFFCURVE",
"338 681 OFFCURVE",
"411 681 CURVE SMOOTH",
"458 681 LINE",
"464 700 LINE",
"229 700 LINE SMOOTH",
"170 700 OFFCURVE",
"98 616 OFFCURVE",
"98 532 CURVE SMOOTH"
);
}
);
width = 505;
},
{
anchors = (
{
name = bottom;
position = "{245, 0}";
},
{
name = center;
position = "{352, 350}";
},
{
name = top;
position = "{459, 700}";
}
);
layerId = "B4D6250A-EC24-4DD5-8C49-5E627D155568";
width = 618;
}
);
leftKerningGroup = T.002;
leftMetricsKey = T;
rightKerningGroup = T.002;
},
{
export = 0;
glyphname = T.003;
lastChange = "2022-04-12 21:21:23 +0000";
layers = (
{
layerId = "4AEC2A2F-21E0-4005-B5C4-61417F12BD89";
paths = (
{
closed = 1;
nodes = (
"150 0 LINE",
"250 0 LINE",
"459 700 LINE",
"359 700 LINE"
);
},
{
closed = 1;
nodes = (
"160 36 LINE",
"34 6 LINE",
"33 0 LINE",
"170 0 LINE"
);
},
{
closed = 1;
nodes = (
"367 0 LINE",
"368 6 LINE",
"260 36 LINE",
"230 0 LINE"
);
},
{
closed = 1;
nodes = (
"237 681 LINE",
"404 681 LINE",
"410 700 LINE",
"243 700 LINE"
);
},
{
closed = 1;
nodes = (
"86 515 LINE",
"92 515 LINE",
"120 552 OFFCURVE",
"249 700 OFFCURVE",
"278 699 CURVE",
"236 700 LINE SMOOTH",
"226 700 OFFCURVE",
"191 702 OFFCURVE",
"178 704 CURVE",
"165 704 LINE"
);
},
{
closed = 1;
nodes = (
"410 700 LINE",
"404 681 LINE",
"581 681 LINE",
"587 700 LINE"
);
},
{
closed = 1;
nodes = (
"720 829 OFFCURVE",
"709 847 OFFCURVE",
"697 847 CURVE",
"619 778 LINE",
"619 777 LINE",
"638 766 OFFCURVE",
"652 745 OFFCURVE",
"652 725 CURVE SMOOTH",
"652 697 OFFCURVE",
"480 700 OFFCURVE",
"407 700 CURVE SMOOTH",
"360 700 LINE",
"354 681 LINE",
"589 681 LINE SMOOTH",
"653 681 OFFCURVE",
"720 719 OFFCURVE",
"720 803 CURVE SMOOTH"
);
}
);
width = 565;
},
{
anchors = (
{
name = bottom;
position = "{245, 0}";
},
{
name = center;
position = "{352, 350}";
},
{
name = top;
position = "{459, 700}";
}
);
layerId = "B4D6250A-EC24-4DD5-8C49-5E627D155568";
width = 600;
}
);
leftKerningGroup = T.003;
leftMetricsKey = T;
rightKerningGroup = T.003;
rightMetricsKey = T;
},
{
export = 0;
glyphname = T.004;
lastChange = "2022-04-12 21:21:20 +0000";
layers = (
{
layerId = "4AEC2A2F-21E0-4005-B5C4-61417F12BD89";
paths = (
{
closed = 1;
nodes = (
"217 681 LINE",
"384 681 LINE",
"390 700 LINE",
"223 700 LINE"
);
},
{
closed = 1;
nodes = (
"390 700 LINE",
"384 681 LINE",
"561 681 LINE",
"581 700 LINE"
);
},
{
closed = 1;
nodes = (
"98 506 OFFCURVE",
"109 488 OFFCURVE",
"121 488 CURVE",
"199 567 LINE",
"199 568 LINE",
"180 569 OFFCURVE",
"166 600 OFFCURVE",
"166 646 CURVE SMOOTH",
"166 674 OFFCURVE",
"338 681 OFFCURVE",
"411 681 CURVE SMOOTH",
"458 681 LINE",
"464 700 LINE",
"229 700 LINE SMOOTH",
"170 700 OFFCURVE",
"98 616 OFFCURVE",
"98 532 CURVE SMOOTH"
);
},
{
closed = 1;
nodes = (
"204 0 LINE",
"304 0 LINE",
"513 700 LINE",
"413 700 LINE"
);
},
{
closed = 1;
nodes = (
"214 36 LINE",
"88 6 LINE",
"87 0 LINE",
"224 0 LINE"
);
},
{
closed = 1;
nodes = (
"421 0 LINE",
"422 6 LINE",
"314 36 LINE",
"284 0 LINE"
);
},
{
closed = 1;
nodes = (
"814 829 OFFCURVE",
"803 847 OFFCURVE",
"791 847 CURVE",
"713 778 LINE",
"713 777 LINE",
"732 766 OFFCURVE",
"746 745 OFFCURVE",
"746 725 CURVE SMOOTH",
"746 697 OFFCURVE",
"574 700 OFFCURVE",
"501 700 CURVE SMOOTH",
"454 700 LINE",
"448 681 LINE",
"683 681 LINE SMOOTH",
"747 681 OFFCURVE",
"814 719 OFFCURVE",
"814 803 CURVE SMOOTH"
);
}
);
width = 527;
},
{
anchors = (
{
name = bottom;
position = "{245, 0}";
},
{
name = center;
position = "{352, 350}";
},
{
name = top;
position = "{459, 700}";
}
);
layerId = "B4D6250A-EC24-4DD5-8C49-5E627D155568";
width = 618;
}
);
leftKerningGroup = T.004;
leftMetricsKey = T;
rightKerningGroup = T.004;
},
{
export = 0;
glyphname = Z.001;
lastChange = "2022-04-02 17:44:42 +0000";
layers = (
{
layerId = "4AEC2A2F-21E0-4005-B5C4-61417F12BD89";
paths = (
{
closed = 1;
nodes = (
"108 466 LINE",
"276 700 LINE",
"178 725 LINE",
"85 466 LINE"
);
},
{
closed = 1;
nodes = (
"329 -28 LINE",
"334 -31 LINE",
"414 17 LINE",
"582 127 LINE",
"574 142 LINE",
"396 32 LINE",
"265 32 OFFCURVE",
"275 138 OFFCURVE",
"120 138 CURVE",
"50 59 LINE"
);
},
{
closed = 1;
nodes = (
"-24 -6 OFFCURVE",
"-3 -6 OFFCURVE",
"11 -3 CURVE",
"114 120 OFFCURVE",
"136 156 OFFCURVE",
"222 240 CURVE",
"305 240 OFFCURVE",
"644 546 OFFCURVE",
"644 708 CURVE",
"641 711 OFFCURVE",
"594 748 OFFCURVE",
"588 749 CURVE",
"518 666 LINE",
"178 725 LINE",
"180 693 LINE",
"281 702 OFFCURVE",
"477 653 OFFCURVE",
"498 648 CURVE",
"498 584 OFFCURVE",
"242 289 OFFCURVE",
"39 65 CURVE",
"18 40 OFFCURVE",
"-12 14 OFFCURVE",
"-37 -4 CURVE"
);
}
);
width = 600;
},
{
anchors = (
{
name = bottom;
position = "{227, 0}";
},
{
name = center;
position = "{334, 350}";
},
{
name = top;
position = "{441, 700}";
}
);
layerId = "B4D6250A-EC24-4DD5-8C49-5E627D155568";
width = 600;
}
);
leftKerningGroup = Z.001;
rightKerningGroup = Z.001;
},
{
export = 0;
glyphname = T_h.liga;
lastChange = "2022-04-12 21:21:23 +0000";
layers = (
{
layerId = "4AEC2A2F-21E0-4005-B5C4-61417F12BD89";
paths = (
{
closed = 1;
nodes = (
"130 0 LINE",
"230 0 LINE",
"439 700 LINE",
"339 700 LINE"
);
},
{
closed = 1;
nodes = (
"140 36 LINE",
"14 6 LINE",
"13 0 LINE",
"150 0 LINE"
);
},
{
closed = 1;
nodes = (
"347 0 LINE",
"348 6 LINE",
"240 36 LINE",
"210 0 LINE"
);
},
{
closed = 1;
nodes = (
"217 681 LINE",
"384 681 LINE",
"390 700 LINE",
"223 700 LINE"
);
},
{
closed = 1;
nodes = (
"86 515 LINE",
"92 515 LINE",
"120 552 OFFCURVE",
"249 700 OFFCURVE",
"278 699 CURVE",
"236 700 LINE SMOOTH",
"226 700 OFFCURVE",
"191 702 OFFCURVE",
"178 704 CURVE",
"165 704 LINE"
);
},
{
closed = 1;
nodes = (
"714 706 OFFCURVE",
"607 700 OFFCURVE",
"390 700 CURVE",
"384 681 LINE",
"683 679 LINE",
"796 750 LINE"
);
},
{
closed = 1;
nodes = (
"576 22 LINE",
"812 732 LINE",
"810 738 OFFCURVE",
"801 746 OFFCURVE",
"796 750 CURVE",
"652 687 LINE",
"652 679 LINE",
"705 701 LINE",
"477 -7 LINE",
"579 0 LINE",
"588 22 LINE"
);
},
{
closed = 1;
nodes = (
"585 16 LINE",
"588 22 LINE SMOOTH",
"665 190 OFFCURVE",
"809 419 OFFCURVE",
"850 436 CURVE",
"868 430 OFFCURVE",
"876 421 OFFCURVE",
"876 404 CURVE SMOOTH",
"876 369 OFFCURVE",
"775 89 OFFCURVE",
"775 31 CURVE",
"790 8 OFFCURVE",
"808 -9 OFFCURVE",
"833 -19 CURVE",
"975 54 LINE",
"971 60 LINE",
"861 7 LINE",
"863 39 OFFCURVE",
"978 338 OFFCURVE",
"978 398 CURVE SMOOTH",
"978 444 OFFCURVE",
"950 484 OFFCURVE",
"890 485 CURVE",
"823 479 OFFCURVE",
"656 196 OFFCURVE",
"579 22 CURVE"
);
}
);
width = 1036;
},
{
anchors = (
{
name = bottom_1;
position = "{95, 0}";
},
{
name = bottom_2;
position = "{395, 0}";
},
{
name = caret_1;
position = "{318, 0}";
},
{
name = center_1;
position = "{202, 350}";
},
{
name = center_2;
position = "{502, 350}";
},
{
name = top_1;
position = "{309, 700}";
},
{
name = top_2;
position = "{609, 700}";
}
);
layerId = "B4D6250A-EC24-4DD5-8C49-5E627D155568";
width = 206;
}
);
leftKerningGroup = T;
leftMetricsKey = T;
rightKerningGroup = T_h.liga;
rightMetricsKey = h;
},
{
export = 0;
glyphname = T_i.dlig;
lastChange = "2022-04-12 21:21:23 +0000";
layers = (
{
components = (
{
name = T.004;
}
);
layerId = "4AEC2A2F-21E0-4005-B5C4-61417F12BD89";
paths = (
{
closed = 1;
nodes = (
"588 11 OFFCURVE",
"600 -2 OFFCURVE",
"624 -20 CURVE",
"754 54 LINE",
"751 60 LINE",
"648 8 LINE",
"786 473 LINE",
"775 475 LINE",
"602 418 LINE",
"604 412 LINE",
"688 437 LINE",
"570 41 LINE"
);
}
);
width = 823;
},
{
anchors = (
{
name = bottom_1;
position = "{95, 0}";
},
{
name = bottom_2;
position = "{395, 0}";
},
{
name = caret_1;
position = "{318, 0}";
},
{
name = center_1;
position = "{202, 350}";
},
{
name = center_2;
position = "{502, 350}";
},
{
name = top_1;
position = "{309, 700}";
},
{
name = top_2;
position = "{609, 700}";
}
);
layerId = "B4D6250A-EC24-4DD5-8C49-5E627D155568";
width = 486;
}
);
leftKerningGroup = T;
leftMetricsKey = T;
rightKerningGroup = T_i.dlig;
rightMetricsKey = i;
},
{
glyphname = a;
lastChange = "2022-04-14 12:29:31 +0000";
layers = (
{
anchors = (
{
name = ogonek;
position = "{315, 0}";
},
{
name = top;
position = "{298, 470}";
}
);
hints = (
{
origin = "{0, 0}";
scale = "{1.48, 1}";
type = Corner;
name = _corner.rightSerif;
options = 1;
}
);
layerId = "4AEC2A2F-21E0-4005-B5C4-61417F12BD89";
paths = (
{
closed = 1;
nodes = (
"315 0 LINE",
"443 448 LINE",
"409 465 OFFCURVE",
"345 484 OFFCURVE",
"307 484 CURVE",
"147 432 OFFCURVE",
"9 272 OFFCURVE",
"9 128 CURVE SMOOTH",
"9 60 OFFCURVE",
"47 2 OFFCURVE",
"103 -14 CURVE",
"187 46 OFFCURVE",
"260 219 OFFCURVE",
"339 395 CURVE",
"343 395 LINE",
"231 12 LINE",
"293 -16 LINE"
);
},
{
closed = 1;
nodes = (
"116 72 OFFCURVE",
"99 119 OFFCURVE",
"99 180 CURVE SMOOTH",
"99 290 OFFCURVE",
"153 400 OFFCURVE",
"252 441 CURVE",
"288 441 OFFCURVE",
"307 432 OFFCURVE",
"334 416 CURVE",
"294 317 OFFCURVE",
"204 112 OFFCURVE",
"144 64 CURVE"
);
}
);
width = 464;
},
{
anchors = (
{
name = bottom;
position = "{178, 0}";
},
{
name = ogonek;
position = "{254, 10}";
},
{
name = top;
position = "{332, 470}";
}
);
associatedMasterId = "4AEC2A2F-21E0-4005-B5C4-61417F12BD89";
layerId = "F75E5856-7CF5-4256-AD61-E3A2A8863198";
name = "29 mar 22, 21:05";
paths = (
{
closed = 1;
nodes = (
"461 447 LINE",
"427 464 OFFCURVE",
"358 489 OFFCURVE",
"320 484 CURVE",
"248 480 OFFCURVE",
"9 285 OFFCURVE",
"9 122 CURVE SMOOTH",
"9 70 OFFCURVE",
"44 3 OFFCURVE",
"101 -7 CURVE",
"146 53 OFFCURVE",
"319 317 OFFCURVE",
"350 395 CURVE",
"353 395 LINE",
"232 5 LINE",
"235 0 OFFCURVE",
"243 -8 OFFCURVE",
"248 -12 CURVE",
"332 21 LINE"
);
},
{
closed = 1;
nodes = (
"106 219 OFFCURVE",
"207 441 OFFCURVE",
"255 441 CURVE",
"291 445 OFFCURVE",
"324 432 OFFCURVE",
"351 416 CURVE",
"340 395 LINE",
"311 322 OFFCURVE",
"142 76 OFFCURVE",
"134 73 CURVE",
"114 76 OFFCURVE",
"106 100 OFFCURVE",
"106 134 CURVE SMOOTH"
);
},
{
closed = 1;
nodes = (
"248 -12 LINE",
"401 41 LINE",
"405 54 LINE",
"254 2 LINE"
);
}
);
width = 442;
},
{
anchors = (
{
name = ogonek;
position = "{386, 0}";
},
{
name = top;
position = "{348, 490}";
}
);
hints = (
{
origin = "{0, 0}";
scale = "{1.48, 1}";
type = Corner;
name = _corner.rightSerif;
options = 1;
}
);
layerId = "B4D6250A-EC24-4DD5-8C49-5E627D155568";
paths = (
{
closed = 1;
nodes = (
"392 4 LINE",
"516 448 LINE",
"468 476 OFFCURVE",
"402 496 OFFCURVE",
"342 504 CURVE",
"174 452 OFFCURVE",
"12 304 OFFCURVE",
"12 140 CURVE SMOOTH",
"12 54 OFFCURVE",
"59 -6 OFFCURVE",
"133 -14 CURVE",
"220 49 OFFCURVE",
"280 208 OFFCURVE",
"360 416 CURVE",
"368 414 LINE",
"257 24 LINE",
"360 -18 LINE"
);
},
{
closed = 1;
nodes = (
"169 108 OFFCURVE",
"155 143 OFFCURVE",
"155 184 CURVE SMOOTH",
"155 317 OFFCURVE",
"212 424 OFFCURVE",
"292 464 CURVE",
"314 460 OFFCURVE",
"332 450 OFFCURVE",
"348 436 CURVE",
"308 328 OFFCURVE",
"256 180 OFFCURVE",
"192 96 CURVE"
);
}
);
width = 548;
},
{
anchors = (
{
name = ogonek;
position = "{400, 0}";
},
{
name = top;
position = "{328, 490}";
}
);
associatedMasterId = "B4D6250A-EC24-4DD5-8C49-5E627D155568";
background = {
hints = (
{
origin = "{0, 3}";
scale = "{1.4, 1}";
type = Corner;
name = _corner.rightSerif;
options = 1;
}
);
paths = (
{
closed = 0;
nodes = (
"340 316 LINE SMOOTH",
"259 24 LINE",
"363 -18 LINE",
"395 4 LINE",
"486 332 LINE SMOOTH"
);
}
);
};
hints = (
{
origin = "{0, 0}";
scale = "{1.48, 1}";
type = Corner;
name = _corner.rightSerif;
options = 1;
}
);
layerId = "38B056A8-70BE-4C3D-8E29-D355AEE98868";
name = "10 apr 22, 13:27";
paths = (
{
closed = 1;
nodes = (
"395 4 LINE",
"520 460 LINE",
"476 484 OFFCURVE",
"403 504 OFFCURVE",
"344 504 CURVE",
"176 452 OFFCURVE",
"12 304 OFFCURVE",
"12 152 CURVE SMOOTH",
"12 63 OFFCURVE",
"63 -4 OFFCURVE",
"135 -14 CURVE",
"222 49 OFFCURVE",
"280 204 OFFCURVE",
"360 412 CURVE",
"364 411 LINE",
"258 36 LINE",
"363 -18 LINE"
);
},
{
closed = 1;
nodes = (
"171 108 OFFCURVE",
"156 143 OFFCURVE",
"156 184 CURVE SMOOTH",
"156 317 OFFCURVE",
"216 424 OFFCURVE",
"296 464 CURVE",
"314 464 OFFCURVE",
"334 452 OFFCURVE",
"350 436 CURVE",
"310 328 OFFCURVE",
"258 180 OFFCURVE",
"194 96 CURVE"
);
}
);
width = 551;
},
{
anchors = (
{
name = bottom;
position = "{176, 0}";
},
{
name = ogonek;
position = "{269, 7}";
},
{
name = top;
position = "{349, 495}";
}
);
associatedMasterId = "B4D6250A-EC24-4DD5-8C49-5E627D155568";
layerId = "4DA15BD8-21D7-4353-AE4E-5A47ACFB4531";
name = "9 apr 22, 15:44";
paths = (
{
closed = 1;
nodes = (
"155 40 OFFCURVE",
"336 336 OFFCURVE",
"367 414 CURVE",
"370 414 LINE",
"241 2 LINE",
"243 -4 OFFCURVE",
"252 -11 OFFCURVE",
"257 -15 CURVE",
"383 33 LINE",
"524 459 LINE",
"490 476 OFFCURVE",
"398 503 OFFCURVE",
"337 503 CURVE",
"251 503 OFFCURVE",
"-20 282 OFFCURVE",
"-20 119 CURVE SMOOTH",
"-20 67 OFFCURVE",
"24 -10 OFFCURVE",
"110 -20 CURVE"
);
},
{
closed = 1;
nodes = (
"484 55 LINE",
"490 76 LINE",
"272 8 LINE",
"257 -15 LINE"
);
},
{
closed = 1;
nodes = (
"145 87 OFFCURVE",
"137 111 OFFCURVE",
"137 145 CURVE",
"137 230 OFFCURVE",
"229 450 OFFCURVE",
"272 450 CURVE",
"308 454 OFFCURVE",
"341 441 OFFCURVE",
"368 425 CURVE",
"370 474 LINE",
"341 401 OFFCURVE",
"161 87 OFFCURVE",
"153 84 CURVE"
);
}
);
width = 528;
}
);
leftKerningGroup = o;
rightKerningGroup = idotless;
rightMetricsKey = n;
unicode = 0061;
},
{
color = 3;
glyphname = ae;
lastChange = "2022-04-14 12:29:00 +0000";
layers = (
{
components = (
{
name = e;
transform = "{1, 0, 0, 1, 250, 0}";
}
);
layerId = "4AEC2A2F-21E0-4005-B5C4-61417F12BD89";
paths = (
{
closed = 1;
nodes = (
"167 32 OFFCURVE",
"224 142 OFFCURVE",
"283 270 CURVE",
"287 270 LINE",
"448 444 LINE",
"414 461 OFFCURVE",
"345 484 OFFCURVE",
"307 484 CURVE",
"147 432 OFFCURVE",
"9 272 OFFCURVE",
"9 128 CURVE SMOOTH",
"9 60 OFFCURVE",
"47 2 OFFCURVE",
"103 -14 CURVE"
);
},
{
closed = 1;
nodes = (
"116 72 OFFCURVE",
"99 119 OFFCURVE",
"99 180 CURVE SMOOTH",
"99 290 OFFCURVE",
"153 400 OFFCURVE",
"252 441 CURVE",
"288 441 OFFCURVE",
"307 432 OFFCURVE",
"334 416 CURVE",
"294 317 OFFCURVE",
"204 112 OFFCURVE",
"144 64 CURVE"
);
}
);
width = 622;
},
{
background = {
paths = (
{
closed = 1;
nodes = (
"115 31 OFFCURVE",
"88 64 OFFCURVE",
"89 124 CURVE SMOOTH",
"94 265 OFFCURVE",
"208 466 OFFCURVE",
"258 466 CURVE SMOOTH",
"299 466 OFFCURVE",
"308 433 OFFCURVE",
"306 379 CURVE SMOOTH",
"302 264 OFFCURVE",
"219 31 OFFCURVE",
"126 31 CURVE SMOOTH"
);
},
{
closed = 1;
nodes = (
"216 1 OFFCURVE",
"327 124 OFFCURVE",
"420 392 CURVE",
"420 470 OFFCURVE",
"339 494 OFFCURVE",
"302 494 CURVE SMOOTH",
"152 495 OFFCURVE",
"-28 275 OFFCURVE",
"-33 114 CURVE SMOOTH",
"-36 45 OFFCURVE",
"20 4 OFFCURVE",
"79 3 CURVE SMOOTH"
);
},
{
closed = 1;
nodes = (
"258 68 OFFCURVE",
"317 5 OFFCURVE",
"403 -7 CURVE",
"458 11 OFFCURVE",
"545 70 OFFCURVE",
"575 88 CURVE",
"571 107 LINE",
"540 87 OFFCURVE",
"497 60 OFFCURVE",
"452 34 CURVE",
"402 40 OFFCURVE",
"373 74 OFFCURVE",
"373 153 CURVE SMOOTH",
"373 164 OFFCURVE",
"373 176 OFFCURVE",
"374 189 CURVE",
"436 189 OFFCURVE",
"673 318 OFFCURVE",
"673 432 CURVE SMOOTH",
"673 466 OFFCURVE",
"611 493 OFFCURVE",
"600 493 CURVE",
"458 504 OFFCURVE",
"265 311 OFFCURVE",
"260 140 CURVE SMOOTH"
);
},
{
closed = 1;
nodes = (
"379 313 OFFCURVE",
"474 466 OFFCURVE",
"554 466 CURVE SMOOTH",
"561 466 OFFCURVE",
"566 457 OFFCURVE",
"566 442 CURVE SMOOTH",
"566 377 OFFCURVE",
"420 201 OFFCURVE",
"375 201 CURVE"
);
}
);
};
components = (
{
name = e;
transform = "{1, 0, 0, 1, 282, 0}";
}
);
layerId = "B4D6250A-EC24-4DD5-8C49-5E627D155568";
paths = (
{
closed = 1;
nodes = (
"197 32 OFFCURVE",
"247 131 OFFCURVE",
"300 263 CURVE",
"308 261 LINE",
"516 448 LINE",
"468 476 OFFCURVE",
"402 496 OFFCURVE",
"342 504 CURVE",
"174 452 OFFCURVE",
"12 304 OFFCURVE",
"12 140 CURVE SMOOTH",
"12 54 OFFCURVE",
"59 -6 OFFCURVE",
"133 -14 CURVE"
);
},
{
closed = 1;
nodes = (
"169 108 OFFCURVE",
"155 143 OFFCURVE",
"155 184 CURVE SMOOTH",
"155 317 OFFCURVE",
"212 424 OFFCURVE",
"292 464 CURVE",
"314 460 OFFCURVE",
"332 450 OFFCURVE",
"348 436 CURVE",
"308 328 OFFCURVE",
"256 180 OFFCURVE",
"192 96 CURVE"
);
}
);
width = 710;
}
);
leftKerningGroup = o;
leftMetricsKey = a;
rightKerningGroup = c;
rightMetricsKey = e;
unicode = 00E6;
},
{
glyphname = b;
lastChange = "2022-04-14 12:29:31 +0000";
layers = (
{
hints = (
{
origin = "{0, 12}";
type = Corner;
name = _corner.rightSerif;
options = 1;
}
);
layerId = "4AEC2A2F-21E0-4005-B5C4-61417F12BD89";
paths = (
{
closed = 1;
nodes = (
"300 38 OFFCURVE",
"445 198 OFFCURVE",
"445 342 CURVE SMOOTH",
"445 414 OFFCURVE",
"405 468 OFFCURVE",
"345 484 CURVE",
"261 424 OFFCURVE",
"188 248 OFFCURVE",
"109 72 CURVE",
"105 72 LINE",
"302 760 LINE",
"284 766 LINE",
"208 736 LINE",
"20 72 LINE",
"-26 56 LINE",
"-30 36 LINE",
"18 8 OFFCURVE",
"96 -14 OFFCURVE",
"140 -14 CURVE"
);
},
{
closed = 1;
nodes = (
"168 36 OFFCURVE",
"147 44 OFFCURVE",
"120 60 CURVE",
"160 156 OFFCURVE",
"245 356 OFFCURVE",
"305 408 CURVE",
"337 396 OFFCURVE",
"355 354 OFFCURVE",
"355 300 CURVE SMOOTH",
"355 196 OFFCURVE",
"304 76 OFFCURVE",
"204 36 CURVE"
);
}
);
width = 461;
},
{
associatedMasterId = "4AEC2A2F-21E0-4005-B5C4-61417F12BD89";
background = {
paths = (
{
closed = 1;
nodes = (
"28 20 OFFCURVE",
"128 -19 OFFCURVE",
"166 -14 CURVE",
"238 -10 OFFCURVE",
"482 188 OFFCURVE",
"482 351 CURVE SMOOTH",
"482 403 OFFCURVE",
"452 471 OFFCURVE",
"395 483 CURVE",
"348 425 OFFCURVE",
"157 153 OFFCURVE",
"126 75 CURVE",
"124 75 LINE",
"356 752 LINE",
"350 758 LINE",
"252 724 LINE",
"42 73 LINE",
"1 60 LINE",
"-6 37 LINE"
);
},
{
closed = 1;
nodes = (
"136 75 LINE",
"165 148 OFFCURVE",
"351 401 OFFCURVE",
"359 404 CURVE",
"379 401 OFFCURVE",
"385 376 OFFCURVE",
"385 342 CURVE SMOOTH",
"385 257 OFFCURVE",
"279 29 OFFCURVE",
"231 29 CURVE",
"194 25 OFFCURVE",
"160 39 OFFCURVE",
"132 55 CURVE"
);
}
);
};
layerId = "E853F27E-0CC3-4FDD-9BAC-49585BC4B709";
name = "29 mar 22, 22:33";
paths = (
{
closed = 1;
nodes = (
"28 20 OFFCURVE",
"128 -19 OFFCURVE",
"166 -14 CURVE",
"238 -10 OFFCURVE",
"482 188 OFFCURVE",
"482 351 CURVE SMOOTH",
"482 403 OFFCURVE",
"452 471 OFFCURVE",
"395 483 CURVE",
"348 425 OFFCURVE",
"157 153 OFFCURVE",
"126 75 CURVE",
"124 75 LINE",
"356 752 LINE",
"350 758 LINE",
"252 724 LINE",
"42 73 LINE",
"1 60 LINE",
"-6 37 LINE"
);
},
{
closed = 1;
nodes = (
"136 75 LINE",
"165 148 OFFCURVE",
"351 401 OFFCURVE",
"359 404 CURVE",
"379 401 OFFCURVE",
"385 376 OFFCURVE",
"385 342 CURVE SMOOTH",
"385 257 OFFCURVE",
"279 29 OFFCURVE",
"231 29 CURVE",
"194 25 OFFCURVE",
"160 39 OFFCURVE",
"132 55 CURVE"
);
}
);
width = 470;
},
{
hints = (
{
origin = "{0, 12}";
type = Corner;
name = _corner.rightSerif;
options = 1;
}
);
layerId = "B4D6250A-EC24-4DD5-8C49-5E627D155568";
paths = (
{
closed = 1;
nodes = (
"366 30 OFFCURVE",
"531 180 OFFCURVE",
"531 344 CURVE SMOOTH",
"531 432 OFFCURVE",
"480 496 OFFCURVE",
"404 504 CURVE",
"312 436 OFFCURVE",
"248 270 OFFCURVE",
"168 78 CURVE",
"160 80 LINE",
"348 740 LINE",
"288 768 LINE",
"206 736 LINE",
"20 76 LINE",
"-24 64 LINE",
"-28 36 LINE",
"24 6 OFFCURVE",
"107 -14 OFFCURVE",
"186 -14 CURVE"
);
},
{
closed = 1;
nodes = (
"224 35 OFFCURVE",
"202 40 OFFCURVE",
"180 52 CURVE",
"220 160 OFFCURVE",
"292 316 OFFCURVE",
"356 404 CURVE",
"376 388 OFFCURVE",
"388 356 OFFCURVE",
"388 316 CURVE SMOOTH",
"388 188 OFFCURVE",
"328 80 OFFCURVE",
"248 32 CURVE"
);
}
);
width = 552;
},
{
associatedMasterId = "B4D6250A-EC24-4DD5-8C49-5E627D155568";
hints = (
{
origin = "{0, 12}";
type = Corner;
name = _corner.rightSerif;
options = 1;
}
);
layerId = "0C3855ED-4C34-4909-A46E-F5829EA21751";
name = "10 apr 22, 22:03";
paths = (
{
closed = 1;
nodes = (
"362 34 OFFCURVE",
"530 180 OFFCURVE",
"530 348 CURVE SMOOTH",
"530 440 OFFCURVE",
"486 500 OFFCURVE",
"406 504 CURVE",
"314 436 OFFCURVE",
"246 264 OFFCURVE",
"166 72 CURVE",
"162 73 LINE",
"349 744 LINE",
"289 768 LINE",
"207 736 LINE",
"22 84 LINE",
"-22 64 LINE",
"-26 36 LINE",
"26 6 OFFCURVE",
"107 -14 OFFCURVE",
"186 -14 CURVE"
);
},
{
closed = 1;
nodes = (
"214 30 OFFCURVE",
"194 36 OFFCURVE",
"178 44 CURVE",
"218 152 OFFCURVE",
"290 315 OFFCURVE",
"354 400 CURVE",
"377 388 OFFCURVE",
"388 352 OFFCURVE",
"388 308 CURVE SMOOTH",
"388 195 OFFCURVE",
"314 80 OFFCURVE",
"230 28 CURVE"
);
}
);
width = 550;
},
{
anchors = (
{
name = bottom;
position = "{230, 0}";
},
{
name = center;
position = "{303, 240}";
},
{
name = top;
position = "{376, 480}";
}
);
associatedMasterId = "B4D6250A-EC24-4DD5-8C49-5E627D155568";
background = {
paths = (
{
closed = 1;
nodes = (
"32 37 LINE",
"52 9 OFFCURVE",
"63 -9 OFFCURVE",
"83 -15 CURVE",
"174 18 LINE",
"181 40 LINE",
"395 750 LINE",
"385 757 LINE",
"241 718 LINE"
);
}
);
};
layerId = "EA5D3C03-C62A-40DA-AF0F-2DB891B0DC38";
name = "9 apr 22, 16:31";
paths = (
{
closed = 1;
nodes = (
"14 20 OFFCURVE",
"167 -19 OFFCURVE",
"205 -14 CURVE",
"360 -14 OFFCURVE",
"593 211 OFFCURVE",
"593 374 CURVE SMOOTH",
"593 426 OFFCURVE",
"570 495 OFFCURVE",
"451 506 CURVE",
"404 448 OFFCURVE",
"196 153 OFFCURVE",
"165 75 CURVE",
"163 75 LINE",
"395 750 LINE",
"385 757 LINE",
"229 704 LINE",
"28 73 LINE",
"-14 60 LINE",
"-20 37 LINE"
);
},
{
closed = 1;
nodes = (
"201 71 LINE",
"230 144 OFFCURVE",
"421 421 OFFCURVE",
"429 424 CURVE",
"440 421 OFFCURVE",
"445 410 OFFCURVE",
"445 386 CURVE SMOOTH",
"445 301 OFFCURVE",
"348 32 OFFCURVE",
"300 32 CURVE",
"276 32 OFFCURVE",
"224 49 OFFCURVE",
"199 60 CURVE"
);
}
);
width = 583;
}
);
leftKerningGroup = l;
rightKerningGroup = o;
unicode = 0062;
},
{
color = 3;
glyphname = c;
lastChange = "2022-04-13 22:33:14 +0000";
layers = (
{
anchors = (
{
name = bottom;
position = "{128, 0}";
},
{
name = top;
position = "{268, 470}";
}
);
layerId = "4AEC2A2F-21E0-4005-B5C4-61417F12BD89";
paths = (
{
closed = 1;
nodes = (
"312 78 LINE",
"307 86 LINE",
"279 66 OFFCURVE",
"243 48 OFFCURVE",
"207 36 CURVE",
"140 36 OFFCURVE",
"101 97 OFFCURVE",
"101 192 CURVE SMOOTH",
"101 326 OFFCURVE",
"159 414 OFFCURVE",
"247 458 CURVE",
"279 440 OFFCURVE",
"303 396 OFFCURVE",
"316 352 CURVE",
"344 352 LINE",
"380 424 LINE",
"361 455 OFFCURVE",
"317 478 OFFCURVE",
"275 484 CURVE",
"115 432 OFFCURVE",
"11 292 OFFCURVE",
"11 144 CURVE SMOOTH",
"11 51 OFFCURVE",
"68 -14 OFFCURVE",
"160 -14 CURVE"
);
}
);
width = 364;
},
{
anchors = (
{
name = bottom;
position = "{156, 0}";
},
{
name = top;
position = "{308, 490}";
}
);
layerId = "B4D6250A-EC24-4DD5-8C49-5E627D155568";
paths = (
{
closed = 1;
nodes = (
"356 76 LINE",
"346 92 LINE",
"314 72 OFFCURVE",
"284 56 OFFCURVE",
"248 44 CURVE",
"192 52 OFFCURVE",
"156 107 OFFCURVE",
"156 184 CURVE SMOOTH",
"156 312 OFFCURVE",
"212 432 OFFCURVE",
"288 476 CURVE",
"320 456 OFFCURVE",
"332 392 OFFCURVE",
"344 336 CURVE",
"380 336 LINE",
"428 444 LINE",
"404 476 OFFCURVE",
"354 500 OFFCURVE",
"308 504 CURVE",
"120 468 OFFCURVE",
"10 320 OFFCURVE",
"10 160 CURVE SMOOTH",
"10 54 OFFCURVE",
"84 -14 OFFCURVE",
"200 -14 CURVE"
);
}
);
width = 412;
},
{
anchors = (
{
name = bottom;
position = "{116, 0}";
},
{
name = top;
position = "{331, 495}";
}
);
associatedMasterId = "B4D6250A-EC24-4DD5-8C49-5E627D155568";
layerId = "DDD0EE35-8EB0-4CEF-B28C-0F1F0D24B18E";
name = "9 apr 22, 19:25";
paths = (
{
closed = 1;
nodes = (
"-14 300 OFFCURVE",
"-14 134 CURVE SMOOTH",
"-14 45 OFFCURVE",
"34 -2 OFFCURVE",
"155 -9 CURVE",
"199 11 OFFCURVE",
"277 69 OFFCURVE",
"307 94 CURVE",
"303 116 LINE",
"271 90 OFFCURVE",
"220 55 OFFCURVE",
"185 35 CURVE",
"145 39 OFFCURVE",
"140 89 OFFCURVE",
"140 134 CURVE SMOOTH",
"140 275 OFFCURVE",
"240 476 OFFCURVE",
"334 468 CURVE",
"356 454 OFFCURVE",
"385 390 OFFCURVE",
"397 349 CURVE",
"476 425 LINE",
"476 449 OFFCURVE",
"431 494 OFFCURVE",
"382 503 CURVE",
"238 505 OFFCURVE"
);
}
);
width = 412;
}
);
leftKerningGroup = o;
leftMetricsKey = o;
rightKerningGroup = c;
unicode = 0063;
},
{
glyphname = d;
lastChange = "2022-04-14 12:29:31 +0000";
layers = (
{
anchors = (
{
name = topright;
position = "{449, 470}";
}
);
hints = (
{
origin = "{0, 0}";
scale = "{1.48, 1}";
type = Corner;
name = _corner.rightSerif;
options = 1;
},
{
origin = "{0, 3}";
scale = "{1.2, 1}";
type = Corner;
name = _corner.rightSerif;
options = 1;
}
);
layerId = "4AEC2A2F-21E0-4005-B5C4-61417F12BD89";
paths = (
{
closed = 1;
nodes = (
"316 0 LINE",
"531 760 LINE",
"515 766 LINE",
"442 744 LINE",
"366 464 LINE",
"382 472 LINE",
"358 479 OFFCURVE",
"328 484 OFFCURVE",
"306 484 CURVE",
"146 432 OFFCURVE",
"8 272 OFFCURVE",
"8 124 CURVE SMOOTH",
"8 56 OFFCURVE",
"46 2 OFFCURVE",
"102 -14 CURVE",
"186 46 OFFCURVE",
"261 216 OFFCURVE",
"340 392 CURVE",
"344 391 LINE",
"232 12 LINE",
"294 -16 LINE"
);
},
{
closed = 1;
nodes = (
"115 68 OFFCURVE",
"100 108 OFFCURVE",
"100 180 CURVE SMOOTH",
"100 292 OFFCURVE",
"154 400 OFFCURVE",
"250 444 CURVE",
"286 444 OFFCURVE",
"316 432 OFFCURVE",
"336 416 CURVE",
"296 320 OFFCURVE",
"207 116 OFFCURVE",
"147 68 CURVE"
);
}
);
width = 473;
},
{
anchors = (
{
name = bottom;
position = "{167, 0}";
},
{
name = center;
position = "{239, 235}";
},
{
name = top;
position = "{396, 750}";
},
{
name = topright;
position = "{603, 700}";
}
);
associatedMasterId = "4AEC2A2F-21E0-4005-B5C4-61417F12BD89";
layerId = "B8E92C53-FD11-4692-AF46-0A4CF0CC6061";
name = "29 mar 22, 21:18";
paths = (
{
closed = 1;
nodes = (
"9 70 OFFCURVE",
"44 3 OFFCURVE",
"101 -7 CURVE",
"146 53 OFFCURVE",
"319 317 OFFCURVE",
"350 395 CURVE",
"353 395 LINE",
"221 3 LINE",
"223 -3 OFFCURVE",
"232 -11 OFFCURVE",
"237 -15 CURVE",
"427 69 LINE",
"432 82 LINE",
"326 40 LINE",
"559 745 LINE",
"553 760 LINE",
"466 725 LINE",
"380 479 LINE",
"379 477 LINE",
"357 483 OFFCURVE",
"336 486 OFFCURVE",
"320 484 CURVE",
"248 480 OFFCURVE",
"9 285 OFFCURVE",
"9 122 CURVE SMOOTH"
);
},
{
closed = 1;
nodes = (
"106 219 OFFCURVE",
"207 441 OFFCURVE",
"255 441 CURVE",
"291 445 OFFCURVE",
"323 432 OFFCURVE",
"350 417 CURVE",
"340 395 LINE",
"311 322 OFFCURVE",
"142 76 OFFCURVE",
"134 73 CURVE",
"114 76 OFFCURVE",
"106 100 OFFCURVE",
"106 134 CURVE SMOOTH"
);
}
);
width = 487;
},
{
anchors = (
{
name = topright;
position = "{530, 490}";
}
);
hints = (
{
origin = "{0, 0}";
scale = "{1.48, 1}";
type = Corner;
name = _corner.rightSerif;
options = 1;
},
{
origin = "{0, 3}";
scale = "{1.2, 1}";
type = Corner;
name = _corner.rightSerif;
options = 1;
}
);
layerId = "B4D6250A-EC24-4DD5-8C49-5E627D155568";
paths = (
{
closed = 1;
nodes = (
"392 4 LINE",
"600 744 LINE",
"544 768 LINE",
"460 744 LINE",
"390 482 LINE",
"408 492 LINE",
"389 499 OFFCURVE",
"363 504 OFFCURVE",
"342 504 CURVE",
"174 452 OFFCURVE",
"12 304 OFFCURVE",
"12 140 CURVE SMOOTH",
"12 54 OFFCURVE",
"59 -6 OFFCURVE",
"133 -14 CURVE",
"220 49 OFFCURVE",
"280 208 OFFCURVE",
"360 416 CURVE",
"368 414 LINE",
"257 24 LINE",
"360 -18 LINE"
);
},
{
closed = 1;
nodes = (
"169 108 OFFCURVE",
"155 143 OFFCURVE",
"155 184 CURVE SMOOTH",
"155 317 OFFCURVE",
"212 424 OFFCURVE",
"292 464 CURVE",
"314 460 OFFCURVE",
"332 450 OFFCURVE",
"348 436 CURVE",
"308 328 OFFCURVE",
"256 180 OFFCURVE",
"192 96 CURVE"
);
}
);
width = 554;
},
{
associatedMasterId = "B4D6250A-EC24-4DD5-8C49-5E627D155568";
hints = (
{
origin = "{0, 0}";
scale = "{1.4, 1}";
type = Corner;
name = _corner.rightSerif;
options = 1;
},
{
origin = "{0, 3}";
scale = "{1.2, 1}";
type = Corner;
name = _corner.rightSerif;
options = 1;
}
);
layerId = "E193B69D-39AE-403C-B301-3055D27858B7";
name = "10 apr 22, 13:29";
paths = (
{
closed = 1;
nodes = (
"395 4 LINE",
"603 744 LINE",
"541 768 LINE",
"456 742 LINE",
"388 480 LINE",
"408 498 LINE",
"387 502 OFFCURVE",
"363 504 OFFCURVE",
"344 504 CURVE",
"176 452 OFFCURVE",
"12 304 OFFCURVE",
"12 152 CURVE SMOOTH",
"12 63 OFFCURVE",
"63 -4 OFFCURVE",
"135 -14 CURVE",
"222 49 OFFCURVE",
"284 204 OFFCURVE",
"364 412 CURVE",
"368 411 LINE",
"258 36 LINE",
"363 -18 LINE"
);
},
{
closed = 1;
nodes = (
"171 108 OFFCURVE",
"156 143 OFFCURVE",
"156 184 CURVE SMOOTH",
"156 317 OFFCURVE",
"216 424 OFFCURVE",
"296 464 CURVE",
"314 464 OFFCURVE",
"336 452 OFFCURVE",
"352 436 CURVE",
"312 328 OFFCURVE",
"258 180 OFFCURVE",
"194 96 CURVE"
);
},
{
closed = 1;
nodes = (
"171 108 OFFCURVE",
"156 143 OFFCURVE",
"156 184 CURVE SMOOTH",
"156 317 OFFCURVE",
"216 424 OFFCURVE",
"296 464 CURVE",
"314 464 OFFCURVE",
"336 452 OFFCURVE",
"352 436 CURVE",
"312 328 OFFCURVE",
"258 180 OFFCURVE",
"194 96 CURVE"
);
}
);
width = 553;
},
{
anchors = (
{
name = bottom;
position = "{217, 0}";
},
{
name = center;
position = "{290, 240}";
},
{
name = top;
position = "{446, 750}";
},
{
name = topright;
position = "{709, 700}";
}
);
associatedMasterId = "B4D6250A-EC24-4DD5-8C49-5E627D155568";
layerId = "BC646A69-101F-49EB-A36B-AB1F2972B7CF";
name = "9 apr 22, 16:01";
paths = (
{
closed = 1;
nodes = (
"-20 68 OFFCURVE",
"45 -10 OFFCURVE",
"108 -20 CURVE",
"153 40 OFFCURVE",
"328 336 OFFCURVE",
"359 414 CURVE",
"362 414 LINE",
"358 400 LINE",
"353 386 LINE",
"239 2 LINE",
"241 -4 OFFCURVE",
"250 -12 OFFCURVE",
"255 -16 CURVE",
"491 68 LINE",
"501 94 LINE",
"390 61 LINE",
"613 735 LINE",
"607 750 LINE",
"337 678 LINE",
"329 651 LINE",
"457 683 LINE",
"391 498 LINE",
"368 501 OFFCURVE",
"346 503 OFFCURVE",
"329 503 CURVE SMOOTH",
"272 503 OFFCURVE",
"-20 283 OFFCURVE",
"-20 120 CURVE SMOOTH"
);
},
{
closed = 1;
nodes = (
"128 230 OFFCURVE",
"216 450 OFFCURVE",
"264 450 CURVE",
"300 454 OFFCURVE",
"333 441 OFFCURVE",
"360 425 CURVE",
"362 474 LINE",
"333 401 OFFCURVE",
"159 87 OFFCURVE",
"151 84 CURVE",
"136 87 OFFCURVE",
"128 111 OFFCURVE",
"128 145 CURVE SMOOTH"
);
}
);
width = 530;
}
);
leftKerningGroup = o;
leftMetricsKey = a;
rightKerningGroup = l;
rightMetricsKey = l;
unicode = 0064;
},
{
color = 1;
glyphname = eth;
lastChange = "2022-04-14 12:29:19 +0000";
layers = (
{
layerId = "4AEC2A2F-21E0-4005-B5C4-61417F12BD89";
paths = (
{
closed = 1;
nodes = (
"352 31 OFFCURVE",
"478 199 OFFCURVE",
"478 390 CURVE SMOOTH",
"478 559 OFFCURVE",
"384 708 OFFCURVE",
"252 752 CURVE",
"246 744 LINE",
"324 674 OFFCURVE",
"380 548 OFFCURVE",
"380 440 CURVE",
"376 438 LINE",
"272 484 LINE",
"112 432 OFFCURVE",
"26 318 OFFCURVE",
"26 172 CURVE SMOOTH",
"26 88 OFFCURVE",
"83 -14 OFFCURVE",
"174 -14 CURVE"
);
},
{
closed = 1;
nodes = (
"155 29 OFFCURVE",
"120 79 OFFCURVE",
"120 176 CURVE SMOOTH",
"120 286 OFFCURVE",
"174 396 OFFCURVE",
"273 437 CURVE",
"314 437 OFFCURVE",
"362 424 OFFCURVE",
"396 404 CURVE",
"384 420 LINE",
"384 239 OFFCURVE",
"324 112 OFFCURVE",
"201 10 CURVE"
);
},
{
closed = 1;
nodes = (
"496 696 LINE",
"492 708 LINE",
"200 584 LINE",
"204 572 LINE"
);
}
);
width = 488;
},
{
background = {
paths = (
{
closed = 1;
nodes = (
"83 258 OFFCURVE",
"83 92 CURVE SMOOTH",
"83 25 OFFCURVE",
"119 -5 OFFCURVE",
"155 -13 CURVE",
"343 -14 OFFCURVE",
"554 216 OFFCURVE",
"554 418 CURVE SMOOTH",
"554 596 OFFCURVE",
"433 723 OFFCURVE",
"340 750 CURVE",
"330 736 LINE",
"410 723 OFFCURVE",
"465 606 OFFCURVE",
"465 510 CURVE SMOOTH",
"465 498 OFFCURVE",
"464 486 OFFCURVE",
"462 474 CURVE",
"440 479 LINE",
"273 449 OFFCURVE"
);
}
);
};
layerId = "B4D6250A-EC24-4DD5-8C49-5E627D155568";
paths = (
{
closed = 1;
nodes = (
"398 33 OFFCURVE",
"530 200 OFFCURVE",
"530 390 CURVE SMOOTH",
"530 552 OFFCURVE",
"422 703 OFFCURVE",
"270 754 CURVE",
"262 742 LINE",
"340 672 OFFCURVE",
"378 568 OFFCURVE",
"378 460 CURVE",
"370 458 LINE",
"310 504 LINE",
"138 464 OFFCURVE",
"32 350 OFFCURVE",
"32 202 CURVE SMOOTH",
"32 81 OFFCURVE",
"107 -14 OFFCURVE",
"212 -14 CURVE"
);
},
{
closed = 1;
nodes = (
"204 34 OFFCURVE",
"182 103 OFFCURVE",
"182 190 CURVE SMOOTH",
"182 301 OFFCURVE",
"229 405 OFFCURVE",
"302 456 CURVE",
"338 447 OFFCURVE",
"372 435 OFFCURVE",
"390 424 CURVE",
"378 440 LINE",
"378 265 OFFCURVE",
"323 98 OFFCURVE",
"238 14 CURVE"
);
},
{
closed = 1;
nodes = (
"518 684 LINE",
"510 702 LINE",
"218 578 LINE",
"226 560 LINE"
);
}
);
width = 536;
},
{
associatedMasterId = "4AEC2A2F-21E0-4005-B5C4-61417F12BD89";
components = (
{
name = endash;
transform = "{-0.86603, -0.5, 0.17235, -0.29852, 572, 845}";
}
);
layerId = "266150B1-4FA0-49AF-98A5-AFEA4F16F40F";
name = "13 apr 22, 14:26";
paths = (
{
closed = 1;
nodes = (
"379 501 OFFCURVE",
"377 477 OFFCURVE",
"376 474 CURVE",
"354 479 LINE",
"187 449 OFFCURVE",
"-3 258 OFFCURVE",
"-3 92 CURVE SMOOTH",
"-3 25 OFFCURVE",
"33 -5 OFFCURVE",
"69 -13 CURVE",
"257 -14 OFFCURVE",
"468 216 OFFCURVE",
"468 418 CURVE SMOOTH",
"468 563 OFFCURVE",
"374 715 OFFCURVE",
"254 750 CURVE",
"244 736 LINE",
"324 723 OFFCURVE",
"379 606 OFFCURVE",
"379 510 CURVE SMOOTH"
);
},
{
closed = 1;
nodes = (
"90 217 OFFCURVE",
"205 449 OFFCURVE",
"309 449 CURVE SMOOTH",
"351 449 OFFCURVE",
"366 412 OFFCURVE",
"366 369 CURVE SMOOTH",
"366 230 OFFCURVE",
"257 7 OFFCURVE",
"136 19 CURVE SMOOTH",
"105 22 OFFCURVE",
"90 55 OFFCURVE",
"90 97 CURVE SMOOTH"
);
}
);
width = 461;
}
);
leftKerningGroup = eth;
leftMetricsKey = d;
rightKerningGroup = eth;
rightMetricsKey = O;
unicode = 00F0;
},
{
glyphname = dcroat;
lastChange = "2022-04-13 12:19:06 +0000";
layers = (
{
components = (
{
name = d;
}
);
layerId = "4AEC2A2F-21E0-4005-B5C4-61417F12BD89";
paths = (
{
closed = 1;
nodes = (
"540 610 LINE",
"542 624 LINE",
"224 624 LINE",
"222 610 LINE"
);
}
);
width = 473;
},
{
components = (
{
alignment = -1;
name = d;
}
);
layerId = "B4D6250A-EC24-4DD5-8C49-5E627D155568";
paths = (
{
closed = 1;
nodes = (
"616 604 LINE",
"618 624 LINE",
"244 624 LINE",
"242 604 LINE"
);
}
);
width = 554;
}
);
leftKerningGroup = o;
leftMetricsKey = a;
rightKerningGroup = l;
rightMetricsKey = l;
unicode = 0111;
},
{
color = 3;
glyphname = e;
lastChange = "2022-04-12 19:30:20 +0000";
layers = (
{
anchors = (
{
name = ogonek;
position = "{183, 0}";
},
{
name = top;
position = "{256, 470}";
}
);
layerId = "4AEC2A2F-21E0-4005-B5C4-61417F12BD89";
paths = (
{
closed = 1;
nodes = (
"302 72 LINE",
"298 80 LINE",
"277 65 OFFCURVE",
"239 47 OFFCURVE",
"207 36 CURVE",
"142 36 OFFCURVE",
"100 99 OFFCURVE",
"100 196 CURVE SMOOTH",
"100 306 OFFCURVE",
"161 415 OFFCURVE",
"248 458 CURVE",
"270 445 OFFCURVE",
"282 419 OFFCURVE",
"282 392 CURVE SMOOTH",
"282 324 OFFCURVE",
"216 249 OFFCURVE",
"88 193 CURVE",
"88 181 LINE",
"252 237 OFFCURVE",
"372 328 OFFCURVE",
"372 408 CURVE SMOOTH",
"372 453 OFFCURVE",
"336 484 OFFCURVE",
"280 484 CURVE",
"122 433 OFFCURVE",
"10 293 OFFCURVE",
"10 146 CURVE SMOOTH",
"10 50 OFFCURVE",
"68 -14 OFFCURVE",
"160 -14 CURVE"
);
}
);
width = 372;
},
{
anchors = (
{
name = ogonek;
position = "{224, 0}";
},
{
name = top;
position = "{284, 490}";
}
);
layerId = "B4D6250A-EC24-4DD5-8C49-5E627D155568";
paths = (
{
closed = 1;
nodes = (
"358 76 LINE",
"348 92 LINE",
"316 72 OFFCURVE",
"284 56 OFFCURVE",
"248 44 CURVE",
"192 56 OFFCURVE",
"154 116 OFFCURVE",
"154 196 CURVE SMOOTH",
"154 308 OFFCURVE",
"204 416 OFFCURVE",
"276 468 CURVE",
"288 456 OFFCURVE",
"296 432 OFFCURVE",
"296 404 CURVE SMOOTH",
"296 336 OFFCURVE",
"248 252 OFFCURVE",
"128 192 CURVE",
"132 180 LINE",
"316 228 OFFCURVE",
"436 296 OFFCURVE",
"436 396 CURVE SMOOTH",
"436 460 OFFCURVE",
"388 504 OFFCURVE",
"312 504 CURVE",
"124 464 OFFCURVE",
"8 308 OFFCURVE",
"8 160 CURVE SMOOTH",
"8 56 OFFCURVE",
"84 -14 OFFCURVE",
"200 -14 CURVE"
);
}
);
width = 428;
},
{
associatedMasterId = "4AEC2A2F-21E0-4005-B5C4-61417F12BD89";
layerId = "4E05C0D6-8582-4167-B1E3-5DC4582478B7";
name = "30 mar 22, 21:44";
paths = (
{
closed = 1;
nodes = (
"14 68 OFFCURVE",
"57 -3 OFFCURVE",
"143 -15 CURVE",
"188 3 OFFCURVE",
"275 62 OFFCURVE",
"305 80 CURVE",
"309 94 LINE",
"278 74 OFFCURVE",
"227 45 OFFCURVE",
"182 19 CURVE",
"132 25 OFFCURVE",
"113 74 OFFCURVE",
"113 153 CURVE SMOOTH",
"113 164 OFFCURVE",
"113 176 OFFCURVE",
"114 189 CURVE",
"136 189 OFFCURVE",
"395 321 OFFCURVE",
"395 423 CURVE SMOOTH",
"395 457 OFFCURVE",
"353 484 OFFCURVE",
"342 484 CURVE",
"200 495 OFFCURVE",
"21 311 OFFCURVE",
"16 140 CURVE SMOOTH"
);
},
{
closed = 1;
nodes = (
"119 313 OFFCURVE",
"217 472 OFFCURVE",
"297 472 CURVE SMOOTH",
"309 472 OFFCURVE",
"314 463 OFFCURVE",
"314 448 CURVE SMOOTH",
"314 383 OFFCURVE",
"160 201 OFFCURVE",
"115 201 CURVE"
);
}
);
width = 362;
}
);
leftKerningGroup = o;
leftMetricsKey = o;
rightKerningGroup = c;
unicode = 0065;
},
{
glyphname = f;
lastChange = "2022-04-14 12:29:36 +0000";
layers = (
{
layerId = "4AEC2A2F-21E0-4005-B5C4-61417F12BD89";
paths = (
{
closed = 1;
nodes = (
"-71 -240 OFFCURVE",
"24 -148 OFFCURVE",
"88 -64 CURVE",
"288 636 LINE SMOOTH",
"298 670 OFFCURVE",
"326 700 OFFCURVE",
"360 712 CURVE",
"464 656 LINE",
"492 660 LINE",
"518 720 LINE",
"498 744 OFFCURVE",
"457 764 OFFCURVE",
"424 764 CURVE",
"348 734 OFFCURVE",
"250 661 OFFCURVE",
"188 588 CURVE",
"-15 -116 LINE",
"-30 -166 OFFCURVE",
"-56 -200 OFFCURVE",
"-96 -220 CURVE",
"-243 -144 LINE",
"-272 -148 LINE",
"-309 -212 LINE",
"-258 -245 OFFCURVE",
"-207 -264 OFFCURVE",
"-159 -264 CURVE"
);
},
{
closed = 1;
nodes = (
"340 456 LINE",
"344 470 LINE",
"88 470 LINE",
"84 456 LINE"
);
}
);
width = 300;
},
{
layerId = "B4D6250A-EC24-4DD5-8C49-5E627D155568";
paths = (
{
closed = 1;
nodes = (
"-66 -241 OFFCURVE",
"68 -153 OFFCURVE",
"140 -52 CURVE",
"336 644 LINE SMOOTH",
"343 668 OFFCURVE",
"358 687 OFFCURVE",
"376 700 CURVE",
"524 612 LINE",
"564 616 LINE",
"606 704 LINE",
"561 741 OFFCURVE",
"508 764 OFFCURVE",
"472 764 CURVE",
"366 743 OFFCURVE",
"240 652 OFFCURVE",
"168 544 CURVE",
"-24 -132 LINE SMOOTH",
"-32 -160 OFFCURVE",
"-48 -182 OFFCURVE",
"-68 -196 CURVE",
"-224 -112 LINE",
"-264 -120 LINE",
"-316 -200 LINE",
"-272 -236 OFFCURVE",
"-219 -260 OFFCURVE",
"-183 -264 CURVE"
);
},
{
closed = 1;
nodes = (
"402 468 LINE",
"406 490 LINE",
"92 490 LINE",
"88 468 LINE"
);
}
);
width = 394;
},
{
associatedMasterId = "4AEC2A2F-21E0-4005-B5C4-61417F12BD89";
layerId = "68DEF704-8792-4186-BF9C-7C8A8DCC1D9A";
name = "29 mar 22, 22:51";
paths = (
{
closed = 1;
nodes = (
"-5 -141 OFFCURVE",
"84 -29 OFFCURVE",
"95 -6 CURVE",
"116 67 OFFCURVE",
"175 273 OFFCURVE",
"226 446 CURVE",
"334 444 LINE",
"373 454 LINE",
"376 465 LINE",
"231 459 LINE",
"291 658 LINE",
"291 663 OFFCURVE",
"352 685 OFFCURVE",
"394 685 CURVE SMOOTH",
"410 685 OFFCURVE",
"426 684 OFFCURVE",
"439 681 CURVE",
"510 735 LINE",
"491 756 OFFCURVE",
"458 762 OFFCURVE",
"424 762 CURVE",
"355 750 OFFCURVE",
"170 569 OFFCURVE",
"151 502 CURVE SMOOTH",
"140 463 LINE",
"71 462 LINE",
"76 438 LINE",
"134 445 LINE",
"44 124 LINE",
"33 76 OFFCURVE",
"-29 -146 OFFCURVE",
"-64 -199 CURVE",
"-81 -218 OFFCURVE",
"-98 -221 OFFCURVE",
"-122 -221 CURVE SMOOTH",
"-144 -221 OFFCURVE",
"-202 -187 OFFCURVE",
"-231 -169 CURVE",
"-323 -201 LINE",
"-270 -235 OFFCURVE",
"-213 -275 OFFCURVE",
"-157 -275 CURVE",
"-125 -255 OFFCURVE",
"-91 -231 OFFCURVE",
"-60 -205 CURVE"
);
}
);
width = 267;
},
{
anchors = (
{
name = bottom;
position = "{103, 0}";
},
{
name = top;
position = "{332, 750}";
}
);
associatedMasterId = "B4D6250A-EC24-4DD5-8C49-5E627D155568";
layerId = "86E55617-E9E8-4521-9820-323157372311";
name = "9 apr 22, 18:33";
paths = (
{
closed = 1;
nodes = (
"-286 -202 OFFCURVE",
"-178 -263 OFFCURVE",
"-122 -263 CURVE",
"14 -190 OFFCURVE",
"151 -29 OFFCURVE",
"162 -6 CURVE",
"187 81 OFFCURVE",
"267 339 OFFCURVE",
"293 426 CURVE",
"389 424 LINE",
"428 434 LINE",
"431 467 LINE",
"298 461 LINE",
"347 634 LINE",
"358 643 OFFCURVE",
"421 655 OFFCURVE",
"453 655 CURVE SMOOTH",
"469 655 OFFCURVE",
"535 646 OFFCURVE",
"548 643 CURVE",
"630 727 LINE",
"611 748 OFFCURVE",
"528 762 OFFCURVE",
"494 762 CURVE",
"456 744 OFFCURVE",
"183 544 OFFCURVE",
"167 489 CURVE SMOOTH",
"160 465 LINE",
"91 464 LINE",
"91 424 LINE",
"149 431 LINE",
"64 124 LINE SMOOTH",
"52 82 OFFCURVE",
"6 -93 OFFCURVE",
"-29 -172 CURVE",
"-37 -175 OFFCURVE",
"-43 -175 OFFCURVE",
"-53 -174 CURVE SMOOTH",
"-136 -167 OFFCURVE",
"-185 -119 OFFCURVE",
"-208 -105 CURVE",
"-339 -168 LINE"
);
}
);
width = 351;
}
);
leftKerningGroup = f;
rightKerningGroup = f;
unicode = 0066;
},
